<?xml version="1.0" encoding="UTF-8" standalone="no"?>
<svg
   width="14.1164"
   height="8.3142996"
   viewBox="0 0 14.1164 8.3142996"
   fill="none"
   version="1.1"
   id="svg6"
   sodipodi:docname="bi_arrow-left.svg"
   inkscape:version="1.1.1 (3bf5ae0d25, 2021-09-20)"
   xmlns:inkscape="http://www.inkscape.org/namespaces/inkscape"
   xmlns:sodipodi="http://sodipodi.sourceforge.net/DTD/sodipodi-0.dtd"
   xmlns="http://www.w3.org/2000/svg"
   xmlns:svg="http://www.w3.org/2000/svg">
  <defs
     id="defs10" />
  <sodipodi:namedview
     id="namedview8"
     pagecolor="#ffffff"
     bordercolor="#666666"
     borderopacity="1.0"
     inkscape:pageshadow="2"
     inkscape:pageopacity="0.0"
     inkscape:pagecheckerboard="0"
     showgrid="false"
     inkscape:zoom="45.947368"
     inkscape:cx="7.3453608"
     inkscape:cy="4.6248568"
     inkscape:window-width="2560"
     inkscape:window-height="1369"
     inkscape:window-x="1592"
     inkscape:window-y="-8"
     inkscape:window-maximized="1"
     inkscape:current-layer="svg6" />
  <path
     fill-rule="evenodd"
     clip-rule="evenodd"
     d="M 4.53441,0.17443 C 4.58918,0.22959 4.63264,0.29511 4.66229,0.36724 4.69194,0.43938 4.7072,0.51671 4.7072,0.59481 4.7072,0.67291 4.69194,0.75024 4.66229,0.82237 4.63264,0.89451 4.58918,0.96003 4.53441,1.01518 L 1.42082,4.15731 4.53441,7.2994 c 0.05469,0.0552 0.09806,0.1208 0.12766,0.1929 0.02959,0.0721 0.04482,0.1494 0.04482,0.2275 0,0.0781 -0.01523,0.1554 -0.04482,0.2275 C 4.63247,8.0194 4.5891,8.085 4.53441,8.1402 4.47973,8.1954 4.41481,8.2392 4.34337,8.2691 4.27192,8.2989 4.19535,8.3143 4.11801,8.3143 4.04068,8.3143 3.9641,8.2989 3.89266,8.2691 3.82121,8.2392 3.75629,8.1954 3.70161,8.1402 L 0.17279,4.57768 C 0.11802,4.52253 0.07457,4.45701 0.04492,4.38487 0.01527,4.31274 0,4.23541 0,4.15731 0,4.07921 0.01527,4.00188 0.04492,3.92974 0.07457,3.85761 0.11802,3.79209 0.17279,3.73693 L 3.70161,0.17443 C 3.75624,0.11914 3.82115,0.07527 3.8926,0.04534 3.96405,0.0154 4.04065,0 4.11801,0 4.19537,0 4.27197,0.0154 4.34343,0.04534 4.41488,0.07527 4.47978,0.11914 4.53441,0.17443 Z"
     fill="#56597a"
     fill-opacity="0.6"
     id="path2" />
  <path
     fill-rule="evenodd"
     clip-rule="evenodd"
     d="M 0.58924,4.15734 C 0.58924,3.99987 0.6512,3.84885 0.7615,3.7375 0.8718,3.62615 1.02139,3.56359 1.17737,3.56359 H 13.5282 c 0.156,0 0.3056,0.06256 0.4159,0.17391 0.1103,0.11135 0.1723,0.26237 0.1723,0.41984 0,0.15748 -0.062,0.3085 -0.1723,0.41985 C 13.8338,4.6885 13.6842,4.7511 13.5282,4.7511 H 1.17737 C 1.02139,4.7511 0.8718,4.6885 0.7615,4.57719 0.6512,4.46584 0.58924,4.31482 0.58924,4.15734 Z"
     fill="#56597a"
     fill-opacity="0.6"
     id="path4" />
</svg>
