<svg width="21" height="11" viewBox="0 0 21 11" fill="none" xmlns="http://www.w3.org/2000/svg">
<path fill-rule="evenodd" clip-rule="evenodd" d="M14.1575 0.25955C14.2333 0.186795 14.3235 0.129072 14.4227 0.0896868C14.522 0.0503018 14.6284 0.0300293 14.7358 0.0300293C14.8432 0.0300293 14.9496 0.0503018 15.0489 0.0896868C15.1481 0.129072 15.2383 0.186795 15.3141 0.25955L20.2153 4.94705C20.2913 5.01962 20.3517 5.10583 20.3929 5.20075C20.4341 5.29566 20.4553 5.39742 20.4553 5.50018C20.4553 5.60294 20.4341 5.70469 20.3929 5.7996C20.3517 5.89452 20.2913 5.98073 20.2153 6.0533L15.3141 10.7408C15.1607 10.8875 14.9527 10.9699 14.7358 10.9699C14.5189 10.9699 14.3108 10.8875 14.1575 10.7408C14.0041 10.5941 13.9179 10.3951 13.9179 10.1877C13.9179 9.98022 14.0041 9.78125 14.1575 9.63455L18.4819 5.50018L14.1575 1.3658C14.0814 1.29323 14.021 1.20702 13.9799 1.1121C13.9387 1.01719 13.9175 0.915437 13.9175 0.812676C13.9175 0.709914 13.9387 0.608162 13.9799 0.513248C14.021 0.418334 14.0814 0.332122 14.1575 0.25955Z" fill="#F78CB6"/>
<path fill-rule="evenodd" clip-rule="evenodd" d="M0.849243 5.50024C0.849243 5.29304 0.935305 5.09433 1.0885 4.94782C1.24169 4.8013 1.44946 4.71899 1.6661 4.71899H18.8201C19.0367 4.71899 19.2445 4.8013 19.3977 4.94782C19.5509 5.09433 19.6369 5.29304 19.6369 5.50024C19.6369 5.70744 19.5509 5.90616 19.3977 6.05267C19.2445 6.19918 19.0367 6.28149 18.8201 6.28149H1.6661C1.44946 6.28149 1.24169 6.19918 1.0885 6.05267C0.935305 5.90616 0.849243 5.70744 0.849243 5.50024Z" fill="#F78CB6"/>
</svg>
