<?xml version="1.0" encoding="UTF-8" standalone="no"?>
<svg
   width="14.1164"
   height="8.3142996"
   viewBox="0 0 14.1164 8.3142996"
   fill="none"
   version="1.1"
   id="svg6"
   sodipodi:docname="bi_arrow-right.svg"
   inkscape:version="1.1.1 (3bf5ae0d25, 2021-09-20)"
   xmlns:inkscape="http://www.inkscape.org/namespaces/inkscape"
   xmlns:sodipodi="http://sodipodi.sourceforge.net/DTD/sodipodi-0.dtd"
   xmlns="http://www.w3.org/2000/svg"
   xmlns:svg="http://www.w3.org/2000/svg">
  <defs
     id="defs10" />
  <sodipodi:namedview
     id="namedview8"
     pagecolor="#ffffff"
     bordercolor="#666666"
     borderopacity="1.0"
     inkscape:pageshadow="2"
     inkscape:pageopacity="0.0"
     inkscape:pagecheckerboard="0"
     showgrid="false"
     inkscape:zoom="45.947368"
     inkscape:cx="7.3453608"
     inkscape:cy="4.6248568"
     inkscape:window-width="2560"
     inkscape:window-height="1369"
     inkscape:window-x="1592"
     inkscape:window-y="-8"
     inkscape:window-maximized="1"
     inkscape:current-layer="svg6" />
  <path
     fill-rule="evenodd"
     clip-rule="evenodd"
     d="M 9.58199,8.13987 C 9.52722,8.08471 9.48376,8.01919 9.45411,7.94706 9.42446,7.87492 9.4092,7.79759 9.4092,7.71949 9.4092,7.64139 9.42446,7.56406 9.45411,7.49193 9.48376,7.41979 9.52722,7.35427 9.58199,7.29912 L 12.69558,4.15699 9.58199,1.0149 C 9.5273,0.9597 9.48393,0.8941 9.45433,0.822 9.42474,0.7499 9.40951,0.6726 9.40951,0.5945 9.40951,0.5164 9.42474,0.4391 9.45433,0.367 9.48393,0.2949 9.5273,0.2293 9.58199,0.1741 9.63667,0.1189 9.70159,0.0751 9.77303,0.0452 9.84448,0.0154 9.92105,0 9.99839,0 c 0.07733,0 0.15391,0.0154 0.22535,0.0452 0.07145,0.0299 0.13637,0.0737 0.19105,0.1289 l 3.52882,3.56252 c 0.05477,0.05515 0.09822,0.12067 0.12787,0.19281 0.02965,0.07213 0.04492,0.14946 0.04492,0.22756 0,0.0781 -0.01527,0.15543 -0.04492,0.22757 -0.02965,0.07213 -0.0731,0.13765 -0.12787,0.19281 l -3.52882,3.5625 C 10.36016,8.19516 10.29525,8.23903 10.2238,8.26896 10.15235,8.2989 10.07575,8.3143 9.99839,8.3143 9.92103,8.3143 9.84443,8.2989 9.77297,8.26896 9.70152,8.23903 9.63662,8.19516 9.58199,8.13987 Z"
     fill="#56597a"
     fill-opacity="0.6"
     id="path2" />
  <path
     fill-rule="evenodd"
     clip-rule="evenodd"
     d="m 13.52716,4.15696 c 0,0.15747 -0.06196,0.30849 -0.17226,0.41984 -0.1103,0.11135 -0.25989,0.17391 -0.41587,0.17391 H 0.5882 C 0.4322,4.75071 0.2826,4.68815 0.1723,4.5768 0.062,4.46545 0,4.31443 0,4.15696 0,3.99948 0.062,3.84846 0.1723,3.73711 0.2826,3.6258 0.4322,3.5632 0.5882,3.5632 h 12.35083 c 0.15598,0 0.30557,0.0626 0.41587,0.17391 0.1103,0.11135 0.17226,0.26237 0.17226,0.41985 z"
     fill="#56597a"
     fill-opacity="0.6"
     id="path4" />
</svg>
