<?xml version="1.0" encoding="UTF-8" standalone="no"?>
<svg
   width="157"
   height="42.330299"
   viewBox="0 0 157 42.330299"
   fill="none"
   version="1.1"
   id="svg46"
   sodipodi:docname="ferrari.svg"
   inkscape:version="1.1.1 (3bf5ae0d25, 2021-09-20)"
   xmlns:inkscape="http://www.inkscape.org/namespaces/inkscape"
   xmlns:sodipodi="http://sodipodi.sourceforge.net/DTD/sodipodi-0.dtd"
   xmlns="http://www.w3.org/2000/svg"
   xmlns:svg="http://www.w3.org/2000/svg">
  <defs
     id="defs50" />
  <sodipodi:namedview
     id="namedview48"
     pagecolor="#ffffff"
     bordercolor="#666666"
     borderopacity="1.0"
     inkscape:pageshadow="2"
     inkscape:pageopacity="0.0"
     inkscape:pagecheckerboard="0"
     showgrid="false"
     inkscape:zoom="5.5605096"
     inkscape:cx="78.5"
     inkscape:cy="21.131157"
     inkscape:window-width="2560"
     inkscape:window-height="1369"
     inkscape:window-x="1592"
     inkscape:window-y="-8"
     inkscape:window-maximized="1"
     inkscape:current-layer="svg46" />
  <path
     d="m 0,37.7738 c 0,-0.3489 0.282723,-0.6316 0.63168,-0.6316 h 1.18578 c 0.90888,0 2.72695,-0.2024 2.72695,-2.6316 V 12.6462 c 0,-1.3161 -0.09107,-4.454 -2.36328,-4.454 H 0.961932 C 0.532328,8.1922 0.228141,7.7727 0.361529,7.3643 L 2.31207,1.3873 C 2.39701,1.1272 2.63926,0.9515 2.91247,0.9515 H 141.646 c 0.349,0 0.632,0.2827 0.632,0.6317 v 5.977 c 0,0.349 -0.283,0.6317 -0.632,0.6317 H 13.6335 c -1.1814,0 -2.7263,0.3036 -2.7263,2.9352 v 6.8835 c 0.2726,0.8095 1.3633,1.1131 1.9085,1.1131 0.5115,0 2.2207,-0.0887 2.4323,-2.8524 0.0252,-0.3303 0.2922,-0.5891 0.6234,-0.5891 h 1.4937 c 0.3489,0 0.6316,0.2828 0.6316,0.6317 v 9.9723 c 0,0.3489 -0.2827,0.6316 -0.6316,0.6316 h -1.5458 c -0.2944,0 -0.544,-0.2033 -0.6139,-0.4897 -0.242,-0.9925 -1.1419,-2.2375 -2.2986,-2.3448 -1.0907,-0.1015 -1.9996,0.3035 -1.9996,1.9232 v 8.5029 c 0,0.911 1,2.6315 3.3629,2.6315 h 1.0043 c 0.3489,0 0.6317,0.2828 0.6317,0.6317 v 3.9247 c 0,0.349 -0.2828,0.6317 -0.6317,0.6317 H 0.63168 C 0.282723,42.329 0,42.0463 0,41.6973 Z"
     fill="#c1c1c1"
     id="path2" />
  <path
     d="m 92.7784,16.493 v 11.1354 h -6.3622 v -5.3767 c 0,0 -0.2716,-1.9238 -1.1814,-2.0247 -0.0663,-0.0064 -0.1389,-0.0031 -0.2181,0.0126 -1.0171,0.1864 -3.0989,2.0848 -3.6898,3.0231 v 12.159 c 0,1.6015 1.2005,2.1544 1.8923,2.3409 0.2781,0.0726 0.4707,0.3222 0.4707,0.6095 v 3.3265 c 0,0.3489 -0.2827,0.6317 -0.6317,0.6317 h -9.8244 c -0.3475,0 -0.6317,-0.2843 -0.6317,-0.6317 v -3.3623 c 0,-0.3153 0.233,-0.5777 0.5449,-0.6243 0.907,-0.1353 1.7414,-0.6691 1.8181,-2.1889 V 18.4172 c 0,-0.2527 -0.18,-0.7359 -0.5686,-1.153 -0.3029,-0.3275 -0.7328,-0.6163 -1.3001,-0.7249 -0.2904,-0.0555 -0.494,-0.3198 -0.494,-0.6154 v -1.8343 c 0,-0.349 0.2827,-0.6317 0.6317,-0.6317 h 6.9402 c 0.275,0 0.5065,0.1821 0.6016,0.4406 0.2367,0.644 0.9233,1.2137 1.3698,1.379 0.6381,-0.5053 3.9992,-2.6313 6.6338,-2.6313 2.6374,-9e-4 3.9989,1.5185 3.9989,3.8468 z"
     fill="#c1c1c1"
     id="path4" />
  <path
     d="m 156.782,14.0889 v 1.8417 c 0,0.2968 -0.209,0.5528 -0.502,0.616 -0.992,0.2116 -1.861,1.0297 -1.861,2.0723 v 16.8024 c 0,1.21 0.932,2.1259 1.883,2.366 0.281,0.0727 0.48,0.3223 0.48,0.613 v 3.2979 c 0,0.3489 -0.283,0.6317 -0.632,0.6317 h -9.824 c -0.349,0 -0.632,-0.2828 -0.632,-0.6317 v -3.4657 c 0,-0.2729 0.174,-0.5133 0.433,-0.5988 0.204,-0.0672 0.458,-0.1681 0.714,-0.3137 0.581,-0.3284 1.172,-0.8844 1.216,-1.7976 V 18.4168 c 0,-0.2527 -0.18,-0.7359 -0.569,-1.153 -0.303,-0.3275 -0.733,-0.6163 -1.3,-0.7249 -0.29,-0.0555 -0.494,-0.3198 -0.494,-0.6154 v -1.8343 c 0,-0.349 0.283,-0.6317 0.632,-0.6317 h 9.824 c 0.349,-3e-4 0.632,0.2827 0.632,0.6314 z"
     fill="#c1c1c1"
     id="path6" />
  <path
     d="m 68.2398,16.4929 v 10.5037 c 0,0.3489 -0.2827,0.6317 -0.6317,0.6317 h -5.0985 c -0.349,0 -0.6317,-0.2828 -0.6317,-0.6317 v -4.7447 c 0,0 -0.2717,-1.9238 -1.1815,-2.0247 -0.0631,-0.0065 -0.1358,-0.0031 -0.2149,0.0126 -0.9601,0.1723 -2.8625,1.8634 -3.5733,2.8468 -0.0782,0.1083 -0.1193,0.2374 -0.1193,0.3707 v 11.9642 c 0,0.7108 0.3189,1.3174 0.774,1.747 0.3225,0.3045 0.7117,0.5203 1.1057,0.6197 0.2827,0.0718 0.4833,0.3204 0.4833,0.6121 v 3.2979 c 0,0.3489 -0.2827,0.6317 -0.6317,0.6317 h -9.8245 c -0.3489,0 -0.6316,-0.2828 -0.6316,-0.6317 v -3.3623 c 0,-0.3153 0.233,-0.5778 0.5452,-0.6244 0.3633,-0.0539 0.7144,-0.172 1.0122,-0.3915 0.4422,-0.3285 0.758,-0.8844 0.8055,-1.7976 V 18.4168 c 0,-0.2527 -0.1833,-0.736 -0.5685,-1.153 -0.3014,-0.3232 -0.7221,-0.6084 -1.2771,-0.7206 -0.2981,-0.0601 -0.517,-0.3155 -0.517,-0.6197 v -1.8343 c 0,-0.349 0.2827,-0.6317 0.6316,-0.6317 h 6.9375 c 0.275,0 0.5062,0.1818 0.6013,0.44 0.2373,0.6443 0.9261,1.214 1.3725,1.3793 0.6351,-0.5054 3.9992,-2.6313 6.6339,-2.6313 2.6337,-3e-4 3.9986,1.5191 3.9986,3.8474 z"
     fill="#c1c1c1"
     id="path8" />
  <path
     d="m 141.97,16.4929 v 11.1354 h -6.362 v -5.3767 c 0,0 -0.275,-1.9238 -1.182,-2.0247 -0.073,-0.0095 -0.158,-0.0031 -0.25,0.019 -0.003,-0.0031 -0.006,0 -0.009,0 -1.036,0.2306 -3.067,2.0913 -3.652,3.0167 v 12.1589 c 0,0.8372 0.294,1.387 0.673,1.747 0.379,0.36 0.843,0.5308 1.191,0.6096 0.291,0.0696 0.499,0.3189 0.499,0.6191 v 3.301 c 0,0.3474 -0.281,0.6317 -0.632,0.6317 h -9.824 c -0.347,0 -0.632,-0.2843 -0.632,-0.6317 v -3.3645 c 0,-0.3128 0.234,-0.5749 0.547,-0.6222 0.906,-0.1358 1.74,-0.6697 1.816,-2.1891 V 18.4168 c 0,-0.6697 -0.29,-1.1058 -0.663,-1.39 -0.379,-0.2843 -0.84,-0.4171 -1.188,-0.4802 -0.296,-0.0537 -0.511,-0.3189 -0.511,-0.6222 v -1.8352 c 0,-0.3505 0.284,-0.6317 0.631,-0.6317 h 6.921 c 0.294,0 0.547,0.2021 0.616,0.4863 0.13,0.5403 0.478,1.333 1.375,1.333 0.638,-0.5054 3.999,-2.6313 6.636,-2.6313 2.635,-3e-4 4,1.5191 4,3.8474 z"
     fill="#c1c1c1"
     id="path10" />
  <path
     d="m 37.5328,32.2831 c -0.3489,0 -0.6317,0.2827 -0.6317,0.6317 v 0.3827 0.6559 c 0,1.1131 -0.1815,1.7227 -3.1811,1.7227 -2.9995,0 -3.9081,-2.2268 -3.9081,-3.8468 v -2.0796 -0.9086 c 0,-0.506 0.3637,-0.306 1,-0.306 h 11.8197 c 0.349,0 0.6317,-0.2828 0.6317,-0.6317 v -7.666 c 0,-3.3403 -0.6363,-4.3528 -1.9085,-5.7695 -1.2726,-1.4173 -5.7259,-1.822 -7.7255,-1.822 -5.0896,0 -6.7259,0.8098 -8.1797,2.1256 -1.4543,1.3161 -1.9996,4.0489 -1.9996,6.0736 v 11.4383 c 0,3.0367 0.6504,5.2068 2.2735,7.2193 2.2608,2.803 6.9972,2.8024 8.0879,2.8024 1.0904,0 4.7263,0.1014 7.3619,-2.0245 2.1182,-1.7083 2.1817,-5.8366 2.1253,-7.3909 -0.0123,-0.3389 -0.2923,-0.606 -0.6314,-0.606 z M 29.8116,20.4364 c 0,-1.0086 0.4544,-2.5218 3.6355,-2.5218 3.1811,0 3.4537,1.6393 3.4537,2.5218 v 2.2697 c 0,0.3781 -0.4544,0.7565 -1.0904,0.7565 H 30.902 c -0.5455,0 -1.0904,-0.3152 -1.0904,-0.6936 z"
     fill="#c1c1c1"
     id="path12" />
  <path
     d="M 116.156,35.4208 V 20.2372 c 0,-2.328 -0.09,-4.7575 -2.272,-6.4784 -2.181,-1.7205 -5.726,-1.6196 -7.089,-1.6196 -1.363,0 -5.907,0 -7.9984,2.6315 -2.0904,2.6319 -1.7267,5.1623 -1.7267,6.1746 h 6.4971 c 0,0 -0.135,-1.0813 0.683,-1.9923 0.823,-0.9168 3,-1.9232 4.681,-0.3036 0.619,0.5971 0.863,1.3667 0.863,2.2272 v 1.9919 c 0,0.4051 -0.364,1.0122 -0.818,1.0122 0,0 -8.271,0.2027 -9.725,1.4173 -1.4544,1.2146 -2.7266,2.0242 -2.7266,6.4784 0,4.454 0.9996,7.7188 2.1811,8.6301 1.1815,0.911 1.7265,1.9233 7.0895,1.9233 h 12.724 v -4.4794 c -1.09,0 -2.363,-1.0123 -2.363,-2.4296 z m -6.362,-0.0036 c 0,0.1383 -0.364,0.3324 -0.636,0.3324 h -3.136 c -2.227,0 -2.863,-1.1637 -2.863,-1.884 v -2.1333 c 0,-2.0781 3.545,-2.0223 4.953,-2.0223 1.409,0 1.682,0.7203 1.682,1.1913 z"
     fill="#c1c1c1"
     id="path14" />
  <path
     d="M 151.239,8.1416 C 154.421,8.1416 157,6.3189 157,4.0709 157,1.8227 154.421,0 151.239,0 c -3.181,0 -5.76,1.8227 -5.76,4.0709 0,2.248 2.579,4.0707 5.76,4.0707 z"
     fill="#c1c1c1"
     id="path16" />
  <path
     d="m 15.9054,37.7747 v 3.9235 c 0,0.3474 -0.2812,0.6317 -0.6317,0.6317 h -2.8431 v -5.6198 c 0.4832,0.2621 1.0928,0.4326 1.8386,0.4326 h 1.0045 c 0.3505,3e-4 0.6317,0.2812 0.6317,0.632 z"
     fill="#c1c1c1"
     id="path18" />
  <path
     d="m 14.5212,18.3855 v 6.6881 c 0.3364,0.4222 0.5771,0.9181 0.6848,1.3624 0.0687,0.2833 0.3201,0.4817 0.6114,0.4817 h 1.5467 c 0.349,0 0.6317,-0.2827 0.6317,-0.6317 v -9.9722 c 0,-0.349 -0.2827,-0.6317 -0.6317,-0.6317 h -1.4863 c -0.3266,0 -0.6047,0.249 -0.6289,0.5747 -0.0779,1.0431 -0.3683,1.7061 -0.7277,2.1287 z"
     fill="#c1c1c1"
     id="path20" />
  <path
     d="m 138.803,0.9515 v 7.2407 h 2.843 c 0.349,0 0.632,-0.2827 0.632,-0.6317 v -5.977 c 0,-0.3489 -0.283,-0.6317 -0.632,-0.6317 h -2.843 z"
     fill="#c1c1c1"
     id="path22" />
  <path
     d="m 88.7804,12.6459 c -0.5685,0 -1.1711,0.1027 -1.7727,0.2631 1.5176,0.5289 2.2971,1.8242 2.2971,3.5834 v 11.1347 h 3.4748 V 16.4924 c -3e-4,-2.3284 -1.3633,-3.8465 -3.9992,-3.8465 z"
     fill="#c1c1c1"
     id="path24" />
  <path
     d="m 154.419,18.6189 v 16.8024 c 0,1.21 0.932,2.126 1.883,2.3661 0.281,0.0726 0.48,0.3222 0.48,0.6129 v 3.2979 c 0,0.3475 -0.281,0.6317 -0.632,0.6317 h -2.843 v -4.4794 c -1.09,0 -2.363,-1.011 -2.363,-2.4292 V 18.6189 c 0,-1.0425 0.869,-1.8607 1.861,-2.0722 0.294,-0.0632 0.502,-0.3189 0.502,-0.6161 v -2.4733 h 2.843 c 0.351,0 0.632,0.2811 0.632,0.6316 v 1.8417 c 0,0.2968 -0.209,0.5529 -0.502,0.6161 -0.992,0.2115 -1.861,1.0297 -1.861,2.0722 z"
     fill="#c1c1c1"
     id="path26" />
  <path
     d="m 56.9079,23.0864 c -0.0782,0.1082 -0.1193,0.2373 -0.1193,0.3707 v 11.9642 c 0,0.7108 0.3189,1.3173 0.774,1.7469 0.3226,0.3045 0.7117,0.5204 1.1057,0.6197 0.2827,0.0718 0.4833,0.3205 0.4833,0.6121 v 3.2979 c 0,0.349 -0.2827,0.6317 -0.6317,0.6317 h -2.8432 v -4.4794 c -1.0898,0 -2.3629,-1.011 -2.3629,-2.4292 v -9.6365 c 0,-3.6196 5.6437,-5.4818 7.1802,-5.5613 -0.0064,0.0031 -0.0095,0.0096 -0.0125,0.016 -0.9601,0.1726 -2.8628,1.8638 -3.5736,2.8472 z"
     fill="#c1c1c1"
     id="path28" />
  <path
     d="m 81.3272,23.2622 v 12.159 c 0,1.6015 1.2005,2.1544 1.8923,2.3408 0.2781,0.0727 0.4706,0.3223 0.4706,0.6097 v 3.3264 c 0,0.3489 -0.2827,0.6317 -0.6316,0.6317 h -2.8463 v -3.9296 c 0,-0.2917 -0.2005,-0.5406 -0.4832,-0.6121 -0.9503,-0.2407 -1.8797,-1.1548 -1.8797,-2.3666 v -9.6381 c 0,-3.6171 5.6418,-5.4809 7.1803,-5.5597 -0.0065,0.0031 -0.0096,0.0095 -0.0126,0.016 -1.0175,0.1858 -3.0989,2.0845 -3.6898,3.0225 z"
     fill="#c1c1c1"
     id="path30" />
  <path
     d="m 134.205,20.2236 c -0.007,0.0031 -0.01,0.0095 -0.013,0.016 -0.006,0 -0.009,0.003 -0.016,0.0064 -0.003,-0.0031 -0.006,0 -0.009,0 -1.036,0.2306 -3.067,2.0913 -3.652,3.0167 v 12.159 c 0,0.8371 0.294,1.3869 0.673,1.7469 0.379,0.36 0.843,0.5308 1.191,0.6096 0.291,0.0696 0.499,0.3189 0.499,0.6191 v 3.301 c 0,0.3474 -0.281,0.6317 -0.632,0.6317 h -2.858 v -3.9296 c 0,-0.2907 -0.202,-0.5403 -0.484,-0.613 -0.951,-0.2401 -1.879,-1.153 -1.879,-2.3661 v -9.638 c 0,-3.6168 5.641,-5.4806 7.18,-5.5597 z"
     fill="#c1c1c1"
     id="path32" />
  <path
     d="m 64.2406,12.6459 c -0.5686,0 -1.1711,0.1027 -1.7727,0.2631 1.5175,0.5289 2.297,1.8242 2.297,3.5834 v 11.1347 h 2.8432 c 0.3489,0 0.6317,-0.2827 0.6317,-0.6317 V 16.4927 c 0,-2.3287 -1.3637,-3.8468 -3.9992,-3.8468 z"
     fill="#c1c1c1"
     id="path34" />
  <path
     d="m 137.97,12.6459 c -0.569,0 -1.172,0.1027 -1.773,0.2631 1.517,0.5289 2.297,1.8242 2.297,3.5834 v 11.1347 h 3.475 V 16.4924 c 0,-2.3284 -1.364,-3.8465 -3.999,-3.8465 z"
     fill="#c1c1c1"
     id="path36" />
  <path
     d="m 37.8796,14.451 c 1.2726,1.4167 1.9085,2.4292 1.9085,5.7694 v 8.298 h 2.8432 c 0.349,0 0.6317,-0.2827 0.6317,-0.6316 v -7.666 c 0,-3.3403 -0.6363,-4.3528 -1.9085,-5.7695 -1.2726,-1.4173 -5.7259,-1.822 -7.7255,-1.822 -0.7532,0 -1.4293,0.0184 -2.0417,0.0527 2.206,0.1472 5.2721,0.632 6.2923,1.769 z"
     fill="#c1c1c1"
     id="path38" />
  <path
     d="m 42.6666,32.2828 h -2.8785 c 0,0 0.5455,5.8716 -2.0906,7.9972 -1.7369,1.4007 -3.9039,1.8325 -5.4947,1.9656 0.7276,0.0588 1.3069,0.0592 1.6077,0.0592 1.0904,0 4.7262,0.1011 7.3618,-2.0245 2.1183,-1.7083 2.1818,-5.8366 2.1253,-7.3912 -0.0116,-0.3392 -0.2916,-0.6063 -0.631,-0.6063 z"
     fill="#c1c1c1"
     id="path40" />
  <path
     d="M 116.156,35.4208 V 20.2372 c 0,-2.328 -0.09,-4.7575 -2.272,-6.4784 -2.181,-1.7205 -5.726,-1.6196 -7.089,-1.6196 -0.336,0 -0.866,0 -1.504,0.0395 1.615,0.0981 3.667,0.4351 5.119,1.5798 2.181,1.7209 2.272,4.1504 2.272,6.4784 v 15.1836 c 0,1.417 1.272,2.4292 2.363,2.4292 v 4.4795 h 3.475 v -4.4795 c -1.091,7e-4 -2.364,-1.0116 -2.364,-2.4289 z"
     fill="#c1c1c1"
     id="path42" />
  <path
     d="m 151.239,0 c -0.605,0 -1.189,0.0665 -1.737,0.1895 2.332,0.5207 4.023,2.0612 4.023,3.8814 0,1.82 -1.691,3.3605 -4.023,3.8815 0.548,0.1227 1.132,0.1892 1.737,0.1892 3.182,0 5.761,-1.8227 5.761,-4.0707 C 157,1.8227 154.421,0 151.239,0 Z"
     fill="#c1c1c1"
     id="path44" />
</svg>
