<?xml version="1.0" encoding="UTF-8" standalone="no"?>
<svg
   width="514.25153"
   height="462.98688"
   viewBox="0 0 514.25153 462.98688"
   fill="none"
   version="1.1"
   id="svg106"
   sodipodi:docname="HeroImage.svg"
   inkscape:version="1.1.1 (3bf5ae0d25, 2021-09-20)"
   xmlns:inkscape="http://www.inkscape.org/namespaces/inkscape"
   xmlns:sodipodi="http://sodipodi.sourceforge.net/DTD/sodipodi-0.dtd"
   xmlns="http://www.w3.org/2000/svg"
   xmlns:svg="http://www.w3.org/2000/svg">
  <defs
     id="defs110" />
  <sodipodi:namedview
     id="namedview108"
     pagecolor="#ffffff"
     bordercolor="#666666"
     borderopacity="1.0"
     inkscape:pageshadow="2"
     inkscape:pageopacity="0.0"
     inkscape:pagecheckerboard="0"
     showgrid="false"
     inkscape:zoom="1.6409774"
     inkscape:cx="256.85911"
     inkscape:cy="231.2646"
     inkscape:window-width="2560"
     inkscape:window-height="1369"
     inkscape:window-x="1592"
     inkscape:window-y="-8"
     inkscape:window-maximized="1"
     inkscape:current-layer="svg106" />
  <path
     d="m 455.55318,214.42601 c 5.072,10.383 10.285,21.578 8.547,32.984 -2.071,13.633 -13.521,23.897 -25.236,31.356 -9.399,5.98 -19.634,11.135 -27.852,18.461 -1.692,1.468 -2.86,3.448 -3.325,5.639 -0.466,2.191 -0.204,4.475 0.745,6.504 11.097,23.118 19.356,47.494 24.596,72.597 0.189,0.917 0.169,1.864 -0.058,2.773 -0.227,0.908 -0.655,1.753 -1.253,2.473 -0.598,0.721 -1.351,1.297 -2.202,1.687 -0.851,0.389 -1.779,0.582 -2.715,0.565 l -39.9,-0.566 c -2.099,0.161 -4.201,-0.261 -6.075,-1.218 -1.923,-1.562 -3.278,-3.714 -3.854,-6.124 -8.985,-25.326 -17.97,-50.653 -26.955,-75.978 -1.466,-4.132 -2.954,-8.512 -2.113,-12.805 0.899,-4.611 4.304,-8.289 7.673,-11.591 6.742,-6.609 13.91,-12.77 21.457,-18.442 3.795,-2.85 7.803,-5.709 10.131,-9.823 4.327,-7.65 1.669,-17.155 -1.081,-25.49 16.007,-15.149 48.016,-18.428 69.47,-13.002 z"
     fill="#74a3d7"
     id="path2" />
  <path
     d="m 273.88418,288.74601 c 2.305,-4.993 8.017,-7.345 13.222,-9.251 17.744,-6.499 28.408,-12.999 46.152,-19.496 5.051,-1.85 10.332,-3.857 13.822,-7.916 3.49,-4.059 4.36,-10.855 0.388,-14.455 l -0.014,-0.244 c 4.336,-5.133 9.674,-9.327 15.687,-12.325 6.014,-2.998 12.576,-4.736 19.285,-5.109 2.287,-0.13 4.582,-0.011 6.843,0.355 -1.774,1.221 -3.458,2.571 -5.036,4.038 -0.124,0.122 -0.213,0.275 -0.257,0.443 -0.044,0.168 -0.043,0.345 0.005,0.512 1.341,3.789 2.358,7.685 3.04,11.646 0.743,3.976 0.378,8.079 -1.054,11.862 -1.806,3.641 -4.514,6.76 -7.866,9.06 -6.89,5.362 -13.751,10.654 -20.172,16.587 -5.644,5.219 -13.037,11.224 -12.975,19.642 0.174,3.41 0.918,6.767 2.202,9.931 -4.472,1.076 -8.996,2.041 -13.523,2.995 -1.015,0.206 -1.976,0.621 -2.821,1.219 -0.846,0.598 -1.558,1.364 -2.092,2.252 -0.533,0.887 -0.877,1.876 -1.008,2.903 -0.131,1.027 -0.047,2.07 0.246,3.063 5.19,17.31 14.912,36.322 16.137,53.924 0.374,5.364 2.646,11.911 -3.233,14.263 -1.486,0.549 -3.08,0.747 -4.656,0.578 l -19.291,0.048 c -5.717,-0.483 -11.872,-1.144 -16.137,-4.939 -3.064,-2.726 -4.671,-6.668 -6.139,-10.479 -8.207,-21.294 -14.582,-45.244 -20.413,-67.294 -1.201,-4.538 -2.32,-9.535 -0.342,-13.813 z"
     fill="#74a3d7"
     id="path4" />
  <path
     d="m 238.68818,116.12501 c 3.416,-3.155 8.349,-5.497 12.295,-7.957 14.528,-9.167005 29.757,-17.172005 45.546,-23.940005 32.743,-13.85 67.756,-21.0034 102.387,-28.361 18.524,-3.9403 57.562,17.182 77.399,60.769005 19.836,43.586 29.827,84.66 -4.501,97.068 -56.732,20.505 -113.447,29.822 -170.027,50.746 0,0 -57.775,-127.036 -61.591,-136.669 -1.474,-3.724 -4.779,-8.634 -1.508,-11.656 z"
     fill="#f78cb6"
     id="path6" />
  <path
     d="m 236.83318,114.27201 c 3.724,-3.378 8.254,-5.56 12.502,-8.168 4.652,-2.857 9.309,-5.691 14.058,-8.379005 9.457,-5.383 19.189,-10.267 29.157,-14.632 20.266,-8.536 41.231,-15.307 62.662,-20.2372 10.651,-2.5856 21.364,-4.9157 32.082,-7.2015 6.515,-1.3886 13.058,-3.4155 19.779,-2.6849 12.134,1.3176 23.577,7.4055 33.263,14.5556 13.323,9.951 24.453,22.541 32.695,36.985005 4.727,8.55 8.842,17.426 12.314,26.559 3.445,8.399 6.311,17.024 8.579,25.814 3.421,13.754 5.498,29.744 -1.307,42.84 -3.125,5.844 -7.926,10.62 -13.786,13.715 -4.188,2.067 -8.536,3.792 -13.002,5.159 -5.469,1.892 -10.966,3.706 -16.492,5.444 -21.62,6.817 -43.56,12.541 -65.464,18.351 -21.94,5.82 -43.863,11.757 -65.395,18.962 -5.363,1.792 -10.696,3.667 -16.001,5.625 -0.557,0.154 -1.15,0.119 -1.685,-0.099 -0.536,-0.218 -0.984,-0.608 -1.275,-1.107 -2.117,-4.653 -4.233,-9.308 -6.348,-13.965 -5.026,-11.067 -10.05,-22.136 -15.074,-33.207 -6.029,-13.308 -12.052,-26.619 -18.07,-39.936 -5.16,-11.43 -10.303,-22.866 -15.428,-34.31 -1.627,-3.643 -3.242,-7.291 -4.846,-10.944 -0.557,-1.274 -1.106,-2.553 -1.648,-3.835 -1.206,-2.426 -2.234,-4.937 -3.075,-7.512 -0.436,-1.339 -0.5,-2.772 -0.185,-4.144 0.315,-1.373 0.998,-2.634 1.974,-3.648 0.497,-0.466 1.155,-0.72 1.836,-0.709 0.681,0.011 1.33,0.286 1.812,0.768 0.481,0.481 0.757,1.13 0.768,1.811 0.011,0.681 -0.242,1.339 -0.707,1.836 -0.293,0.255 -0.504,0.59 -0.609,0.964 -0.105,0.373 -0.099,0.769 0.018,1.139 0.244,1.123 0.619,2.214 1.117,3.249 0.621,1.387 1.242,2.765 1.823,4.169 l 0.218,0.532 c 0.195,0.477 -0.252,-0.585 -0.126,-0.298 0.052,0.119 0.101,0.24 0.153,0.355 0.236,0.551 0.473,1.101 0.709,1.651 1.461,3.369 2.953,6.719 4.446,10.072 4.872,10.935 9.778,21.853 14.719,32.756 5.941,13.171 11.896,26.335 17.864,39.493 5.18,11.434 10.365,22.863 15.556,34.29 l 5.096,11.22 c 0.8,1.759 1.749,3.514 2.423,5.32 0.03,0.079 0.071,0.156 0.106,0.234 l -2.961,-1.204 c 21.131,-7.803 42.753,-14.155 64.482,-20.059 21.367,-5.806 42.842,-11.218 64.115,-17.378 10.836,-3.136 21.62,-6.462 32.297,-10.108 2.68,-0.915 5.353,-1.851 8.019,-2.807 1.721,-0.585 3.404,-1.278 5.038,-2.074 1.497,-0.741 2.941,-1.586 4.32,-2.528 0.332,-0.226 0.656,-0.46 0.979,-0.697 0.041,-0.03 0.396,-0.296 0.099,-0.068 0.139,-0.106 0.275,-0.216 0.41,-0.326 0.635,-0.513 1.249,-1.051 1.842,-1.614 2.136,-1.959 3.905,-4.284 5.225,-6.864 0.656,-1.185 1.209,-2.424 1.651,-3.705 0.515,-1.45 0.938,-2.93 1.268,-4.433 0.162,-0.729 0.303,-1.463 0.423,-2.201 0.178,-1.046 0.178,-1.11 0.281,-2.112 0.177,-1.672 0.255,-3.351 0.269,-5.032 0.015,-3.492 -0.222,-6.981 -0.709,-10.438 -2.493,-17.443 -9.232,-34.247 -16.439,-50.207 -6.827,-15.501 -16.789,-29.420005 -29.26,-40.882005 -5.091,-4.649 -10.665,-8.738 -16.628,-12.197 -4.911,-2.9665 -10.204,-5.2452 -15.733,-6.7727 -1.206,-0.3281 -2.426,-0.6136 -3.654,-0.8441 -0.553,-0.1047 -1.106,-0.1774 -1.659,-0.2767 -0.481,-0.0815 0.046,0 0.122,0.0142 l -0.475,-0.0585 c -0.312,-0.0372 -0.625,-0.0692 -0.937,-0.0975 -1.071,-0.0982 -2.147,-0.1396 -3.224,-0.1242 -0.478,0.0089 -0.959,0.0302 -1.436,0.0656 -0.246,0.0178 -0.491,0.0426 -0.738,0.0657 -0.847,0.0798 0.355,-0.0781 -0.337,0.0407 -4.61,0.7785 -9.177,1.9135 -13.745,2.8888 -5.25,1.1219 -10.495,2.2657 -15.734,3.4314 -21.08,4.4393 -41.836,10.2983 -62.126,17.5383 -19.921,7.637 -39.047,17.209 -57.101,28.577005 -3.846,2.362 -8.072,4.293 -11.442,7.347 -2.495,2.256 -6.215,-1.442 -3.708,-3.713 z"
     fill="#f78cb6"
     id="path8" />
  <path
     d="m 246.15818,221.49501 c -18.415,-40.45 -26.849,-96.069 -9.606,-103.918 17.242,-7.849 55.356,14.627 73.77,55.076 18.414,40.45 25.325,74.628 -7.093,91.405 -16.811,8.705 -38.65,-2.114 -57.071,-42.563 z"
     fill="#ffffff"
     id="path10" />
  <path
     d="m 225.38818,134.56901 c 0.385,-4.85 1.852,-9.551 4.295,-13.759 1.099,-1.704 2.534,-3.167 4.217,-4.298 1.683,-1.132 3.579,-1.908 5.572,-2.283 10.012,-2.048 20.619,2.306 29.117,7.25 12.225,7.375 22.829,17.153 31.169,28.742 4.84,6.534 8.99,13.551 12.385,20.939 3.625,7.78 6.852,15.738 9.67,23.845 4.503,13.174 7.98,27.633 5.485,41.581 -1.022,5.912 -3.406,11.505 -6.964,16.336 -4.121,5.348 -9.37,9.723 -15.373,12.816 -4.053,2.233 -8.604,3.41 -13.232,3.42 -4.883,-0.13 -9.664,-1.422 -13.948,-3.77 -12.129,-6.403 -20.748,-18.575 -27.309,-30.242 -2.287,-4.068 -4.369,-8.25 -6.308,-12.493 -6.802,-15.003 -11.975,-30.693 -15.428,-46.8 -1.631,-7.441 -2.789,-14.978 -3.465,-22.566 -0.619,-6.226 -0.579,-12.5 0.117,-18.718 z m 5.914,30.175 c 2.577,15.505 6.77,30.697 12.511,45.329 1.346,3.461 2.785,6.883 4.318,10.264 6.145,13.456 13.845,27.334 25.508,36.814 1.985,1.601 4.115,3.014 6.361,4.222 0.484,0.258 0.975,0.506 1.472,0.74 0.259,0.122 0.521,0.241 0.784,0.355 l 0.113,0.049 c 0.169,0.071 0.339,0.14 0.509,0.208 1.043,0.412 2.109,0.764 3.192,1.055 0.51,0.135 1.021,0.253 1.536,0.354 0.223,0.047 0.445,0.089 0.668,0.128 0.098,0.018 0.465,0.073 0.626,0.099 1.982,0.262 3.989,0.268 5.973,0.018 0.12,-0.019 0.301,-0.044 0.379,-0.058 0.242,-0.039 0.483,-0.084 0.724,-0.132 0.511,-0.102 1.018,-0.221 1.521,-0.354 0.983,-0.269 1.95,-0.593 2.896,-0.972 0.033,-0.015 0.067,-0.028 0.101,-0.037 0.034,-0.018 0.085,-0.043 0.211,-0.1 0.229,-0.104 0.458,-0.209 0.683,-0.317 0.663,-0.321 1.312,-0.667 1.951,-1.021 2.804,-1.51 5.441,-3.311 7.868,-5.374 4.237,-3.605 7.539,-8.182 9.624,-13.34 4.517,-11.651 2.736,-24.708 -0.445,-36.634 -2.076,-7.537 -4.637,-14.932 -7.668,-22.138 -2.99,-7.576 -6.546,-14.915 -10.64,-21.956 -7.21,-12.196 -16.742,-22.86 -28.056,-31.388 -4.691,-3.527 -9.773,-6.502 -15.144,-8.867 -0.243,-0.104 -0.903,-0.372 -1.442,-0.581 -0.649,-0.251 -1.303,-0.487 -1.961,-0.71 -1.119,-0.383 -2.252,-0.724 -3.4,-1.025 -1.147,-0.296 -2.305,-0.546 -3.474,-0.735 -0.216,-0.036 -0.432,-0.068 -0.649,-0.098 -0.062,0 -0.422,-0.051 -0.514,-0.06 -0.511,-0.056 -1.022,-0.098 -1.534,-0.126 -1.036,-0.061 -2.075,-0.057 -3.11,0.012 -0.237,0.016 -0.473,0.035 -0.71,0.059 -0.076,0 -0.275,0.032 -0.395,0.048 -0.424,0.063 -0.848,0.134 -1.266,0.227 -0.872,0.199 -1.73,0.457 -2.566,0.773 -0.059,0.021 -0.057,0.018 -0.066,0.018 l -0.113,0.06 c -0.178,0.087 -0.355,0.168 -0.532,0.262 -0.375,0.199 -0.728,0.428 -1.08,0.662 -0.055,0.037 -0.11,0.078 -0.164,0.119 -0.125,0.106 -0.253,0.211 -0.377,0.32 -0.347,0.311 -0.675,0.641 -0.983,0.99 -0.142,0.158 -0.275,0.323 -0.411,0.486 -0.034,0.039 -0.03,0.032 -0.039,0.042 l -0.092,0.139 c -0.27,0.393 -0.532,0.787 -0.779,1.197 -0.246,0.409 -0.459,0.816 -0.667,1.241 -0.094,0.19 -0.177,0.38 -0.271,0.573 -0.051,0.112 -0.101,0.223 -0.151,0.335 l -0.021,0.048 -0.037,0.096 c -0.398,1.015 -0.742,2.05 -1.032,3.101 -1.282,5.108 -1.826,10.372 -1.614,15.634 0.128,6.686 0.757,13.354 1.881,19.946 z"
     fill="#f78cb6"
     id="path12" />
  <path
     d="m 4.342482,418.55301 c 3.8003,-3.847 9.1185,-6.03 14.1867,-7.638 8.918,-2.608 18.0754,-4.313 27.3342,-5.091 14.7878,-1.596 29.6909,-2.089 44.555,-2.267 21.886798,-0.262 43.786798,0.266 65.653798,1.157 19.507,0.796 39.038,1.927 58.465,3.997 12.85,1.209 25.612,3.212 38.214,5.999 7.643,1.536 15.034,4.134 21.957,7.719 4.087,2.001 7.429,5.255 9.537,9.287 1.155,3.019 1.502,6.287 1.008,9.48 -0.151,2.871 -1.087,5.645 -2.708,8.019 -2.582,3.137 -6.002,5.474 -9.862,6.739 -6.505,2.275 -13.26,3.758 -20.12,4.417 -11.748,1.384 -23.558,2.166 -35.385,2.345 -18.539,0.48 -37.095,0.26 -55.631,-0.178 -22.234,-0.532 -44.472,-1.321 -66.666998,-2.769 -15.5168,-1.013 -31.0335,-2.32 -46.4384,-4.544 -9.4509,-1.183 -18.7855,-3.159 -27.9052,-5.907 -5.4057,-1.488 -10.4618,-4.035 -14.8747,-7.494 -2.6933,-2.24 -4.55768,-5.319 -5.29520003,-8.744 -0.28805,-1.501 -0.40704,-3.029 -0.35467,-4.556 0.12207,-3.754 1.67077003,-7.32 4.33047003,-9.971 z m -0.3671,12.105 c 0.016,0.234 0.11,0.929 0.0905,0.847 0.039,0.252 0.0762,0.504 0.1294,0.754 0.1557,0.685 0.3553,1.36 0.5976,2.02 0.0178,0.048 0.0142,0.04 0.0249,0.072 0.0106,0.032 0,0 0,0 0.0797,0.16 0.1489,0.327 0.2287,0.488 0.1702,0.341 0.3547,0.673 0.5533,0.997 0.2075,0.338 0.4416,0.658 0.6668,0.984 0.0284,0.042 0.0177,0.032 0.0319,0.053 0.0142,0.021 0.023,0.021 0.0745,0.082 0.1365,0.154 0.2642,0.313 0.4008,0.468 0.6161,0.682 1.2817,1.318 1.9914,1.903 l 0.2731,0.219 c 0.1933,0.146 0.3866,0.291 0.5834,0.431 0.4493,0.32 0.908,0.624 1.3761,0.914 1.0379,0.64 2.108,1.227 3.2062,1.757 0.6242,0.303 1.259,0.587 1.8957,0.867 l 0.133,0.059 0.4469,0.177 c 0.3671,0.147 0.7341,0.294 1.103,0.436 1.5517,0.596 3.1264,1.132 4.7153,1.625 3.9846,1.241 8.0474,2.209 12.1314,3.053 12.0038,2.348 24.1265,4.04 36.3143,5.068 18.8151,1.797 37.700598,2.822 56.583598,3.584 21.601,0.873 43.225,1.453 64.845,1.509 14.689,0.039 29.399,-0.14 44.061,-1.095 8.917,-0.413 17.789,-1.507 26.539,-3.274 2.816,-0.589 5.586,-1.381 8.287,-2.369 0.273,-0.103 0.545,-0.211 0.816,-0.318 l 0.236,-0.09 0.163,-0.075 c 0.493,-0.221 0.986,-0.443 1.47,-0.686 0.846,-0.42 1.664,-0.894 2.449,-1.418 0.177,-0.118 0.355,-0.24 0.52,-0.355 0.065,-0.046 0.127,-0.096 0.193,-0.144 0.298,-0.25 0.599,-0.495 0.887,-0.761 0.287,-0.266 0.517,-0.501 0.759,-0.769 0.117,-0.128 0.226,-0.261 0.34,-0.392 l 0.064,-0.08 c 0.378,-0.526 0.72,-1.076 1.025,-1.647 0.069,-0.139 0.129,-0.282 0.2,-0.419 v -0.016 c 0.099,-0.291 0.218,-0.574 0.311,-0.869 0.181,-0.581 0.327,-1.173 0.434,-1.773 0.053,-0.289 0.177,-1.318 0.082,-0.456 0.031,-0.31 0.074,-0.62 0.102,-0.933 0.116,-1.28 0.188,-2.583 0.178,-3.869 0,-0.381 -0.037,-0.759 -0.061,-1.14 v -0.078 -0.037 c -0.04,-0.199 -0.069,-0.401 -0.111,-0.6 -0.082,-0.39 -0.186,-0.775 -0.311,-1.154 -0.06,-0.188 -0.133,-0.371 -0.196,-0.557 -0.016,-0.044 -0.022,-0.064 -0.031,-0.092 l -0.031,-0.061 c -0.392,-0.778 -0.834,-1.531 -1.323,-2.252 -0.052,-0.072 -0.054,-0.08 -0.075,-0.111 -0.021,-0.018 -0.04,-0.039 -0.057,-0.061 -0.161,-0.19 -0.315,-0.383 -0.48,-0.567 -0.337,-0.38 -0.692,-0.743 -1.064,-1.091 -0.396,-0.376 -0.807,-0.73 -1.227,-1.076 l -0.284,-0.225 -0.018,-0.013 c -0.248,-0.177 -0.496,-0.367 -0.748,-0.544 -1.069,-0.742 -2.179,-1.421 -3.325,-2.036 -1.334,-0.72 -2.706,-1.366 -4.098,-1.963 l -0.066,-0.03 -0.167,-0.068 -0.576,-0.236 c -0.42,-0.177 -0.844,-0.333 -1.268,-0.494 -0.871,-0.332 -1.747,-0.648 -2.628,-0.947 -9.559,-3.059 -19.368,-5.278 -29.313,-6.631 -15.728,-2.436 -31.617,-3.82 -47.488,-4.885 -22.02,-1.479 -44.092,-2.279 -66.156,-2.66 -18.037,-0.312 -36.101798,-0.309 -54.122398,0.599 -11.6565,0.426 -23.2717,1.629 -34.768,3.602 -3.8818,0.694 -7.7194,1.616 -11.493,2.761 -1.5321,0.479 -3.0466,1.011 -4.5362,1.61 -0.1454,0.057 -0.289,0.117 -0.4327,0.177 l -0.1347,0.059 c -0.3299,0.147 -0.6597,0.291 -0.9878,0.443 -0.597,0.279 -1.1881,0.575 -1.7733,0.887 -1.0256,0.543 -2.0149,1.153 -2.9615,1.825 -0.1117,0.079 -0.4557,0.344 -0.4912,0.365 -0.1454,0.117 -0.2908,0.232 -0.4327,0.355 -0.3629,0.307 -0.7134,0.628 -1.0516,0.963 -0.3262,0.326 -0.633,0.666 -0.9327,1.016 -0.0603,0.069 -0.1171,0.141 -0.1774,0.212 -0.1099,0.155 -0.2234,0.305 -0.3298,0.462 -0.2341,0.342 -0.4504,0.696 -0.6491,1.064 -0.0957,0.177 -0.3422,0.75 -0.4114,0.886 -0.2382,0.612 -0.4309,1.24 -0.5763,1.88 -0.039,0.177 -0.0656,0.365 -0.1028,0.548 l -0.0143,0.064 v 0.033 c -0.0248,0.373 -0.0691,0.743 -0.0815,1.118 -0.0054,0.693 0,1.404 0.0496,2.112 z"
     fill="#f78cb6"
     id="path14" />
  <path
     d="m 177.40218,285.55101 c -7.503,0 -13.586,-6.083 -13.586,-13.586 0,-7.503 6.083,-13.585 13.586,-13.585 7.503,0 13.585,6.082 13.585,13.585 0,7.503 -6.082,13.586 -13.585,13.586 z"
     fill="#74a3d7"
     id="path16" />
  <path
     d="m 142.71518,231.00101 c -5.383,0 -9.748,-4.364 -9.748,-9.748 0,-5.383 4.365,-9.748 9.748,-9.748 5.384,0 9.749,4.365 9.749,9.748 0,5.384 -4.365,9.748 -9.749,9.748 z"
     fill="#74a3d7"
     id="path18" />
  <path
     d="m 122.48218,412.58901 c -9.021,0 -16.334,-7.313 -16.334,-16.334 0,-9.021 7.313,-16.334 16.334,-16.334 9.021,0 16.334,7.313 16.334,16.334 0,9.021 -7.313,16.334 -16.334,16.334 z"
     fill="#74a3d7"
     id="path20" />
  <path
     d="m 234.10818,152.91401 c -6.096,0 -11.037,-4.941 -11.037,-11.037 0,-6.095 4.941,-11.037 11.037,-11.037 6.096,0 11.037,4.942 11.037,11.037 0,6.096 -4.941,11.037 -11.037,11.037 z"
     fill="#74a3d7"
     id="path22" />
  <path
     d="m 257.96818,186.17501 41.482,15.455 -7.962,-44.805 z"
     fill="#f36e72"
     id="path24" />
  <path
     d="m 105.91218,287.21101 26.268,-22.098 -33.281998,-11.732 z"
     fill="#f36e72"
     id="path26" />
  <path
     d="m 175.05918,431.19501 42.605,-35.839 -53.979,-19.03 z"
     fill="#f36e72"
     id="path28" />
  <path
     d="m 119.66718,344.85401 27.356,-9.335 9.335,27.356 -27.357,9.335 z"
     fill="#fee253"
     id="path30" />
  <path
     d="m 205.36518,295.44901 24.106,6.962 -6.963,24.106 -24.105,-6.963 z"
     fill="#fee253"
     id="path32" />
  <path
     d="m 276.66718,234.88001 -28.998,32.267 -32.267,-28.999 28.998,-32.267 z"
     fill="#fee253"
     id="path34" />
  <path
     d="m 192.60618,223.20901 c 0.013,-0.339 0.157,-0.66 0.401,-0.896 0.245,-0.236 0.571,-0.368 0.911,-0.368 0.34,0 0.666,0.132 0.911,0.368 0.244,0.236 0.388,0.557 0.4,0.896 l -0.056,4.372 c 1.802,-3.123 4.211,-5.855 7.084,-8.034 2.872,-2.179 6.152,-3.762 9.645,-4.656 1.639,-0.403 2.337,2.128 0.697,2.528 -3.13,0.793 -6.073,2.198 -8.658,4.133 -2.586,1.936 -4.762,4.364 -6.405,7.144 0.662,-0.373 1.355,-0.689 2.07,-0.945 1.596,-0.568 2.277,1.965 0.697,2.529 -2.309,0.833 -4.23,2.486 -5.398,4.644 -0.15,0.242 -0.374,0.429 -0.639,0.533 -0.264,0.104 -0.556,0.121 -0.83,0.046 -0.275,-0.074 -0.518,-0.236 -0.694,-0.459 -0.175,-0.224 -0.274,-0.499 -0.281,-0.783 z"
     fill="#000000"
     id="path36" />
  <path
     d="m 126.37118,305.35601 0.665,3.014 c 1.562,-6.45 4.095,-12.625 7.512,-18.315 0.18,-0.29 0.467,-0.498 0.799,-0.58 0.332,-0.082 0.682,-0.031 0.977,0.141 0.295,0.173 0.511,0.454 0.602,0.783 0.092,0.329 0.051,0.681 -0.114,0.981 -3.123,5.215 -5.478,10.853 -6.992,16.74 1.465,-0.961 3.063,-1.705 4.742,-2.208 0.331,-0.079 0.68,-0.027 0.973,0.146 0.293,0.174 0.507,0.454 0.598,0.782 0.09,0.328 0.05,0.678 -0.113,0.977 -0.164,0.299 -0.436,0.523 -0.761,0.624 -2.411,0.727 -4.602,2.044 -6.374,3.832 -0.044,0.234 -0.115,0.463 -0.157,0.699 -0.022,0.16 -0.078,0.314 -0.165,0.45 -0.087,0.137 -0.204,0.252 -0.341,0.338 -0.137,0.085 -0.291,0.14 -0.452,0.159 -0.161,0.02 -0.324,0.003 -0.477,-0.048 -0.172,0.094 -0.362,0.149 -0.557,0.16 -0.195,0.011 -0.39,-0.021 -0.572,-0.094 -0.181,-0.073 -0.344,-0.186 -0.476,-0.33 -0.132,-0.144 -0.231,-0.315 -0.289,-0.502 -0.52,-2.349 -1.039,-4.699 -1.557,-7.049 -0.362,-1.651 2.165,-2.35 2.529,-0.7 z"
     fill="#000000"
     id="path38" />
  <path
     d="m 153.56818,186.95201 c -0.312,-1.649 2.213,-2.355 2.529,-0.697 0.197,1.076 0.329,2.163 0.394,3.256 2.6,-5.798 6.617,-10.847 11.682,-14.684 1.345,-1.019 2.66,1.258 1.325,2.265 -4.735,3.624 -8.453,8.411 -10.792,13.896 1.235,-0.47 2.553,-0.685 3.874,-0.63 1.681,0.071 1.69,2.692 0,2.623 -1.944,-0.093 -3.847,0.588 -5.289,1.896 -0.052,0.177 -0.118,0.338 -0.165,0.511 -0.059,0.232 -0.187,0.442 -0.367,0.6 -0.18,0.158 -0.404,0.258 -0.642,0.286 -0.034,0.052 -0.084,0.087 -0.116,0.14 -0.166,0.265 -0.421,0.461 -0.719,0.555 -0.298,0.094 -0.62,0.078 -0.908,-0.043 -0.288,-0.121 -0.523,-0.341 -0.664,-0.62 -0.14,-0.279 -0.178,-0.599 -0.104,-0.903 0.507,-2.795 0.494,-5.66 -0.038,-8.451 z"
     fill="#000000"
     id="path40" />
  <path
     d="m 245.78218,178.42001 c 0.386,-2.266 0.773,-4.532 1.161,-6.797 0.277,-1.615 2.66,-0.986 2.525,0.571 2.546,-3.579 5.409,-6.922 8.555,-9.987 1.211,-1.176 3.066,0.675 1.853,1.853 -3.591,3.497 -6.801,7.366 -9.576,11.541 1.54,-0.655 3.138,-1.162 4.774,-1.515 1.646,-0.354 2.348,2.174 0.697,2.527 -2.864,0.606 -5.596,1.72 -8.067,3.288 -1.045,0.665 -2.1,-0.431 -1.922,-1.481 z"
     fill="#000000"
     id="path42" />
  <path
     d="m 241.69118,277.94201 c 0.076,1.773 0.152,3.542 0.227,5.307 2.555,-4.897 6.055,-9.239 10.296,-12.778 1.289,-1.064 3.153,0.775 1.853,1.854 -4.024,3.338 -7.354,7.431 -9.803,12.048 0.999,-0.591 2.043,-1.104 3.123,-1.532 1.574,-0.611 2.255,1.923 0.696,2.529 -2.376,0.934 -4.529,2.359 -6.318,4.182 -0.186,0.176 -0.419,0.294 -0.671,0.341 -0.251,0.046 -0.511,0.019 -0.748,-0.079 -0.237,-0.098 -0.44,-0.262 -0.585,-0.473 -0.145,-0.211 -0.227,-0.459 -0.234,-0.715 l -0.457,-10.684 c -0.073,-1.689 2.548,-1.685 2.621,0 z"
     fill="#000000"
     id="path44" />
  <path
     d="m 181.49318,360.08801 0.965,2.56 c 0.5,-6.263 1.894,-12.422 4.141,-18.29 0.601,-1.557 3.137,-0.886 2.528,0.697 -2.229,5.8 -3.603,11.893 -4.078,18.088 l 2.158,-3.039 c 0.97,-1.366 3.245,-0.057 2.264,1.323 l -5.224,7.35 c -0.136,0.215 -0.33,0.386 -0.56,0.493 -0.23,0.108 -0.486,0.148 -0.738,0.115 -0.252,-0.033 -0.489,-0.137 -0.683,-0.301 -0.195,-0.163 -0.339,-0.379 -0.415,-0.621 -0.964,-2.561 -1.928,-5.122 -2.892,-7.684 -0.589,-1.578 1.945,-2.257 2.534,-0.691 z"
     fill="#000000"
     id="path46" />
  <path
     d="m 90.001582,380.60001 0.3955,0.904 c 0.1629,-5.522 0.7971,-11.019 1.8961,-16.433 0.335,-1.653 2.863,-0.953 2.527,0.697 -1.097,5.448 -1.703,10.984 -1.811,16.541 l 2.085,-3.699 c 0.183,-0.286 0.469,-0.491 0.799,-0.571 0.329,-0.08 0.677,-0.029 0.97,0.143 0.294,0.171 0.509,0.449 0.601,0.775 0.093,0.327 0.055,0.677 -0.105,0.976 l -4.637,8.225 c -0.118,0.195 -0.283,0.357 -0.482,0.469 -0.198,0.112 -0.422,0.171 -0.65,0.171 -0.228,0 -0.451,-0.059 -0.6498,-0.171 -0.1982,-0.112 -0.3641,-0.274 -0.4813,-0.469 -0.9079,-2.079 -1.8147,-4.157 -2.7203,-6.235 -0.6703,-1.531 1.5889,-2.861 2.2628,-1.323 z"
     fill="#000000"
     id="path48" />
  <path
     d="m 115.53918,329.71401 c -1.346,0 -2.438,-1.092 -2.438,-2.438 0,-1.347 1.092,-2.439 2.438,-2.439 1.347,0 2.439,1.092 2.439,2.439 0,1.346 -1.092,2.438 -2.439,2.438 z"
     fill="#000000"
     id="path50" />
  <path
     d="m 192.76418,301.66701 c -1.346,0 -2.438,-1.092 -2.438,-2.438 0,-1.347 1.092,-2.439 2.438,-2.439 1.347,0 2.439,1.092 2.439,2.439 0,1.346 -1.092,2.438 -2.439,2.438 z"
     fill="#000000"
     id="path52" />
  <path
     d="m 207.46218,260.81801 c -1.347,0 -2.439,-1.091 -2.439,-2.438 0,-1.347 1.092,-2.438 2.439,-2.438 1.346,0 2.438,1.091 2.438,2.438 0,1.347 -1.092,2.438 -2.438,2.438 z"
     fill="#000000"
     id="path54" />
  <path
     d="m 195.20318,378.26601 c -1.347,0 -2.439,-1.092 -2.439,-2.438 0,-1.347 1.092,-2.439 2.439,-2.439 1.346,0 2.438,1.092 2.438,2.439 0,1.346 -1.092,2.438 -2.438,2.438 z"
     fill="#000000"
     id="path56" />
  <path
     d="m 168.84218,327.27601 c -1.347,0 -2.438,-1.092 -2.438,-2.439 0,-1.346 1.091,-2.438 2.438,-2.438 1.347,0 2.438,1.092 2.438,2.438 0,1.347 -1.091,2.439 -2.438,2.439 z"
     fill="#000000"
     id="path58" />
  <path
     d="m 111.78918,369.39901 c -1.347,0 -2.439,-1.091 -2.439,-2.438 0,-1.347 1.092,-2.438 2.439,-2.438 1.346,0 2.438,1.091 2.438,2.438 0,1.347 -1.092,2.438 -2.438,2.438 z"
     fill="#000000"
     id="path60" />
  <path
     d="m 148.06918,255.81901 c -1.346,0 -2.438,-1.092 -2.438,-2.438 0,-1.347 1.092,-2.438 2.438,-2.438 1.347,0 2.439,1.091 2.439,2.438 0,1.346 -1.092,2.438 -2.439,2.438 z"
     fill="#000000"
     id="path62" />
  <path
     d="m 291.02718,231.17301 c -1.347,0 -2.439,-1.091 -2.439,-2.438 0,-1.347 1.092,-2.438 2.439,-2.438 1.346,0 2.438,1.091 2.438,2.438 0,1.347 -1.092,2.438 -2.438,2.438 z"
     fill="#000000"
     id="path64" />
  <path
     d="m 185.68318,175.31501 c -1.346,0 -2.438,-1.092 -2.438,-2.438 0,-1.347 1.092,-2.439 2.438,-2.439 1.347,0 2.439,1.092 2.439,2.439 0,1.346 -1.092,2.438 -2.439,2.438 z"
     fill="#000000"
     id="path66" />
  <path
     d="m 263.41018,144.31601 c -1.346,0 -2.438,-1.092 -2.438,-2.439 0,-1.346 1.092,-2.438 2.438,-2.438 1.347,0 2.439,1.092 2.439,2.438 0,1.347 -1.092,2.439 -2.439,2.439 z"
     fill="#000000"
     id="path68" />
  <path
     d="m 283.17918,58.606905 c -1.346,0 -2.438,-1.0917 -2.438,-2.4383 0,-1.3467 1.092,-2.4384 2.438,-2.4384 1.347,0 2.439,1.0917 2.439,2.4384 0,1.3466 -1.092,2.4383 -2.439,2.4383 z"
     fill="#000000"
     id="path70" />
  <path
     d="m 261.70618,62.726305 c -1.346,0 -2.438,-1.0917 -2.438,-2.4384 0,-1.3466 1.092,-2.4383 2.438,-2.4383 1.347,0 2.439,1.0917 2.439,2.4383 0,1.3467 -1.092,2.4384 -2.439,2.4384 z"
     fill="#000000"
     id="path72" />
  <path
     d="m 269.88718,66.880005 c 0.567,0.722 1.299,1.298 2.135,1.68 0.835,0.382 1.749,0.56 2.667,0.518 0.917,-0.042 1.812,-0.303 2.608,-0.76 0.797,-0.458 1.473,-1.098 1.972,-1.869 0.919,-1.4084 3.192,-0.096 2.265,1.322 -0.739,1.155 -1.748,2.112 -2.94,2.789 -1.193,0.677 -2.532,1.053 -3.902,1.096 -1.37,0.042 -2.73,-0.25 -3.962,-0.851 -1.232,-0.602 -2.299,-1.494 -3.108,-2.601 -1.023,-1.342 1.254,-2.649 2.265,-1.324 z"
     fill="#000000"
     id="path74" />
  <path
     d="m 247.79418,30.095205 c 2.901,-7.3927 7.521,-13.9882 13.478,-19.2407 5.799,-4.9786997 12.775,-8.3916997 20.265,-9.91469975 7.42,-1.816 15.241,-0.9836 22.112,2.35320005 1.682,0.9125 3.256,2.0112 4.692,3.2754 5.852,5.2560997 8.977,13.0428997 10.981,20.4801997 0.532,1.9507 0.977,3.9368 1.363,5.9283 0.416,1.6535 0.513,3.3712 0.286,5.0611 -0.062,0.6927 -0.32,1.3534 -0.745,1.9041 -0.425,0.5508 -0.998,0.9687 -1.653,1.2045 -0.372,0.0942 -0.761,0.1051 -1.138,0.0319 1.218,2.9101 2.428,5.8254 3.577,8.7638 0.695,1.7734 1.378,3.5574 2.048,5.352 0.062,0.1636 0.073,0.3423 0.032,0.5125 1.303,4.2086 1.594,8.6653 0.851,13.0082 -0.744,4.342 -2.501,8.448 -5.13,11.983 -0.754,0.997 -2.462,0.018 -1.699,-0.993 2.504,-3.325 4.177,-7.2 4.882,-11.302 0.705,-4.1019 0.42,-8.313 -0.83,-12.283 -0.049,-0.1499 -0.059,-0.3099 -0.028,-0.4647 -2.144,-5.7101 -4.444,-11.3599 -6.849,-16.9654 -1.224,-1.463 -2.429,-2.942 -3.644,-4.4121 -0.636,-1.0061 -1.511,-1.8398 -2.546,-2.4275 -1.035,-0.5876 -2.2,-0.9111 -3.39,-0.9418 0.932,0.2173 1.799,0.6519 2.531,1.2683 0.732,0.6164 1.307,1.3971 1.679,2.2783 0.58,1.1881 0.808,2.5168 0.659,3.8302 -0.15,1.3134 -0.671,2.5568 -1.503,3.5841 -0.814,0.9831 -1.926,1.6737 -3.168,1.9672 -1.242,0.2935 -2.546,0.1738 -3.714,-0.341 -1.153,-0.516 -0.154,-2.2114 0.993,-1.6989 0.791,0.2954 1.657,0.3266 2.468,0.0891 0.81,-0.2374 1.522,-0.7309 2.029,-1.4066 0.561,-0.7564 0.896,-1.6555 0.969,-2.594 0.072,-0.9385 -0.121,-1.8785 -0.559,-2.7119 -0.299,-0.7813 -0.854,-1.4377 -1.576,-1.8612 -0.721,-0.4235 -1.565,-0.5889 -2.393,-0.4689 -0.881,0.2344 -1.675,0.7216 -2.283,1.4016 -0.608,0.6801 -1.003,1.5231 -1.138,2.4252 -0.22,1.1456 -1.83,0.7768 -1.894,-0.2589 -0.294,0.4008 -0.595,0.7945 -0.911,1.1598 -2.463,2.8815 -5.527,5.1888 -8.977,6.7599 -3.394,1.5215 -7.19,1.8993 -10.817,1.0764 -1.77,-0.411 -3.441,-1.1699 -4.916,-2.2326 -0.599,-0.5951 -1.265,-1.1193 -1.984,-1.5623 -1.114,-0.4469 -1.671,0.4912 -2.192,1.291 -0.933,1.4187 -2.092,3.2629 -3.933,3.4917 -0.754,0.0756 -1.512,-0.0936 -2.161,-0.4827 -0.65,-0.3891 -1.157,-0.9772 -1.446,-1.6772 -0.109,-0.2905 -0.307,-0.5389 -0.566,-0.7096 -0.259,-0.1708 -0.566,-0.2551 -0.876,-0.2409 -0.925,0.0638 -1.241,0.9079 -1.679,1.58 -0.479,0.7282 -1.054,1.3891 -1.708,1.9649 0.029,2.7076 0.334,5.4053 0.912,8.0509 2.456,11.2646 10.574,22.3636 22.97,23.0216 3.055,0.165 6.104,-0.417 8.885,-1.693 2.78,-1.277 5.209,-3.212 7.075,-5.636 1.958,-2.491 3.386,-5.3561 4.197,-8.4191 0.81,-3.0629 0.986,-6.2593 0.516,-9.3926 -0.204,-1.2414 1.69,-1.7734 1.896,-0.5232 0.593,3.8739 0.282,7.8324 -0.906,11.5667 -1.189,3.7342 -3.225,7.1432 -5.948,9.9612 2.834,2 4.782,5.02 5.435,8.426 0.177,1.241 -1.715,1.773 -1.896,0.532 -0.287,-1.536 -0.878,-3 -1.738,-4.305 -0.859,-1.305 -1.97,-2.425 -3.268,-3.296 -2.45,2.092 -5.37,3.559 -8.512,4.276 -2.981,0.612 -6.054,0.629 -9.042,0.051 -2.988,-0.578 -5.832,-1.741 -8.37,-3.421 -5.237,-3.609 -9.221,-8.758 -11.401,-14.7327 -1.648,-4.2296 -2.564,-8.7094 -2.706,-13.2468 -0.217,0.1106 -0.44,0.2095 -0.668,0.2962 -3.797,1.2413 -6.83,-1.9826 -7.589,-5.4513 -0.945,-4.3003 0.733,-8.9518 2.309,-12.8992 z"
     fill="#000000"
     id="path76" />
  <path
     d="m 275.21918,393.62501 c 3.442,-1.048 7.011,-1.618 10.608,-1.694 3.965,-0.228 7.934,-0.409 11.899,-0.612 l 24.215,-1.241 c 7.106,-0.363 14.985,-1.305 21.383,2.536 2.884,1.617 5.015,4.305 5.93,7.482 0.433,1.56 0.471,3.204 0.11,4.783 -0.361,1.579 -1.109,3.043 -2.178,4.261 -0.093,0.111 -0.214,0.196 -0.35,0.246 -0.136,0.05 -0.283,0.064 -0.427,0.041 -0.064,0.023 -0.132,0.038 -0.2,0.044 -20.886,0.355 -41.77,0.109 -62.652,-0.737 -5.887,-0.237 -11.772,-0.525 -17.653,-0.866 -0.259,-0.008 -0.504,-0.114 -0.687,-0.297 -0.182,-0.183 -0.288,-0.429 -0.296,-0.687 -0.601,-6.364 4.735,-11.33 10.298,-13.259 z"
     fill="#000000"
     id="path78" />
  <path
     d="m 399.25718,393.22901 c 7.448,-1.012 15.227,-1.755 22.627,0 3.242,0.804 6.285,2.266 8.937,4.296 2.652,2.03 4.858,4.584 6.481,7.504 0.438,0.84 0.652,1.78 0.622,2.727 -0.031,0.947 -0.306,1.87 -0.797,2.68 -0.492,0.81 -1.184,1.48 -2.01,1.944 -0.827,0.465 -1.758,0.708 -2.706,0.707 -1.789,0.062 -3.586,0.05 -5.375,0.075 l -21.117,0.296 -7.311,0.103 c -2.86,0.193 -5.733,-0.065 -8.512,-0.765 -1.149,-0.307 -2.221,-0.848 -3.151,-1.588 -0.93,-0.74 -1.697,-1.664 -2.255,-2.714 -0.565,-1.215 -0.836,-2.547 -0.791,-3.886 0.045,-1.34 0.404,-2.651 1.049,-3.826 2.725,-5.228 8.948,-6.824 14.309,-7.553 z"
     fill="#000000"
     id="path80" />
  <path
     d="m 221.46618,169.86901 c 0.775,-0.845 1.757,-1.474 2.849,-1.825 1.092,-0.351 2.256,-0.411 3.379,-0.175 4.964,1.218 9.318,4.194 12.257,8.375 0.414,0.453 0.713,0.998 0.873,1.59 0.16,0.592 0.175,1.214 0.046,1.813 -0.233,0.45 -0.585,0.828 -1.018,1.092 -0.432,0.264 -0.928,0.405 -1.435,0.407 -3.667,0.509 -7.401,0.213 -10.941,-0.869 2.769,0.821 5.297,2.304 7.365,4.322 2.068,2.017 3.613,4.508 4.502,7.256 0.339,0.685 0.506,1.441 0.488,2.205 -0.018,0.763 -0.222,1.511 -0.593,2.179 -0.35,0.332 -0.772,0.579 -1.234,0.718 -0.462,0.14 -0.95,0.17 -1.426,0.087 -3.254,-0.142 -6.468,-0.778 -9.532,-1.887 3.624,1.383 6.812,3.71 9.234,6.739 0.928,0.971 1.489,2.235 1.587,3.575 -0.017,0.663 -0.204,1.311 -0.542,1.883 -0.338,0.571 -0.816,1.046 -1.389,1.381 -1.062,0.54 -2.26,0.755 -3.444,0.618 -8.059,-0.463 -15.511,-7.803 -17.456,-17.202 -0.745,-3.958 -0.55,-8.035 0.566,-11.905 1.117,-3.87 3.125,-7.424 5.864,-10.377 z"
     fill="#ffffff"
     id="path82" />
  <path
     d="m 213.03218,185.21201 c 0.514,-6.155 3.074,-11.96 7.27,-16.492 5.938,-5.886 15.058,-0.354 19.507,4.742 1.473,1.359 2.464,3.16 2.823,5.132 0.048,0.894 -0.215,1.777 -0.745,2.498 -0.53,0.722 -1.294,1.237 -2.161,1.458 -1.367,0.368 -2.781,0.536 -4.196,0.499 2.376,2.294 4.196,5.102 5.32,8.208 1.084,2.981 0.736,6.95 -3.1,7.39 -0.737,0.072 -1.48,0.075 -2.218,0.011 1.926,1.519 3.297,3.632 3.901,6.009 0.175,1.416 -0.198,2.846 -1.042,3.995 -0.845,1.15 -2.098,1.933 -3.501,2.189 -2.437,0.37 -4.929,0.077 -7.214,-0.848 -9.826,-3.663 -15.554,-14.615 -14.644,-24.791 z m 4.74,10.362 c 1.47,3.802 4.029,7.086 7.357,9.439 1.479,1.029 3.122,1.8 4.859,2.279 1.674,0.445 4.522,1.064 5.766,-0.523 1.626,-2.068 -1.343,-4.673 -2.721,-5.973 -1.851,-1.761 -4.03,-3.14 -6.414,-4.059 -1.951,-0.734 -1.137,-3.869 0.871,-3.16 2.791,1.014 5.713,1.622 8.677,1.807 1.12,0.06 2.067,0.177 2.021,-1.211 -0.116,-1.168 -0.464,-2.3 -1.021,-3.332 -0.926,-2.148 -2.313,-4.065 -4.064,-5.616 -1.75,-1.551 -3.82,-2.697 -6.064,-3.357 -0.409,-0.125 -0.753,-0.404 -0.96,-0.778 -0.206,-0.375 -0.258,-0.815 -0.144,-1.227 0.113,-0.413 0.383,-0.764 0.752,-0.98 0.369,-0.217 0.808,-0.28 1.223,-0.177 3.128,0.945 6.413,1.255 9.663,0.913 1.142,-0.126 2.208,-0.215 1.55,-1.596 -0.696,-1.248 -1.59,-2.375 -2.648,-3.336 -3.172,-3.192 -9.774,-7.687 -13.849,-3.646 -3.011,3.233 -5.061,7.242 -5.92,11.575 -0.859,4.334 -0.493,8.821 1.057,12.958 z"
     fill="#000000"
     id="path84" />
  <path
     d="m 435.99518,112.88501 c 20.883,12.144 38.763,28.835 52.313,48.834 -1.702,2.986 -3.435,5.957 -5.198,8.911 -5.609,9.372 -9.874,18.844 -16.605,27.444 -1.022,1.477 -2.324,2.738 -3.832,3.712 -0.762,0.476 -1.637,0.738 -2.535,0.759 -0.898,0.021 -1.785,-0.2 -2.567,-0.64 -2.128,-1.419 -2.219,-4.556 -1.419,-6.986 0.8,-2.429 2.233,-4.699 2.398,-7.249 -1.769,3.346 -4.244,6.269 -7.253,8.565 -3.16,2.061 -7.711,2.506 -10.525,0 -1.053,-1.083 -1.812,-2.417 -2.203,-3.876 -0.392,-1.459 -0.403,-2.994 -0.033,-4.458 0.208,-0.942 0.505,-1.863 0.887,-2.749 -0.567,0.896 -1.215,1.737 -1.937,2.513 -1.027,1.172 -2.321,2.079 -3.774,2.644 -1.452,0.565 -3.019,0.772 -4.568,0.603 -3.06,-0.532 -6.738,-5.081 -0.901,-16.1 2.887,-6.647 6.634,-15.512 9.521,-22.156 -1.079,2.397 -2.631,4.553 -4.562,6.337 -0.982,0.876 -2.201,1.441 -3.503,1.625 -1.302,0.184 -2.63,-0.022 -3.816,-0.591 -3.288,-1.95 -3.167,-6.696 -2.376,-10.434 2.678,-12.663 8.173,-24.506 12.488,-36.708 z"
     fill="#ffffff"
     id="path86" />
  <path
     d="m 423.36718,143.30101 c 1.365,-4.914 3.073,-9.723 4.869,-14.491 2.057,-5.457 4.228,-10.871 6.179,-16.368 0.053,-0.127 0.123,-0.246 0.207,-0.355 l 0.027,-0.044 c 0.071,-0.111 0.154,-0.213 0.25,-0.304 0.231,-0.272 0.554,-0.45 0.908,-0.503 0.353,-0.052 0.714,0.026 1.014,0.22 16.388,9.594 31.012,21.923 43.237,36.454 3.455,4.146 6.683,8.474 9.672,12.967 0.147,0.251 0.225,0.536 0.225,0.827 0,0.291 -0.078,0.576 -0.225,0.827 -2.623,4.597 -5.387,9.11 -7.98,13.724 -2.433,4.336 -4.756,8.732 -7.308,13 -2.367,4.322 -5.226,8.354 -8.521,12.018 -1.536,1.725 -3.694,2.769 -6,2.903 -1.02,0.023 -2.026,-0.232 -2.912,-0.738 -0.885,-0.505 -1.616,-1.243 -2.114,-2.133 -0.827,-1.68 -1.055,-3.592 -0.647,-5.419 -1.215,1.272 -2.698,2.259 -4.341,2.889 -1.643,0.63 -3.405,0.887 -5.159,0.753 -1.547,-0.111 -3.034,-0.643 -4.301,-1.538 -1.267,-0.895 -2.265,-2.12 -2.886,-3.541 -0.548,-1.29 -0.836,-2.676 -0.846,-4.078 -1.065,0.853 -2.289,1.485 -3.602,1.857 -1.312,0.372 -2.686,0.478 -4.04,0.31 -1.024,-0.165 -1.991,-0.583 -2.813,-1.215 -0.823,-0.633 -1.474,-1.461 -1.897,-2.408 -1.127,-2.977 -1.12,-6.265 0.02,-9.237 0.836,-2.27 1.792,-4.495 2.862,-6.665 0.903,-2.084 1.801,-4.17 2.692,-6.258 0.754,-1.761 1.514,-3.52 2.268,-5.282 -0.733,0.36 -1.513,0.614 -2.318,0.755 -0.951,0.164 -1.926,0.132 -2.865,-0.093 -0.94,-0.224 -1.823,-0.638 -2.598,-1.215 -0.774,-0.577 -1.423,-1.305 -1.907,-2.14 -0.484,-0.836 -0.794,-1.761 -0.909,-2.72 -0.713,-4.259 0.62,-8.687 1.759,-12.759 z m 4.032,15.606 c 0.93,0.205 1.897,0.169 2.809,-0.106 0.912,-0.275 1.738,-0.779 2.4,-1.464 1.543,-1.62 2.808,-3.485 3.743,-5.518 1.014,-1.903 3.648,-0.231 2.837,1.654 -1.627,3.749 -3.241,7.503 -4.839,11.262 -1.635,3.826 -3.109,7.792 -4.995,11.499 -1.727,2.875 -2.6,6.182 -2.515,9.535 0.074,0.812 0.344,1.594 0.787,2.279 0.157,0.231 0.343,0.441 0.554,0.626 0.308,0.298 0,0.033 0.202,0.165 0.165,0.106 0.331,0.2 0.505,0.29 -0.127,-0.065 -0.037,0.015 0.238,0.086 0.199,0.054 0.402,0.095 0.606,0.122 1.069,0.105 2.148,-0.054 3.141,-0.465 2.142,-0.952 3.934,-2.547 5.128,-4.564 0.96,-1.449 3.724,-0.559 2.996,1.262 -0.57,1.159 -0.905,2.419 -0.988,3.708 -0.082,1.288 0.091,2.581 0.509,3.802 0.436,1.007 1.172,1.855 2.106,2.43 0.934,0.576 2.023,0.85 3.118,0.787 5.524,-0.058 8.799,-5.307 11.395,-9.468 0.8,-1.28 3.207,-0.886 3.054,0.829 -0.282,2.054 -0.884,4.052 -1.784,5.921 -0.78,1.515 -1.137,3.214 -1.032,4.915 0.02,0.379 0.124,0.747 0.305,1.08 0.18,0.333 0.432,0.622 0.737,0.846 0.305,0.224 0.657,0.377 1.029,0.448 0.371,0.072 0.754,0.06 1.121,-0.035 1.839,-0.605 3.408,-1.835 4.433,-3.477 5.57,-6.964 9.576,-15.011 13.928,-22.754 2.419,-4.309 4.985,-8.537 7.448,-12.821 -10.278,-15.075 -23.132,-28.221 -37.972,-38.836 -3.747,-2.704 -7.626,-5.222 -11.571,-7.625 -2.862,7.841 -6.088,15.552 -8.69,23.493 -1.428,4.042 -2.526,8.194 -3.284,12.413 -0.383,2.557 -0.511,6.702 2.541,7.686 z"
     fill="#000000"
     id="path88" />
  <path
     d="m 323.39018,57.847905 c 0,0 49.57,-39.6091 73.494,-46.2201 23.509,-6.4921997 49.488,-5.6746997 71.299,6.1659 31.215,16.9619 41.746,48.9973 43.934,64.7533 3.389,24.346005 -8.239,52.315005 -23.288,79.105005 -13.767,-20.003 -31.815,-36.689 -52.832,-48.85 0.267,-0.788 0.549,-1.57 0.803,-2.362 4.449,-13.864005 11.172,-32.427005 0.874,-42.720005 -7.129,-7.1234 -29.276,-16.4157 -37.995,-14.5625 -34.632,7.3575 -81.71,27.1445 -81.71,27.1445 5.215,-6.797 8.09,-14.313 5.421,-22.4541 z"
     fill="#ffe8ab"
     id="path90" />
  <path
     d="m 316.55418,79.474005 c 2.432,-3.016 4.281,-6.459 5.451,-10.153 1.038,-3.616 0.97,-7.4598 -0.195,-11.037 -0.028,-0.1202 -0.041,-0.2435 -0.039,-0.367 0,-0.0355 0,-0.0674 -0.011,-0.1029 -0.006,-0.1813 0.023,-0.3621 0.087,-0.532 0.012,-0.0429 0.027,-0.085 0.044,-0.1259 0.065,-0.1242 0.148,-0.2382 0.245,-0.3387 0.037,-0.039 0.052,-0.0958 0.096,-0.1312 2.977,-2.3799 6.006,-4.6958 9.044,-6.9994 6.921,-5.2491 13.955,-10.3486 21.103,-15.2985 8.221,-5.6747 16.609,-11.1561 25.358,-16.0061 3.805,-2.1439 7.72,-4.0855 11.729,-5.8166 4.482,-1.844 9.133,-3.2485997 13.887,-4.1938997 13.993,-3.0681 28.468,-3.2129 42.519,-0.4256 13.369,2.7565997 25.863,8.7342997 36.398,17.4140997 8.599,7.2157 15.728,16.0191 21,25.9297 4.255,7.8549 7.407,16.259 9.365,24.976 2.312,11.168 2.142,22.709 -0.499,33.805005 -3.252,14.718 -9.407,28.728 -16.314,42.07 -1.801,3.477 -3.663,6.922 -5.586,10.335 -0.148,0.244 -0.356,0.446 -0.605,0.586 -0.248,0.14 -0.529,0.214 -0.814,0.214 -0.285,0 -0.566,-0.074 -0.814,-0.214 -0.249,-0.14 -0.457,-0.342 -0.605,-0.586 -10.53,-15.394 -23.702,-28.804 -38.905,-39.609 -4.305,-3.086 -8.746,-5.969 -13.323,-8.65 -0.309,-0.185 -0.55,-0.465 -0.686,-0.799 -0.136,-0.334 -0.16,-0.703 -0.068,-1.051 2.422,-6.653 4.421,-13.452005 5.985,-20.358005 1.242,-6.043 1.983,-13.027 -0.805,-18.774 -2.371,-4.887 -7.116,-7.8275 -11.727,-10.3474 -5.349,-2.9433 -11.02,-5.2575 -16.901,-6.8965 -2.464,-0.7304 -4.997,-1.2 -7.558,-1.4009 -2.458,-0.0264 -4.905,0.321 -7.259,1.0303 -6.804,1.5818 -13.537,3.4562 -20.216,5.4814 -12.702,3.8499 -25.239,8.2481 -37.656,12.9451 -4.41,1.664 -8.803,3.37 -13.18,5.12 -2.128,0.853 -4.243,1.826 -6.405,2.605 -0.096,0.035 -0.188,0.078 -0.282,0.119 -0.315,0.083 -0.647,0.072 -0.956,-0.033 -0.308,-0.106 -0.579,-0.299 -0.777,-0.558 -0.199,-0.258 -0.317,-0.569 -0.339,-0.894 -0.022,-0.325 0.052,-0.649 0.214,-0.932 z m 17.823,-7.448 c 12.472,-4.771 25.068,-9.2483 37.824,-13.2082 6.882,-2.128 13.818,-4.123 20.822,-5.8219 2.802,-0.8454 5.678,-1.4161 8.59,-1.7041 2.575,-0.0343 5.143,0.2637 7.642,0.8866 6.114,1.45 12.032,3.6309 17.625,6.4958 4.859,2.4206 10.133,5.3076 13.52,9.6748 4.112,5.308 4.8,12.236 4.078,18.722 -1.009,7.114 -2.737,14.108005 -5.158,20.873005 -0.447,1.382 -0.903,2.76 -1.368,4.134 16.043,9.492 30.399,21.582 42.481,35.777 2.904,3.447 5.621,7.049 8.214,10.736 7.159,-12.446 13.053,-25.579 17.591,-39.201 3.809,-12.1 6.122,-25.086005 4.098,-37.744005 -1.29,-7.819 -3.609,-15.433 -6.898,-22.6438 -4.242,-9.5404 -10.14,-18.2548 -17.419,-25.7399 -9.002,-9.1317 -20.082,-15.9465 -32.293,-19.8613 -13.327,-4.1041997 -27.393,-5.2307997 -41.203,-3.3002 -5.991,0.7029 -11.899,1.9954 -17.636,3.8588 -3.664,1.2975 -7.23,2.8574 -10.67,4.6674 -8.539,4.4787 -16.808,9.4544 -24.765,14.9013 -7.566,5.0611 -14.975,10.3563 -22.274,15.7951 -2.653,1.9755 -5.29,3.9728 -7.911,5.9921 l -0.412,0.3156 -0.01,0.0089 -0.109,0.0833 -0.737,0.5728 -1.197,0.931 c -0.52,0.4061 -1.036,0.8122 -1.554,1.2201 0.734,3.1075 0.845,6.3294 0.327,9.4798 -0.517,3.151 -1.653,6.168 -3.341,8.878 4.036,-1.632 8.084,-3.225 12.143,-4.779 z"
     fill="#000000"
     id="path92" />
  <path
     d="m 256.92018,114.86401 c -0.899,0.058 -1.791,-0.191 -2.53,-0.705 -0.74,-0.514 -1.284,-1.263 -1.543,-2.125 -0.26,-0.863 -0.22,-1.788 0.113,-2.624 0.333,-0.837 0.939,-1.537 1.72,-1.985 0,0 29.228,-18.586005 45.059,-24.878005 32.743,-13.02 86.861,-37.6551 118.148,-27.1481 34.88,11.7041 22.99,57.695105 -9.693,57.633105 -54.062,-0.113 -119.939,1.896 -151.274,1.832 z"
     fill="#f78cb6"
     id="path94" />
  <path
     d="m 256.92018,117.48501 c -1.016,0.008 -2.021,-0.211 -2.941,-0.642 -0.92,-0.431 -1.732,-1.063 -2.376,-1.849 -0.643,-0.786 -1.103,-1.707 -1.344,-2.694 -0.241,-0.987 -0.258,-2.015 -0.049,-3.01 0.297,-0.982 0.791,-1.893 1.451,-2.678 0.66,-0.785 1.473,-1.428 2.39,-1.89 3.687,-2.32 7.402,-4.596 11.143,-6.827005 6.03,-3.609 12.132,-7.131 18.335,-10.449 5.924,-3.173 12.017,-6.019 18.253,-8.524 6.928,-2.786 13.832,-5.636 20.771,-8.395 7.696,-3.059 15.428,-6.0186 23.257,-8.7318 7.906,-2.7398 15.903,-5.2384 24.025,-7.2494 7.728,-1.9821 15.606,-3.3284 23.554,-4.0255 7.002,-0.6639 14.064,-0.2712 20.95,1.1651 6.54,1.3765 12.615,4.4122 17.643,8.8153 4.208,3.8259 7.218,8.7893 8.666,14.2893 1.34,5.301 1.297,10.857 -0.122,16.138 -1.427,5.332 -4.128,10.238005 -7.87,14.294005 -3.916,4.217 -8.881,7.317 -14.388,8.986 -3.003,0.894 -6.114,1.377 -9.247,1.434 -4.483,0.098 -8.977,0 -13.46,0.018 -9.519,0.033 -19.036,0.11 -28.551,0.229 -9.546,0.118 -19.091,0.256 -28.634,0.415 -9.129,0.15 -18.257,0.31 -27.385,0.48 -8.269,0.149 -16.539,0.291 -24.811,0.426 -6.969,0.108 -13.938,0.206 -20.908,0.252 -2.781,0.019 -5.563,0.026 -8.345,0.023 -0.684,-0.018 -1.333,-0.302 -1.81,-0.792 -0.477,-0.489 -0.745,-1.146 -0.745,-1.83 0,-0.684 0.268,-1.34 0.745,-1.83 0.477,-0.49 1.126,-0.774 1.81,-0.792 13.548,0.027 27.098,-0.229 40.645,-0.463 17.646,-0.305 35.289,-0.645 52.941,-0.909 18.512,-0.277 37.025,-0.484 55.541,-0.467 1.743,0 3.483,0.027 5.22,-0.127 0.355,-0.032 0.71,-0.073 1.054,-0.112 0.619,-0.069 -0.617,0.096 0,0 0.177,-0.027 0.344,-0.05 0.514,-0.078 0.732,-0.119 1.461,-0.263 2.181,-0.433 1.347,-0.316 2.671,-0.725 3.962,-1.223 0.195,-0.075 1.227,-0.423 0.427,-0.167 0.304,-0.113 0.6,-0.246 0.887,-0.397 0.625,-0.295 1.241,-0.611 1.846,-0.949 1.134,-0.647 2.228,-1.362 3.275,-2.142 0.14,-0.103 0.6,-0.376 -0.037,0.032 0.128,-0.082 0.247,-0.195 0.365,-0.289 0.24,-0.196 0.479,-0.394 0.71,-0.596 0.505,-0.437 0.998,-0.887 1.473,-1.359 0.901,-0.903 1.752,-1.855 2.55,-2.849005 0.355,-0.43 -0.363,0.500005 -0.037,0.049 0.091,-0.124 0.178,-0.244 0.273,-0.367 0.181,-0.245 0.359,-0.492 0.532,-0.743 0.374,-0.54 0.729,-1.093 1.064,-1.658 0.649,-1.079 1.232,-2.197 1.745,-3.346 0.068,-0.135 0.127,-0.273 0.178,-0.415 -0.21,0.727 -0.105,0.255 -0.032,0.071 0.11,-0.279 0.221,-0.559 0.328,-0.841 0.227,-0.607 0.435,-1.223 0.624,-1.848 0.364,-1.193 0.654,-2.408 0.869,-3.637 0.044,-0.244 0.081,-0.489 0.12,-0.736 0.039,-0.246 0.208,-0.615 -0.01,0.107 0.03,-0.147 0.048,-0.296 0.053,-0.445 0.075,-0.64 0.128,-1.283 0.16,-1.93 0.061,-1.241 0.042,-2.485 -0.055,-3.724 -0.024,-0.295 -0.052,-0.591 -0.085,-0.886 -0.001,-0.15 -0.019,-0.298 -0.054,-0.444 0.238,0.623 0.057,0.387 0.013,0.108 -0.101,-0.638 -0.213,-1.275 -0.355,-1.906 -0.272,-1.22 -0.627,-2.42 -1.064,-3.591 -0.087,-0.29 -0.198,-0.571 -0.333,-0.842 0.438,0.737 -0.064,-0.14 -0.16,-0.355 -0.279,-0.6 -0.579,-1.192 -0.901,-1.773 -0.608,-1.151 -1.324,-2.241 -2.138,-3.256 0.542,0.644 -0.162,-0.188 -0.288,-0.341 -0.207,-0.246 -0.418,-0.491 -0.633,-0.73 -0.473,-0.529 -0.966,-1.0382 -1.48,-1.5288 -0.486,-0.4646 -0.988,-0.9121 -1.506,-1.3424 -0.147,-0.1223 -1.036,-0.8122 -0.408,-0.3387 -0.324,-0.2447 -0.651,-0.4877 -0.984,-0.7235 -1.245,-0.8734 -2.548,-1.6596 -3.901,-2.3532 -0.684,-0.3547 -1.378,-0.6857 -2.082,-0.9931 -0.11,-0.0479 -0.729,-0.3032 -0.1,-0.0461 l -0.553,-0.2252 c -0.44,-0.1738 -0.882,-0.3405 -1.328,-0.5001 -1.469,-0.5239 -2.965,-0.9673 -4.481,-1.3282 -1.472,-0.3547 -2.962,-0.6313 -4.46,-0.8477 -0.135,-0.0195 -0.798,-0.1046 -0.068,-0.0124 l -0.578,-0.0727 c -0.389,-0.0461 -0.778,-0.0887 -1.167,-0.1277 -0.854,-0.0863 -1.711,-0.1548 -2.569,-0.2057 -3.464,-0.1918 -6.936,-0.1592 -10.395,0.0976 -1.823,0.1276 -3.642,0.305 -5.457,0.532 l -0.665,0.0833 c -0.094,0.0124 -0.839,0.1099 -0.192,0.0231 -0.446,0.0602 -0.886,0.1241 -1.34,0.1879 -0.977,0.1443 -1.952,0.2985 -2.926,0.4629 -7.862,1.3817 -15.631,3.2473 -23.263,5.586 -15.382,4.6017 -30.34,10.4977 -45.207,16.5297 -3.32,1.345 -6.639,2.693 -9.958,4.043 -1.542,0.623 -3.086,1.242 -4.63,1.858 -0.312,0.124 -0.622,0.248 -0.933,0.376 l -0.462,0.192 c -0.554,0.23 0.558,-0.242 0,0 -0.71,0.305 -1.408,0.613 -2.107,0.931 -6.184,2.81 -12.169,6.066 -18.079,9.398 -5.519,3.117 -10.979,6.334005 -16.381,9.653005 -1.68,1.027 -3.355,2.062 -5.025,3.105 l -1.291,0.812 -0.28,0.177 -0.052,0.032 c -0.057,0.037 -0.119,0.076 -0.177,0.106 -0.237,0.167 -0.214,0.144 0.067,-0.07 -0.094,0.078 -0.177,0.159 -0.269,0.246 -0.153,0.151 -0.366,0.56 -0.041,0 -0.083,0.144 -0.177,0.289 -0.259,0.429 -0.277,0.447 0.074,-0.532 0.016,-0.025 -0.011,0.1 -0.158,0.373 -0.114,0.467 l 0.054,-0.383 c -0.011,0.106 -0.016,0.211 -0.016,0.315 0.028,0.355 -0.178,0.43 -0.048,-0.067 -0.03,0.117 0.078,0.355 0.101,0.463 l 0.044,0.152 c 0.096,0.263 0.066,0.201 -0.09,-0.177 0,0.122 0.168,0.316 0.223,0.422 l 0.087,0.137 c 0.16,0.224 0.12,0.176 -0.119,-0.146 0.022,0.11 0.266,0.275 0.341,0.355 0.374,0.404 -0.495,-0.27 0,0 0.14,0.098 0.29,0.183 0.447,0.252 -0.018,0.019 -0.568,-0.178 0.033,0 0.178,0.053 0.355,0.087 0.545,0.122 -0.694,-0.138 -0.076,-0.034 0.088,-0.03 0.35,-0.009 0.699,0.052 1.025,0.18 0.326,0.127 0.623,0.319 0.874,0.563 0.251,0.245 0.45,0.537 0.586,0.859 0.136,0.323 0.206,0.67 0.206,1.02 0,0.35 -0.07,0.697 -0.206,1.019 -0.136,0.323 -0.335,0.615 -0.586,0.859 -0.251,0.245 -0.548,0.436 -0.874,0.564 -0.326,0.128 -0.675,0.189 -1.025,0.18 z"
     fill="#f78cb6"
     id="path96" />
  <path
     d="m 376.29918,57.746805 c 10.153,-3.3724 20.988,-4.1557 31.521,-2.2788 1.254,0.3509 2.32,1.1834 2.963,2.3161 0.643,1.1327 0.813,2.4738 0.472,3.731 -0.378,1.2372 -1.215,2.2826 -2.34,2.9213 -1.125,0.6386 -2.451,0.8218 -3.707,0.5119 -0.52,-0.1153 -1.045,-0.2006 -1.575,-0.2554 h -0.06 c -0.355,-0.0408 -0.709,-0.0816 -1.054,-0.1188 -1.127,-0.1182 -2.257,-0.2016 -3.388,-0.2501 -2.405,-0.1076 -4.815,-0.0661 -7.214,0.1242 -0.564,0.0443 -1.128,0.0957 -1.692,0.1578 -0.275,0.0284 -0.552,0.0656 -0.828,0.0958 -1.179,0.1897 -2.355,0.3777 -3.526,0.6206 -2.356,0.4946 -4.679,1.1326 -6.958,1.9096 -1.257,0.338 -2.596,0.167 -3.728,-0.475 -1.132,-0.643 -1.965,-1.7055 -2.319,-2.9579 -0.318,-1.2568 -0.138,-2.5876 0.502,-3.7151 0.639,-1.1275 1.689,-1.9647 2.931,-2.3372 z"
     fill="#ffd2d9"
     id="path98" />
  <path
     d="m 410.94818,125.99501 c 1.297,0.022 2.535,0.547 3.452,1.464 0.917,0.917 1.442,2.155 1.464,3.452 v 0.578 c 0,1.304 -0.518,2.554 -1.44,3.476 -0.922,0.922 -2.172,1.44 -3.476,1.44 -1.304,0 -2.554,-0.518 -3.476,-1.44 -0.922,-0.922 -1.44,-2.172 -1.44,-3.476 v -0.578 c 0.013,-1.3 0.535,-2.543 1.455,-3.462 0.919,-0.919 2.161,-1.441 3.461,-1.454 z"
     fill="#ffffff"
     id="path100" />
  <path
     d="m 332.73218,161.09301 c 1.152,-1.316 2.278,-2.653 3.378,-4.011 0.339,-0.42 0.67,-0.842 1.005,-1.265 l 0.119,-0.147 0.1,-0.133 c 0.487,-0.643 0.973,-1.287 1.45,-1.938 2.107,-2.874 4.087,-5.836 5.941,-8.886 1.816,-2.99 3.502,-6.052 5.059,-9.186 0.777,-1.566 1.521,-3.149 2.233,-4.747 0.189,-0.429 0.376,-0.862 0.565,-1.293 l 0.075,-0.177 0.058,-0.142 c 0.355,-0.873 0.71,-1.743 1.052,-2.621 0.375,-1.237 1.211,-2.282 2.335,-2.92 1.125,-0.638 2.451,-0.819 3.705,-0.506 2.32,0.75 4.433,3.481 3.433,6.047 -2.549,6.517 -5.611,12.823 -9.156,18.857 8.186,-3.004 16.504,-5.604 24.955,-7.802 1.25,-0.327 2.579,-0.148 3.699,0.498 1.12,0.646 1.94,1.707 2.284,2.953 0.343,1.246 0.182,2.577 -0.448,3.705 -0.631,1.129 -1.68,1.963 -2.921,2.324 -9.594,2.496 -19.041,5.527 -28.296,9.078 10.5,0.792 20.899,3.589 31.034,6.483 0.632,0.163 1.225,0.45 1.745,0.844 0.52,0.395 0.956,0.889 1.284,1.454 0.327,0.564 0.538,1.189 0.621,1.836 0.084,0.648 0.037,1.305 -0.136,1.934 -0.173,0.63 -0.47,1.218 -0.873,1.731 -0.404,0.514 -0.905,0.942 -1.475,1.259 -0.57,0.318 -1.198,0.519 -1.847,0.591 -0.649,0.073 -1.305,0.015 -1.931,-0.169 -7.521,-2.297 -15.172,-4.145 -22.912,-5.534 -0.436,-0.069 -0.874,-0.136 -1.312,-0.202 l -0.532,-0.075 -0.126,-0.016 c -0.949,-0.101 -1.894,-0.222 -2.837,-0.307 -1.889,-0.177 -3.786,-0.273 -5.675,-0.292 -1.889,-0.02 -3.783,0.046 -5.675,0.207 -0.58,0.05 -1.159,0.115 -1.739,0.177 l -0.197,0.02 -0.233,0.037 c -1.014,0.165 -2.023,0.342 -3.028,0.554 -1.046,0.266 -2.149,0.191 -3.148,-0.216 -1,-0.407 -1.842,-1.123 -2.405,-2.044 -0.514,-0.948 -0.716,-2.035 -0.578,-3.105 0.139,-1.069 0.611,-2.069 1.35,-2.855 z"
     fill="#ffffff"
     id="path102" />
  <path
     d="m 395.43518,131.96801 c 1.297,0.022 2.535,0.547 3.453,1.465 0.917,0.917 1.442,2.155 1.465,3.452 v 0.578 c -0.025,1.288 -0.554,2.515 -1.473,3.417 -0.919,0.902 -2.156,1.407 -3.444,1.407 -1.288,0 -2.525,-0.505 -3.444,-1.407 -0.919,-0.902 -1.448,-2.129 -1.473,-3.417 v -0.578 c 0.013,-1.3 0.535,-2.543 1.454,-3.463 0.919,-0.919 2.162,-1.441 3.462,-1.454 z"
     fill="#ffffff"
     id="path104" />
</svg>
