<svg width="435" height="419" viewBox="0 0 435 419" fill="none" xmlns="http://www.w3.org/2000/svg">
<rect width="434.736" height="418.62" rx="8" fill="#F78CB6"/>
<path d="M378.379 245.297C378.379 330.773 315.995 376.289 218.433 384.364C93.6654 367.766 55.6724 321.353 55.6724 235.876C55.6724 150.4 128.123 81.1079 217.495 81.1079C306.867 81.1079 378.379 159.821 378.379 245.297Z" fill="white"/>
<path fill-rule="evenodd" clip-rule="evenodd" d="M336.164 343.939V324.802C336.134 314.602 331.883 304.828 324.339 297.615C316.796 290.402 306.574 286.337 295.906 286.309H139.084C128.416 286.337 118.193 290.402 110.65 297.615C103.106 304.828 98.8551 314.602 98.825 324.802V343.939C132.329 370.084 174.248 384.364 217.495 384.364C260.741 384.364 302.66 370.084 336.164 343.939Z" fill="#E7E3E7"/>
<path fill-rule="evenodd" clip-rule="evenodd" d="M202.255 383.781C207.268 384.164 212.357 384.365 217.504 384.365C222.651 384.365 227.569 384.164 232.525 383.8L225.834 341.515L217.39 338.617L208.964 341.515L202.255 383.781Z" fill="#D26070"/>
<path fill-rule="evenodd" clip-rule="evenodd" d="M233.116 323.125L225.815 341.515H217.371H208.945L201.645 323.125L205.305 320.136L217.371 317.366L229.456 320.136L233.116 323.125Z" fill="#A94B64"/>
<path fill-rule="evenodd" clip-rule="evenodd" d="M336.164 343.939V324.802C336.134 314.602 331.883 304.827 324.339 297.615C316.796 290.402 306.574 286.337 295.906 286.309H235.842L232.696 288.131L243.905 321.157L236.623 383.38C273.141 379.851 307.762 366.114 336.164 343.884V343.939ZM98.825 343.939V324.802C98.8551 314.602 103.106 304.827 110.65 297.615C118.193 290.402 128.416 286.337 139.084 286.309H199.128L202.293 288.131L191.084 321.157L198.366 383.38C161.854 379.867 127.234 366.149 98.825 343.939Z" fill="#4C3B82"/>
<path fill-rule="evenodd" clip-rule="evenodd" d="M240.531 311.242L243.905 321.211L236.623 383.435C244.203 382.711 251.728 381.536 259.154 379.917L273.851 352.76L255.914 298.538C250.348 300.033 245.182 304.753 240.531 311.242Z" fill="#30295E"/>
<path fill-rule="evenodd" clip-rule="evenodd" d="M217.485 195.707C226.066 195.75 234.282 199.029 240.349 204.83C246.417 210.631 249.845 218.487 249.89 226.692V286.145C249.845 294.349 246.417 302.205 240.349 308.006C234.282 313.807 226.066 317.086 217.485 317.129C208.903 317.09 200.684 313.814 194.615 308.011C188.547 302.209 185.12 294.35 185.08 286.145V226.764C185.1 218.546 188.518 210.669 194.589 204.851C200.659 199.033 208.89 195.746 217.485 195.707Z" fill="#F4CBBB"/>
<path fill-rule="evenodd" clip-rule="evenodd" d="M217.485 195.707C226.066 195.75 234.282 199.029 240.349 204.83C246.417 210.631 249.845 218.487 249.89 226.692V277.724C241.14 281.674 231.584 283.722 221.907 283.721C208.72 283.695 195.844 279.885 184.946 272.785V226.764C184.967 218.524 188.403 210.628 194.503 204.806C200.602 198.984 208.867 195.712 217.485 195.707Z" fill="#E4BAA9"/>
<path fill-rule="evenodd" clip-rule="evenodd" d="M131.63 186.521C131.492 191.76 133.534 196.838 137.309 200.638C141.083 204.438 146.281 206.65 151.76 206.789H152.732C150.644 199.991 149.554 192.95 149.491 185.865V179.833C149.491 167.457 132.126 168.277 131.63 186.521Z" fill="#EBBFAE"/>
<path fill-rule="evenodd" clip-rule="evenodd" d="M303.359 186.521C303.497 191.76 301.455 196.838 297.68 200.638C293.906 204.438 288.709 206.65 283.229 206.789H282.257C284.337 199.99 285.427 192.949 285.498 185.865V179.833C285.498 167.457 302.787 168.277 303.359 186.521Z" fill="#EBBFAE"/>
<path fill-rule="evenodd" clip-rule="evenodd" d="M217.504 71.8074C180.086 71.8074 149.491 102.062 149.491 139.025V200.136C149.491 237.099 180.086 267.335 217.504 267.335C254.904 267.335 285.498 237.099 285.498 200.136V139.025C285.498 102.062 254.904 71.8074 217.504 71.8074Z" fill="#F4CBBB"/>
<path fill-rule="evenodd" clip-rule="evenodd" d="M220.992 195.398C222.308 199.043 224.614 205.477 224.424 206.497C224.138 207.901 216.303 208.32 214.245 206.115C212.872 204.675 214.588 199.298 216.055 195.708C218.095 190.732 219.22 190.477 220.992 195.398Z" fill="#FBDDD2"/>
<path fill-rule="evenodd" clip-rule="evenodd" d="M193.982 154.863C194.336 155.016 194.655 155.235 194.921 155.506C195.187 155.777 195.394 156.096 195.532 156.443C195.669 156.791 195.733 157.161 195.721 157.533C195.708 157.904 195.619 158.27 195.459 158.609C195.299 158.947 195.07 159.252 194.787 159.507C194.503 159.761 194.17 159.959 193.806 160.091C193.443 160.222 193.055 160.283 192.667 160.271C192.278 160.259 191.896 160.174 191.542 160.021C188.74 158.88 185.698 158.383 182.659 158.57C179.62 158.757 176.669 159.622 174.043 161.096C173.713 161.309 173.341 161.456 172.95 161.528C172.559 161.601 172.157 161.598 171.767 161.519C171.378 161.44 171.009 161.287 170.682 161.069C170.356 160.851 170.078 160.573 169.866 160.251C169.654 159.928 169.512 159.569 169.448 159.193C169.384 158.817 169.4 158.433 169.495 158.063C169.589 157.693 169.76 157.345 169.998 157.039C170.236 156.734 170.535 156.477 170.879 156.285C182.144 149.505 193.963 154.845 193.982 154.863Z" fill="#30295E"/>
<path fill-rule="evenodd" clip-rule="evenodd" d="M263.977 156.121C264.349 156.284 264.682 156.519 264.954 156.812C265.227 157.104 265.433 157.447 265.561 157.819C265.688 158.191 265.734 158.584 265.695 158.974C265.656 159.364 265.533 159.742 265.335 160.084C265.136 160.426 264.865 160.726 264.54 160.963C264.215 161.201 263.841 161.372 263.444 161.465C263.046 161.559 262.632 161.572 262.229 161.506C261.825 161.439 261.441 161.293 261.099 161.078C258.403 159.722 255.412 158.989 252.366 158.938C249.321 158.888 246.305 159.521 243.562 160.786C243.217 160.96 242.839 161.067 242.45 161.101C242.062 161.135 241.67 161.094 241.298 160.982C240.926 160.871 240.581 160.689 240.282 160.449C239.984 160.209 239.738 159.915 239.559 159.584C239.196 158.913 239.124 158.133 239.36 157.413C239.595 156.693 240.119 156.091 240.817 155.738C252.635 149.833 263.939 156.102 263.977 156.121Z" fill="#30295E"/>
<path fill-rule="evenodd" clip-rule="evenodd" d="M294.628 171.795C294.628 171.795 285.498 171.995 285.498 179.833C281.596 174.525 279.786 168.068 280.389 161.607C280.389 161.607 262.948 142.159 263.748 120.434C264.549 98.7088 282.219 94.0794 282.219 94.0794C324.708 105.945 294.628 134.705 294.628 171.795Z" fill="#30295E"/>
<path fill-rule="evenodd" clip-rule="evenodd" d="M140.342 171.795C140.342 171.795 149.491 171.995 149.491 179.833C153.393 174.525 155.203 168.068 154.6 161.607C154.6 161.607 172.041 142.159 171.241 120.434C170.44 98.7088 152.751 94.0794 152.751 94.0794C110.262 105.945 140.342 134.705 140.342 171.795Z" fill="#30295E"/>
<path fill-rule="evenodd" clip-rule="evenodd" d="M241.122 55.4222C247.662 52.1394 255.021 50.6419 262.392 51.0939C269.763 51.5459 276.862 53.93 282.909 57.9847C288.957 62.0394 293.72 67.6082 296.676 74.0803C299.633 80.5524 300.668 87.6779 299.668 94.6753C298.669 101.673 295.673 108.272 291.011 113.749C286.348 119.226 280.197 123.37 273.234 125.726C266.271 128.082 258.763 128.559 251.535 127.104C244.307 125.65 237.638 122.321 232.258 117.482C230.463 120.794 227.862 123.645 224.675 125.796C221.488 127.947 217.806 129.334 213.941 129.841C210.076 130.349 206.14 129.961 202.465 128.711C198.789 127.461 195.481 125.385 192.819 122.658C190.37 125.865 187.104 128.42 183.331 130.08C179.558 131.741 175.404 132.451 171.263 132.144C167.122 131.837 163.132 130.524 159.672 128.327C156.212 126.131 153.396 123.125 151.493 119.596C146.897 118.583 142.564 116.69 138.755 114.031C134.946 111.372 131.74 108.003 129.33 104.126C126.921 100.25 125.358 95.9469 124.736 91.4769C124.115 87.007 124.447 82.4629 125.713 78.1191C126.979 73.7753 129.152 69.7218 132.102 66.2035C135.052 62.6852 138.717 59.775 142.876 57.6487C147.035 55.5223 151.601 54.2239 156.3 53.8318C160.998 53.4398 165.73 53.9622 170.212 55.3675C173.514 49.0806 178.58 43.7954 184.842 40.1021C191.105 36.4089 198.318 34.453 205.676 34.453C213.034 34.453 220.247 36.4089 226.51 40.1021C232.773 43.7954 237.838 49.0806 241.141 55.3675L241.122 55.4222Z" fill="#30295E"/>
<path fill-rule="evenodd" clip-rule="evenodd" d="M217.485 317.275L240.359 338.307C240.359 338.307 248.842 343.064 252.216 336.157C255.59 329.249 265.826 286.218 265.826 286.218L249.89 280.567C249.89 280.567 249.09 307.214 217.485 317.275Z" fill="white"/>
<path fill-rule="evenodd" clip-rule="evenodd" d="M307.705 296.552C307.785 296.468 307.882 296.4 307.989 296.352C308.097 296.304 308.213 296.277 308.332 296.271C308.45 296.266 308.569 296.284 308.68 296.322C308.792 296.361 308.894 296.42 308.982 296.497C309.07 296.574 309.141 296.666 309.191 296.769C309.241 296.872 309.27 296.983 309.275 297.096C309.28 297.21 309.262 297.323 309.222 297.43C309.181 297.536 309.119 297.634 309.039 297.718C309.039 297.718 300.881 305.902 300.881 325.458V365.719L298.975 366.576V325.458C298.975 305.209 307.686 296.57 307.705 296.552Z" fill="#1C1341"/>
<path fill-rule="evenodd" clip-rule="evenodd" d="M194.458 311.242L191.084 321.157L198.366 383.38C190.786 382.657 183.261 381.482 175.835 379.863L161.119 352.706L179.075 298.484C184.603 300.033 189.807 304.753 194.458 311.242Z" fill="#30295E"/>
<path fill-rule="evenodd" clip-rule="evenodd" d="M217.485 317.275L194.611 338.307C194.611 338.307 186.109 343.064 182.754 336.157C179.399 329.249 169.144 286.218 169.144 286.218L185.08 280.567C185.08 280.567 185.9 307.214 217.485 317.275Z" fill="white"/>
<path fill-rule="evenodd" clip-rule="evenodd" d="M127.265 296.552C127.183 296.468 127.084 296.402 126.974 296.357C126.865 296.311 126.746 296.288 126.627 296.288C126.507 296.288 126.389 296.311 126.279 296.357C126.169 296.402 126.07 296.468 125.988 296.552C125.903 296.631 125.836 296.726 125.79 296.831C125.744 296.936 125.721 297.049 125.721 297.162C125.721 297.276 125.744 297.388 125.79 297.493C125.836 297.598 125.903 297.693 125.988 297.773C125.988 297.773 134.147 305.956 134.147 325.513V365.774L135.957 366.63V325.458C135.919 305.209 127.303 296.57 127.265 296.552Z" fill="#1C1341"/>
<path fill-rule="evenodd" clip-rule="evenodd" d="M183.498 192.135C185.164 192.135 186.793 191.663 188.179 190.777C189.564 189.892 190.644 188.634 191.282 187.162C191.919 185.69 192.086 184.07 191.761 182.508C191.436 180.945 190.634 179.509 189.455 178.383C188.277 177.256 186.776 176.489 185.141 176.178C183.507 175.867 181.813 176.027 180.274 176.637C178.734 177.246 177.418 178.279 176.492 179.604C175.567 180.928 175.072 182.486 175.072 184.079C175.077 186.214 175.967 188.26 177.546 189.77C179.125 191.28 181.265 192.13 183.498 192.135Z" fill="#30295E"/>
<path fill-rule="evenodd" clip-rule="evenodd" d="M251.472 192.135C253.139 192.135 254.768 191.663 256.153 190.777C257.539 189.892 258.619 188.634 259.256 187.162C259.894 185.69 260.061 184.07 259.736 182.508C259.411 180.945 258.608 179.509 257.43 178.383C256.252 177.256 254.75 176.489 253.116 176.178C251.482 175.867 249.788 176.027 248.248 176.637C246.709 177.246 245.393 178.279 244.467 179.604C243.541 180.928 243.047 182.486 243.047 184.079C243.052 186.214 243.941 188.26 245.52 189.77C247.099 191.28 249.239 192.13 251.472 192.135Z" fill="#30295E"/>
<path fill-rule="evenodd" clip-rule="evenodd" d="M232.372 220.659C232.444 222.57 232.112 224.475 231.397 226.26C230.681 228.046 229.597 229.676 228.208 231.052C226.82 232.428 225.155 233.522 223.315 234.27C221.474 235.017 219.494 235.403 217.495 235.403C215.495 235.403 213.515 235.017 211.675 234.27C209.834 233.522 208.17 232.428 206.781 231.052C205.392 229.676 204.308 228.046 203.593 226.26C202.877 224.475 202.545 222.57 202.617 220.659C202.622 219.966 202.913 219.303 203.427 218.815C203.942 218.326 204.637 218.052 205.362 218.052H229.627C230.352 218.052 231.047 218.326 231.562 218.815C232.076 219.303 232.367 219.966 232.372 220.659Z" fill="#FFCCE0"/>
</svg>
