<?xml version="1.0" encoding="UTF-8" standalone="no"?>
<svg
   width="241.66115"
   height="192.80937"
   viewBox="0 0 241.66115 192.80937"
   fill="none"
   version="1.1"
   id="svg142"
   sodipodi:docname="Mail-Illustration.svg"
   inkscape:version="1.1.1 (3bf5ae0d25, 2021-09-20)"
   xmlns:inkscape="http://www.inkscape.org/namespaces/inkscape"
   xmlns:sodipodi="http://sodipodi.sourceforge.net/DTD/sodipodi-0.dtd"
   xmlns="http://www.w3.org/2000/svg"
   xmlns:svg="http://www.w3.org/2000/svg">
  <defs
     id="defs146" />
  <sodipodi:namedview
     id="namedview144"
     pagecolor="#ffffff"
     bordercolor="#666666"
     borderopacity="1.0"
     inkscape:pageshadow="2"
     inkscape:pageopacity="0.0"
     inkscape:pagecheckerboard="0"
     showgrid="false"
     inkscape:zoom="3.492"
     inkscape:cx="120.70447"
     inkscape:cy="96.363116"
     inkscape:window-width="2560"
     inkscape:window-height="1369"
     inkscape:window-x="1592"
     inkscape:window-y="-8"
     inkscape:window-maximized="1"
     inkscape:current-layer="svg142" />
  <g
     opacity="0.8"
     id="g140"
     transform="translate(-4.160855,-28.595)">
    <path
       d="m 104.534,171.038 c -0.566,-0.898 -1.305,-1.675 -2.173,-2.286 -0.869,-0.611 -1.849,-1.044 -2.886,-1.274 -0.5405,-0.159 -1.1049,-0.219 -1.6667,-0.18 -4.8791,-0.023 -4,-6.805 -5.8533,-9.792 -1.1544,-1.858 -2.7507,-3.4 -4.6464,-4.491 -1.8956,-1.091 -4.0318,-1.695 -6.2178,-1.759 -2.062,0.038 -4.0762,0.628 -5.8333,1.708 -2.1308,1.258 -4.0542,1.389 -6.0233,-0.306 -3.5492,-3.055 -7.0775,-5.325 -11.9167,-5.625 -4.5704,-0.211 -9.038,1.398 -12.425,4.474 -1.7779,1.576 -3.2649,3.453 -4.3933,5.545 -1.1525,2.141 -2.2692,4.256 -4.8067,2.314 -3.8483,-2.947 -8.125,-4.132 -12.8517,-2.374 -2.0777,0.82 -3.97,2.049 -5.565,3.613 -1.595,1.564 -2.8605,3.432 -3.7216,5.493 -0.804,2.029 -1.3464,4.151 -1.6142,6.317 -0.465,2.822 -1.6417,3.424 -3.98751,4.75 -4,2.259 -4.43917,7.401 -3.13417,11.417 1.18834,3.655 4.33334,7.046 8.47998,6.536 2.1192,-0.26 3.6034,-1.05 5.3259,0.733 1.7225,1.782 3.0533,3.658 5.1566,5.1 7.6325,5.23 17.6175,4.369 25.6609,0.574 4.575,-2.158 8.3058,-5.298 12.1325,-8.527 4.3975,-3.708 6.9008,2.5 10.25,4.599 1.9538,1.247 4.1925,1.979 6.5061,2.124 2.3137,0.146 4.6264,-0.298 6.7214,-1.291 2.0204,-1.003 3.787,-2.451 5.1666,-4.235 1.2634,-1.622 1.8625,-4.202 3.655,-5.318 1.6667,-1.042 3.7792,-0.428 5.5792,-1.25 2.0465,-1.06 3.7195,-2.719 4.7955,-4.757 2.077,-3.578 2.618,-8.238 0.286,-11.832 z m -6.5657,16.158 c -2.2266,0.532 -4.1941,-0.023 -5.8441,2.015 -1.65,2.037 -2.3125,4.436 -4.3375,6.265 -1.6325,1.507 -3.6323,2.559 -5.7992,3.05 -2.1669,0.491 -4.4247,0.404 -6.5475,-0.252 -2.1081,-0.685 -4.0261,-1.855 -5.6,-3.416 -1.57,-1.555 -2.4742,-3.77 -4.9292,-4.027 -2.2683,-0.238 -3.7033,1.287 -5.25,2.672 -1.8623,1.672 -3.8535,3.196 -5.955,4.556 -3.8714,2.578 -8.2089,4.376 -12.7691,5.293 -4.6805,0.939 -9.5379,0.385 -13.8867,-1.584 -2.0749,-0.973 -3.9611,-2.306 -5.5717,-3.936 -1.5,-1.526 -2.47,-3.719 -4.7916,-4.116 -2.1367,-0.365 -3.94,0.939 -6.1367,0.189 -0.99379,-0.388 -1.89715,-0.976 -2.65384,-1.727 -0.75669,-0.752 -1.35052,-1.652 -1.7445,-2.643 -1.54334,-3.432 -1.84167,-8.907 1.7025,-11.257 1.9725,-1.309 3.91664,-1.652 4.69254,-4.22 0.7041,-2.345 0.7,-4.77 1.6425,-7.089 0.789,-2.054 1.9925,-3.923 3.5356,-5.492 1.5431,-1.569 3.3927,-2.803 5.4335,-3.625 2.2149,-0.861 4.6371,-1.037 6.9534,-0.507 2.4883,0.611 3.8441,2.378 6,3.43 2.0183,0.986 3.63,-0.258 4.5458,-1.98 1.0706,-2.201 2.4818,-4.22 4.1817,-5.982 1.5991,-1.615 3.5156,-2.882 5.6287,-3.721 2.113,-0.838 4.3768,-1.23 6.6488,-1.15 2.2598,0.123 4.4717,0.699 6.5041,1.695 2.3334,1.141 3.7959,3.127 5.935,4.448 2.3334,1.439 4.2875,0.7 6.465,-0.51 1.9578,-1.129 4.2315,-1.585 6.4734,-1.3 2.2274,0.328 4.3207,1.266 6.0483,2.71 1.7277,1.444 3.0223,3.337 3.7408,5.471 0.6867,2.221 0.3959,4.75 2.2425,6.446 0.7078,0.704 1.6318,1.149 2.6234,1.265 0.2083,0.037 0.4202,0.051 0.6316,0.041 0.6133,0.123 1.2342,0.205 1.8584,0.245 3.6828,1 5.7078,4.955 5.5358,8.577 -0.188,3.959 -3.083,9.18 -7.2067,10.166 z"
       fill="#b5e6d2"
       id="path2" />
    <path
       d="m 119.988,120.485 c -0.188,-1.667 -0.373,-3.327 -0.575,-4.988 -0.695,-5.696 -1.473,-11.381 -2.334,-17.0553 -0.066,-0.4367 -0.73,-0.25 -0.666,0.1833 1.02,6.745 1.92,13.507 2.7,20.285 0.257,0.543 0.55,1.07 0.875,1.575 z"
       fill="#000000"
       id="path4" />
    <path
       d="m 121.612,125.482 c -0.089,-2.215 -0.743,-4.37 -1.9,-6.261 -0.676,-1.099 -1.613,-2.014 -2.728,-2.663 -1.116,-0.649 -2.374,-1.013 -3.663,-1.059 -3.315,0.039 -6.053,2.609 -9.274,3.393 -1.884,0.458 -4.026,0.347 -5.5262,1.575 -0.6458,0.527 -1.11,1.487 -0.6508,2.183 0.21,0.243 0.4806,0.427 0.7843,0.532 0.3038,0.106 0.63,0.129 0.9457,0.068 0.63,-0.131 1.274,-0.18 1.917,-0.147 0.071,0.004 0.14,0.023 0.203,0.057 0.063,0.033 0.118,0.08 0.161,0.137 0.156,0.272 -0.198,0.544 -0.484,0.667 -0.92,0.408 -1.7736,0.951 -2.5328,1.611 -0.2276,0.15 -0.4149,0.354 -0.5456,0.594 -0.1308,0.239 -0.2009,0.507 -0.2044,0.78 0.0933,0.641 0.8425,0.98 1.4891,0.963 0.6467,-0.018 1.2707,-0.269 1.9167,-0.284 0.095,-0.014 0.191,-0.004 0.281,0.029 0.09,0.033 0.17,0.088 0.233,0.16 0.128,0.196 0,0.46 -0.148,0.64 -0.569,0.505 -1.169,0.975 -1.797,1.405 -0.5607,0.516 -0.894,1.469 -0.3623,2.015 0.4913,0.506 1.3333,0.306 1.9863,0.038 0.925,-0.381 1.815,-0.833 2.699,-1.306 -0.028,0.25 -0.05,0.506 -0.064,0.759 -0.187,2.075 0.202,4.162 1.123,6.031 1.976,3.643 6.456,4.428 10.239,3.902 1.958,-0.221 3.8,-1.039 5.277,-2.343 1.396,-1.359 2.279,-3.159 2.5,-5.095 0.073,-0.546 0.111,-1.097 0.112,-1.648 0.013,-2.391 -0.678,-4.732 -1.987,-6.733 z m -0.466,11.937 c -1.055,1.34 -2.527,2.289 -4.183,2.698 -1.941,0.521 -3.978,0.578 -5.946,0.166 -1.619,-0.294 -3.085,-1.145 -4.145,-2.406 -1.026,-1.42 -1.588,-3.122 -1.61,-4.874 -0.142,-2.02 0.207,-4.045 1.018,-5.901 0.735,-1.667 2.002,-3.045 3.602,-3.916 1.802,-0.893 3.856,-1.139 5.817,-0.698 3.917,0.842 6.417,4.317 6.886,8.167 0.062,0.52 0.093,1.042 0.092,1.566 0.058,1.851 -0.479,3.672 -1.531,5.196 z"
       fill="#f97580"
       id="path6" />
    <path
       d="m 152.473,122.507 c 28.621,0 51.823,-21.023 51.823,-46.9562 0,-25.933 -23.202,-46.9558 -51.823,-46.9558 -28.62,0 -51.822,21.0228 -51.822,46.9558 0,25.9332 23.202,46.9562 51.822,46.9562 z"
       fill="#fa8db8"
       fill-opacity="0.81"
       id="path8" />
    <path
       d="m 109.608,133.332 c 0.465,0 0.843,-0.378 0.843,-0.844 0,-0.466 -0.378,-0.843 -0.843,-0.843 -0.466,0 -0.844,0.377 -0.844,0.843 0,0.466 0.378,0.844 0.844,0.844 z"
       fill="#000000"
       id="path10" />
    <path
       d="m 145.953,143.183 c -0.655,0.533 -1.259,1.126 -1.805,1.77 -1.443,1.811 -3.003,3.526 -4.67,5.134 -1.683,1.614 -3.814,2.683 -6.115,3.066 -2.492,0.205 -4.981,-0.437 -7.063,-1.822 -2.109,-1.303 -3.775,-3.188 -5.655,-4.803 -1.098,-0.945 -3.655,-0.683 -4.443,0.533 -0.692,1.288 -0.895,2.784 -0.569,4.21 0.942,6.092 5.638,11.333 11.457,13.371 2.94,0.957 6.058,1.241 9.122,0.833 3.065,-0.408 5.999,-1.498 8.587,-3.19 1.932,-1.247 3.63,-2.822 5.019,-4.654 -2.25,-4.506 -3.565,-9.42 -3.865,-14.448 z"
       fill="#b7e9d4"
       id="path12" />
    <path
       d="m 119.257,131.914 c 0.465,0 0.843,-0.377 0.843,-0.843 0,-0.466 -0.378,-0.843 -0.843,-0.843 -0.466,0 -0.844,0.377 -0.844,0.843 0,0.466 0.378,0.843 0.844,0.843 z"
       fill="#000000"
       id="path14" />
    <path
       d="m 118.927,134.167 c -0.027,1.167 -0.342,2.31 -0.917,3.326 -0.283,0.419 -0.657,0.768 -1.094,1.022 -0.437,0.255 -0.925,0.408 -1.428,0.448 -0.904,-0.008 -1.779,-0.32 -2.482,-0.887 -0.969,-0.817 -1.719,-1.862 -2.185,-3.04 2.729,0.498 5.544,0.196 8.106,-0.869 z"
       fill="#f97580"
       id="path16" />
    <path
       d="m 107.899,131.179 c 0.155,-0.406 0.454,-0.74 0.841,-0.938 0.386,-0.198 0.833,-0.246 1.253,-0.134 0.43,0.106 0.614,-0.558 0.183,-0.667 -0.596,-0.156 -1.228,-0.083 -1.773,0.204 -0.544,0.288 -0.961,0.769 -1.168,1.349 -0.157,0.417 0.507,0.594 0.667,0.184 z"
       fill="#000000"
       id="path18" />
    <path
       d="m 118.027,129.015 c 0.338,-0.072 0.689,-0.061 1.022,0.031 0.334,0.092 0.64,0.262 0.894,0.496 0.327,0.3 0.815,-0.186 0.487,-0.486 -0.342,-0.317 -0.756,-0.547 -1.205,-0.669 -0.45,-0.123 -0.923,-0.135 -1.378,-0.036 -0.434,0.091 -0.25,0.755 0.183,0.666 z"
       fill="#000000"
       id="path20" />
    <path
       d="m 115.352,175.787 29.576,1.988 c -0.62,-2.796 -1.515,-5.667 -3.522,-7.707 -2.24,-2.281 -5.542,-3.188 -8.727,-3.46 -4.578,-0.328 -9.175,0.277 -13.512,1.777 -1.601,0.459 -3.102,1.211 -4.43,2.216 -0.66,0.507 -1.203,1.15 -1.592,1.886 -0.39,0.736 -0.616,1.547 -0.664,2.378 0.01,0.384 0.093,0.762 0.245,1.115 0.862,-0.184 1.746,-0.249 2.626,-0.193 z"
       fill="#f97580"
       id="path22" />
    <path
       d="m 87.7042,121.8 c -0.2575,-0.631 -0.7434,-3.527 -1.0634,-4.147 -0.0979,-0.173 -0.242,-0.315 -0.416,-0.41 -0.1741,-0.095 -0.3712,-0.14 -0.5693,-0.13 -0.1981,0.011 -0.3894,0.076 -0.5524,0.189 -0.163,0.113 -0.2913,0.269 -0.3706,0.451 -0.1967,0.406 -0.21,2.955 -0.5975,3.175 -0.5568,0.256 -1.1638,0.383 -1.7764,0.374 -0.6126,-0.01 -1.2152,-0.157 -1.7636,-0.43 -1.4167,-0.584 -2.6517,-1.565 -4.1667,-1.926 -0.524,-0.136 -1.0804,-0.059 -1.5483,0.213 -1.0908,0.673 -0.8333,1.883 -0.285,2.731 2.3742,3.693 8.77,3 10.9217,6.829 0.4366,0.776 0.6375,1.661 1,2.474 0.1515,0.419 0.3937,0.8 0.7092,1.116 0.3156,0.315 0.6969,0.557 1.1166,0.709 0.86,0.224 3.9475,0.004 -0.6383,-11.218 z"
       fill="#fcafb7"
       id="path24" />
    <path
       d="m 191.187,100.382 c -3.808,4.398 -7.439,8.939 -10.893,13.623 -3.46,4.692 -6.732,9.514 -9.815,14.466 -3.083,4.951 -5.965,10.011 -8.646,15.178 -2.674,5.155 -5.144,10.405 -7.408,15.75 -2.261,5.337 -4.309,10.757 -6.143,16.258 -0.231,0.693 -0.459,1.387 -0.682,2.084 -0.133,0.411 0.521,0.588 0.653,0.178 1.778,-5.514 3.772,-10.953 5.981,-16.317 2.206,-5.354 4.622,-10.616 7.25,-15.786 2.611,-5.152 5.423,-10.199 8.435,-15.14 3.012,-4.942 6.209,-9.758 9.591,-14.449 3.394,-4.705 6.972,-9.273 10.732,-13.705 0.474,-0.558 0.951,-1.113 1.43,-1.666 0.282,-0.326 -0.195,-0.804 -0.48,-0.474 z"
       fill="#000000"
       id="path26" />
    <path
       d="m 155.75,143.031 c -0.208,-1.573 -0.686,-3.333 -2.152,-3.861 -1.199,-0.428 -2.825,0.093 -3.596,-0.917 -0.493,-0.645 -0.512,-1.802 -1.314,-1.929 -0.241,-0.009 -0.477,0.068 -0.667,0.216 -0.191,0.149 -0.322,0.36 -0.372,0.596 -0.086,0.475 -0.072,0.962 0.04,1.432 0.092,0.616 0.139,1.238 0.143,1.861 -0.1,0.084 -0.176,0.193 -0.219,0.316 -0.044,0.123 -0.055,0.255 -0.031,0.383 0.033,0.153 0.105,0.294 0.209,0.41 -0.267,3.558 -1.83,6.895 -4.393,9.376 -0.417,0.394 -0.681,0.922 -0.746,1.492 -0.065,0.569 0.072,1.144 0.389,1.622 0.489,0.731 1.039,1.318 1.735,1.18 0.68,-0.203 1.282,-0.61 1.722,-1.167 0.994,-1.056 1.894,-2.195 2.691,-3.405 0.347,-0.608 0.803,-1.148 1.344,-1.592 1.072,-0.013 2.123,-0.298 3.054,-0.828 0.638,-0.377 1.179,-0.898 1.579,-1.522 0.4,-0.623 0.648,-1.332 0.725,-2.069 0.046,-0.536 -0.002,-1.075 -0.141,-1.594 z"
       fill="#fcafb7"
       id="path28" />
    <path
       d="m 155.5,141.538 c -0.328,-0.532 -0.787,-0.972 -1.333,-1.276 -0.601,-0.282 -1.248,-0.454 -1.909,-0.508 -0.68,-0.103 -1.365,-0.165 -2.051,-0.184 -0.634,-0.044 -1.27,0.02 -1.882,0.189 -0.246,0.06 -0.473,0.182 -0.66,0.353 -0.188,0.171 -0.329,0.386 -0.411,0.626 -0.042,0.247 -0.012,0.502 0.087,0.732 0.098,0.231 0.261,0.428 0.469,0.568 0.581,0.397 1.227,0.688 1.909,0.86 l 0.025,0.006 c -0.206,0.051 -0.416,0.105 -0.615,0.167 -0.688,0.221 -1.639,0.526 -1.848,1.321 -0.209,0.796 0.552,1.22 1.174,1.457 0.429,0.162 0.869,0.295 1.316,0.398 -0.175,0.062 -0.353,0.115 -0.525,0.188 -0.591,0.169 -1.118,0.513 -1.509,0.987 -0.123,0.24 -0.159,0.514 -0.102,0.778 0.056,0.263 0.201,0.499 0.411,0.668 0.512,0.367 1.134,0.546 1.762,0.508 2.576,0.13 5.22,-0.973 6.158,-3.526 0.244,-0.709 0.329,-1.463 0.249,-2.208 -0.081,-0.745 -0.325,-1.464 -0.715,-2.104 z m -0.275,4.334 c -0.25,0.556 -0.608,1.058 -1.054,1.475 -0.445,0.418 -0.97,0.742 -1.542,0.955 -0.674,0.248 -1.385,0.383 -2.104,0.4 -0.652,0.098 -1.319,0.008 -1.922,-0.26 -0.86,-0.596 0.292,-1.096 0.78,-1.314 0.669,-0.292 1.371,-0.503 2.09,-0.629 0.406,-0.074 0.27,-0.645 -0.092,-0.676 -0.712,-0.061 -1.415,-0.198 -2.097,-0.409 -0.401,-0.124 -1.728,-0.422 -1.207,-1.058 0.514,-0.424 1.138,-0.693 1.8,-0.775 0.688,-0.169 1.393,-0.257 2.101,-0.264 0.089,-0.004 0.172,-0.042 0.233,-0.106 0.061,-0.064 0.095,-0.15 0.095,-0.238 0,-0.089 -0.034,-0.174 -0.095,-0.238 -0.061,-0.064 -0.144,-0.102 -0.233,-0.107 -1.184,-0.074 -2.34,-0.386 -3.401,-0.916 -0.319,-0.167 -0.869,-0.536 -0.584,-0.959 0.235,-0.347 0.8,-0.421 1.177,-0.46 1.065,-0.081 2.135,-0.025 3.186,0.167 0.506,0.026 0.999,0.169 1.441,0.416 0.442,0.247 0.821,0.592 1.109,1.009 0.364,0.591 0.582,1.261 0.637,1.953 0.055,0.693 -0.054,1.389 -0.32,2.03 z"
       fill="#000000"
       id="path30" />
    <path
       d="m 134.217,106.024 c 0.538,9.229 0.802,18.468 0.793,27.718 -0.011,9.192 -0.293,18.379 -0.848,27.56 -0.313,5.161 -0.711,10.317 -1.194,15.466 -0.04,0.431 0.648,0.428 0.689,0 0.863,-9.206 1.453,-18.431 1.771,-27.675 0.313,-9.186 0.355,-18.377 0.125,-27.571 -0.13,-5.167 -0.345,-10.334 -0.647,-15.5 -0.026,-0.43 -0.714,-0.433 -0.689,0 z"
       fill="#000000"
       id="path32" />
    <path
       d="m 147.29,149.29 c -1.277,3.721 -2.514,7.454 -3.676,11.212 -1.509,4.883 -2.92,9.793 -4.233,14.731 -0.167,0.626 -0.332,1.252 -0.494,1.879 -0.021,0.08 -0.01,0.165 0.032,0.237 0.041,0.072 0.109,0.124 0.189,0.146 0.08,0.022 0.165,0.011 0.238,-0.029 0.072,-0.041 0.125,-0.108 0.148,-0.188 1.287,-4.944 2.673,-9.861 4.158,-14.75 1.313,-4.325 2.706,-8.625 4.181,-12.901 -0.197,-0.083 -0.381,-0.197 -0.543,-0.337 z"
       fill="#000000"
       id="path34" />
    <path
       d="m 167.288,101.435 c -2.354,4.735 -4.612,9.512 -6.775,14.333 -2.143,4.782 -4.191,9.602 -6.142,14.461 -1.237,3.079 -2.417,6.177 -3.577,9.284 0.208,0.046 0.417,0.091 0.626,0.131 0.904,-2.428 1.832,-4.847 2.785,-7.258 1.939,-4.906 3.977,-9.773 6.113,-14.603 2.12,-4.786 4.334,-9.532 6.644,-14.235 0.295,-0.599 0.59,-1.197 0.887,-1.795 0.182,-0.364 -0.378,-0.685 -0.561,-0.318 z"
       fill="#000000"
       id="path36" />
    <path
       d="m 145.417,121.011 c -0.309,2.95 -0.744,5.886 -1.188,8.818 -0.603,3.988 -1.25,7.967 -1.922,11.943 -0.73,4.349 -1.48,8.695 -2.25,13.037 -0.716,4.047 -1.444,8.093 -2.184,12.137 -0.563,3.072 -1.134,6.143 -1.714,9.213 l -0.162,0.855 c -0.084,0.432 0.579,0.617 0.661,0.183 0.56,-2.931 1.107,-5.864 1.643,-8.8 0.732,-3.983 1.452,-7.967 2.16,-11.953 0.77,-4.343 1.525,-8.688 2.264,-13.035 0.686,-4.051 1.354,-8.105 1.979,-12.167 0.48,-3.115 0.948,-6.235 1.305,-9.366 0.034,-0.289 0.065,-0.577 0.095,-0.865 0.046,-0.439 -0.641,-0.436 -0.686,0 z"
       fill="#000000"
       id="path38" />
    <path
       d="m 230.005,97.2325 c -0.606,-1.8841 -1.689,-3.5795 -3.143,-4.9216 -1.532,-1.4125 -3.191,-2.3384 -3.911,-4.4109 -0.733,-2.1075 0,-4.3333 -0.569,-6.4891 -0.544,-2.0635 -1.797,-3.8697 -3.54,-5.1017 -1.624,-1.0685 -3.508,-1.6778 -5.451,-1.7633 -1.943,-0.0856 -3.873,0.3558 -5.585,1.2775 -1.731,0.9166 -3,2.2658 -5.079,2.3816 -2.264,0.1267 -4.024,-1.2608 -5.976,-2.1783 -4.178,-1.9841 -8.806,-2.8257 -13.415,-2.4389 -4.608,0.3867 -9.032,1.9879 -12.82,4.6406 -3.483,2.5055 -6.327,5.7967 -8.3,9.6066 -0.88,1.7075 -1.271,3.8292 -2.567,5.2842 -1.666,1.875 -4.224,1.6608 -6.341,2.7058 -1.879,0.9215 -3.398,2.4417 -4.318,4.321 -0.921,1.88 -1.19,4.012 -0.765,6.062 0.345,1.939 0.722,3.635 -0.046,5.558 -0.76,1.902 -2.465,3.237 -3.385,5.073 -0.894,1.73 -1.287,3.676 -1.135,5.618 0.152,1.941 0.843,3.802 1.995,5.372 2.702,3.678 6.733,4.527 11,3.743 5.232,-0.962 5.943,4.043 8.994,6.979 1.51,1.417 3.3,2.502 5.255,3.184 1.955,0.682 4.032,0.946 6.095,0.775 3.918,-0.29 7.627,-1.877 10.542,-4.51 1.53,-1.378 2.835,-2.986 3.87,-4.767 1.014,-1.73 1.524,-3.75 3.583,-4.507 2.19,-0.811 4.417,0.583 6.646,0.623 2.291,0.009 4.535,-0.643 6.464,-1.878 1.996,-1.281 3.671,-3.001 4.899,-5.03 1.244,-2.006 1.696,-4.194 2.628,-6.316 2.167,-4.928 7.77,-2.843 11.21,-6.237 1.597,-1.643 2.731,-3.679 3.286,-5.901 0.556,-2.223 0.514,-4.5532 -0.121,-6.7545 z m -0.878,6.7405 c -0.526,2.058 -1.603,3.933 -3.115,5.426 -1.733,1.625 -3.333,1.759 -5.557,2.055 -4.963,0.667 -5.436,4.744 -7.18,8.534 -1.634,3.548 -4.526,6.788 -8.341,7.981 -1.931,0.588 -3.992,0.597 -5.928,0.027 -2.097,-0.564 -4.167,-0.734 -5.935,0.803 -1.5,1.3 -2.094,3.519 -3.197,5.141 -1.2,1.786 -2.707,3.344 -4.452,4.604 -3.446,2.483 -7.723,3.527 -11.926,2.912 -1.833,-0.297 -3.586,-0.966 -5.151,-1.966 -1.564,-1 -2.907,-2.31 -3.946,-3.85 -1.116,-1.667 -1.702,-3.518 -3.583,-4.504 -1.995,-1.044 -3.717,-0.457 -5.788,-0.162 -1.861,0.238 -3.75,-0.094 -5.419,-0.951 -1.669,-0.857 -3.04,-2.2 -3.931,-3.85 -2.071,-3.734 -1.136,-7.926 1.388,-11.167 1.155,-1.485 2.142,-2.739 2.44,-4.667 0.354,-2.296 -0.676,-4.409 -0.544,-6.691 0.265,-4.6013 3.71,-6.8621 7.754,-7.8821 4.558,-1.1492 4.971,-5.3392 7.083,-8.8734 1.949,-3.2634 4.579,-6.0674 7.712,-8.22 3.591,-2.4009 7.738,-3.8414 12.044,-4.1841 4.306,-0.3427 8.628,0.4239 12.554,2.2266 2.077,0.9434 3.859,2.4025 6.243,2.4125 2.715,0.0117 4.207,-1.7616 6.507,-2.7975 4.054,-1.8258 9.26,-0.8108 11.678,3.095 1.288,2.0834 1.128,4.0117 1.148,6.3284 0.015,1.1428 0.286,2.2678 0.793,3.2919 0.508,1.024 1.239,1.921 2.139,2.6247 3.825,3.2467 5.96,7.1392 4.51,12.303 z"
       fill="#b5e6d2"
       id="path40" />
    <path
       d="m 202.471,147.979 c -2.501,4.304 -3.674,9.251 -3.372,14.22 -2.57,-3.431 -5.482,-6.593 -8.691,-9.436 -0.662,-0.583 -1.64,0.386 -0.975,0.975 3.793,3.347 7.163,7.145 10.035,11.31 0.087,0.14 0.221,0.243 0.377,0.293 0.157,0.05 0.326,0.042 0.478,-0.022 0.151,-0.064 0.275,-0.18 0.349,-0.327 0.074,-0.146 0.093,-0.315 0.054,-0.475 -0.894,-5.461 0.144,-11.063 2.934,-15.843 0.084,-0.157 0.104,-0.341 0.056,-0.512 -0.049,-0.172 -0.162,-0.318 -0.316,-0.408 -0.154,-0.09 -0.337,-0.117 -0.51,-0.075 -0.173,0.042 -0.323,0.15 -0.419,0.3 z"
       fill="#000000"
       id="path42" />
    <path
       d="m 223.652,142.592 c -0.176,-0.044 -0.362,-0.019 -0.52,0.071 -0.158,0.089 -0.275,0.236 -0.327,0.41 l -2.014,5.334 c -0.615,-0.738 -1.103,-1.573 -1.443,-2.471 -0.052,-0.174 -0.17,-0.32 -0.327,-0.41 -0.158,-0.089 -0.344,-0.115 -0.52,-0.071 -0.176,0.05 -0.324,0.167 -0.414,0.325 -0.09,0.159 -0.114,0.346 -0.067,0.522 0.539,1.467 1.406,2.792 2.533,3.874 0.087,0.082 0.193,0.141 0.308,0.171 0.116,0.03 0.237,0.029 0.353,-0.001 0.115,-0.031 0.221,-0.09 0.307,-0.173 0.086,-0.083 0.149,-0.187 0.183,-0.301 l 2.429,-6.432 c 0.047,-0.176 0.023,-0.364 -0.067,-0.523 -0.09,-0.158 -0.239,-0.275 -0.414,-0.325 z"
       fill="#000000"
       id="path44" />
    <path
       d="m 213.453,172.906 c -0.638,1.263 -1.106,2.606 -1.393,3.991 l -2.975,-5.583 c -0.417,-0.782 -1.606,-0.083 -1.189,0.695 l 3.932,7.38 c 0.079,0.127 0.197,0.225 0.336,0.279 0.138,0.055 0.291,0.064 0.435,0.025 0.144,-0.039 0.272,-0.124 0.364,-0.241 0.092,-0.117 0.145,-0.261 0.149,-0.41 0.146,-1.897 0.666,-3.747 1.53,-5.442 0.401,-0.788 -0.787,-1.485 -1.189,-0.694 z"
       fill="#000000"
       id="path46" />
    <path
       d="m 211.158,108.434 c -1.275,1.178 -2.272,2.623 -2.921,4.232 -0.833,-1.096 -1.527,-2.291 -2.069,-3.556 -0.092,-0.157 -0.243,-0.272 -0.419,-0.318 -0.176,-0.047 -0.364,-0.023 -0.522,0.068 -0.155,0.095 -0.267,0.246 -0.314,0.421 -0.046,0.176 -0.024,0.362 0.064,0.521 0.746,1.728 1.763,3.327 3.012,4.735 0.086,0.083 0.192,0.143 0.308,0.174 0.116,0.03 0.238,0.03 0.353,0 0.116,-0.031 0.222,-0.091 0.308,-0.175 0.086,-0.083 0.149,-0.188 0.182,-0.303 0.53,-1.855 1.565,-3.526 2.989,-4.828 0.656,-0.598 -0.32,-1.572 -0.971,-0.971 z"
       fill="#000000"
       id="path48" />
    <path
       d="m 172.41,164.66 c -0.13,-0.128 -0.305,-0.2 -0.487,-0.2 -0.182,0 -0.357,0.072 -0.487,0.2 -0.862,1.043 -1.487,2.261 -1.834,3.568 -0.647,-0.556 -1.17,-1.243 -1.533,-2.016 -0.093,-0.157 -0.243,-0.271 -0.419,-0.318 -0.177,-0.047 -0.364,-0.023 -0.523,0.068 -0.155,0.094 -0.267,0.245 -0.314,0.42 -0.047,0.176 -0.023,0.362 0.064,0.521 0.618,1.289 1.603,2.367 2.831,3.097 0.092,0.052 0.194,0.083 0.299,0.09 0.105,0.007 0.21,-0.01 0.307,-0.049 0.098,-0.04 0.185,-0.101 0.255,-0.18 0.071,-0.078 0.122,-0.171 0.151,-0.273 0.19,-1.448 0.774,-2.816 1.69,-3.954 0.124,-0.131 0.194,-0.306 0.194,-0.487 0,-0.181 -0.07,-0.355 -0.194,-0.487 z"
       fill="#000000"
       id="path50" />
    <path
       d="m 184.417,62.2783 c -0.176,-0.0443 -0.363,-0.0191 -0.52,0.0705 -0.158,0.0895 -0.276,0.2365 -0.328,0.4104 l -2.013,5.3333 c -0.616,-0.737 -1.104,-1.5722 -1.443,-2.4708 -0.053,-0.1733 -0.17,-0.3198 -0.328,-0.4093 -0.157,-0.0894 -0.343,-0.115 -0.519,-0.0716 -0.176,0.0498 -0.324,0.1667 -0.414,0.3252 -0.09,0.1586 -0.114,0.3462 -0.067,0.5223 0.539,1.4667 1.405,2.7913 2.533,3.8734 0.086,0.0824 0.192,0.1413 0.308,0.171 0.115,0.0298 0.237,0.0294 0.352,-0.0011 0.115,-0.0305 0.221,-0.0901 0.307,-0.1731 0.086,-0.083 0.149,-0.1866 0.183,-0.301 0.81,-2.1433 1.62,-4.2869 2.43,-6.4308 0.047,-0.1763 0.023,-0.3641 -0.067,-0.5228 -0.09,-0.1588 -0.239,-0.2758 -0.414,-0.3256 z"
       fill="#000000"
       id="path52" />
    <path
       d="m 173.027,47.8883 c -0.175,-0.0445 -0.362,-0.0193 -0.519,0.0703 -0.158,0.0896 -0.275,0.2367 -0.327,0.4106 l -4.028,10.6666 c -1.472,-1.5754 -2.618,-3.4265 -3.371,-5.4466 -0.053,-0.1734 -0.17,-0.32 -0.328,-0.4095 -0.157,-0.0895 -0.343,-0.115 -0.519,-0.0714 -0.175,0.0499 -0.324,0.1665 -0.414,0.3249 -0.09,0.1584 -0.114,0.3458 -0.067,0.5218 0.949,2.5848 2.479,4.9167 4.474,6.815 0.086,0.0824 0.192,0.1413 0.308,0.1711 0.115,0.0297 0.237,0.0293 0.352,-0.0012 0.115,-0.0305 0.221,-0.0901 0.307,-0.1731 0.086,-0.083 0.149,-0.1866 0.183,-0.301 1.477,-3.91 2.954,-7.82 4.431,-11.73 0.047,-0.1762 0.023,-0.3638 -0.067,-0.5223 -0.09,-0.1586 -0.239,-0.2753 -0.415,-0.3252 z"
       fill="#000000"
       id="path54" />
    <path
       d="m 162.172,181.239 c -0.4,-0.417 -0.836,-0.798 -1.303,-1.139 -0.047,-0.062 -0.111,-0.109 -0.184,-0.135 -1.512,-1.058 -3.283,-1.687 -5.124,-1.82 l -3.882,-0.261 -9.363,-0.629 -11.426,-0.768 -10.067,-0.676 c -1.76,-0.119 -3.521,-0.237 -5.282,-0.355 -2.085,-0.153 -4.167,0.339 -5.964,1.408 -1.796,1.069 -3.221,2.664 -4.082,4.569 -0.985,2.25 -0.929,4.821 -1.092,7.23 l -0.732,10.902 c -0.181,2.687 -0.362,5.373 -0.542,8.059 -0.138,1.588 0.084,3.187 0.651,4.678 0.946,2.383 2.756,4.323 5.068,5.432 1.912,0.903 3.91,0.964 5.963,1.103 l 8.322,0.559 11.278,0.758 10.674,0.718 6.768,0.454 c 0.546,0.037 1.095,0.083 1.642,0.078 2.53,-0.043 4.951,-1.035 6.784,-2.779 1.833,-1.744 2.944,-4.113 3.114,-6.638 0.045,-0.643 0.083,-1.286 0.129,-1.929 l 0.676,-10.046 0.649,-9.666 c 0.046,-0.691 0.117,-1.388 0.123,-2.084 0.009,-2.614 -0.994,-5.131 -2.798,-7.023 z m -44.275,-4.937 8.349,0.561 11.065,0.744 10.568,0.71 6.743,0.454 0.939,0.063 c 1.576,0.119 3.098,0.633 4.423,1.494 -6.518,5.567 -13.399,10.696 -20.597,15.351 -2,1.294 -4.028,2.551 -6.084,3.77 -6.328,-5.438 -12.394,-11.16 -18.199,-17.167 -1.611,-1.666 -3.199,-3.357 -4.763,-5.071 0.653,-0.352 1.345,-0.624 2.062,-0.812 1.815,-0.324 3.669,-0.357 5.494,-0.097 z m -13.834,27.667 0.723,-10.75 0.537,-7.974 c 0.067,-1.517 0.478,-2.998 1.201,-4.333 0.775,-1.365 1.876,-2.517 3.204,-3.353 4.561,4.985 9.308,9.791 14.241,14.417 -5.591,3.778 -10.985,7.826 -16.183,12.146 -1.333,1.11 -2.65,2.245 -3.957,3.389 0,-0.06 0,-0.12 0.009,-0.181 0.076,-1.121 0.151,-2.241 0.225,-3.36 z m 55.104,14.713 c -1.837,1.449 -4.145,2.166 -6.479,2.012 -1.384,-0.087 -2.766,-0.187 -4.15,-0.279 l -9.314,-0.626 -11.235,-0.755 -9.916,-0.667 -5.345,-0.359 c -1.441,-0.078 -2.847,-0.477 -4.115,-1.166 -1.111,-0.622 -2.087,-1.46 -2.868,-2.466 -0.781,-1.006 -1.352,-2.159 -1.679,-3.39 -0.206,-0.837 -0.298,-1.698 -0.275,-2.559 0.033,-0.014 0.064,-0.032 0.092,-0.054 5.069,-4.468 10.36,-8.678 15.852,-12.614 1.547,-1.108 3.109,-2.193 4.686,-3.256 0.021,-0.016 0.039,-0.035 0.056,-0.056 1.05,0.981 2.096,1.965 3.166,2.93 1.77,1.602 3.562,3.18 5.375,4.733 0.038,0.035 0.083,0.06 0.133,0.075 0.049,0.014 0.101,0.017 0.152,0.008 0.062,0.004 0.125,-0.012 0.179,-0.045 3.125,-1.856 6.195,-3.801 9.21,-5.833 l 0.006,0.007 c 5.56,3.792 10.49,8.416 15.47,12.922 1.517,1.372 3.043,2.733 4.578,4.083 -0.018,0.244 -0.031,0.487 -0.049,0.73 -0.104,1.287 -0.471,2.539 -1.078,3.678 -0.608,1.14 -1.442,2.142 -2.452,2.947 z m 5.09,-29.828 c -0.133,2.121 -0.285,4.24 -0.428,6.361 l -0.737,10.978 c -0.096,1.419 -0.191,2.837 -0.287,4.254 -5.12,-4.505 -10.032,-9.263 -15.383,-13.5 -1.339,-1.06 -2.712,-2.077 -4.118,-3.05 4.037,-2.737 7.968,-5.621 11.794,-8.654 1.849,-1.466 3.669,-2.968 5.46,-4.504 1.25,0.933 2.243,2.165 2.89,3.583 0.646,1.419 0.924,2.978 0.809,4.532 z"
       fill="#000000"
       id="path56" />
    <path
       d="m 59.5533,216.461 9.7334,-1.065 c 0.1809,-0.005 0.3531,-0.079 0.4811,-0.207 0.128,-0.128 0.2022,-0.301 0.2072,-0.482 -0.0011,-0.182 -0.074,-0.356 -0.2028,-0.485 -0.1289,-0.129 -0.3033,-0.202 -0.4855,-0.203 l -9.7334,1.064 c -0.1809,0.006 -0.3529,0.08 -0.4809,0.208 -0.128,0.128 -0.2022,0.3 -0.2074,0.481 0.0011,0.182 0.0739,0.356 0.2028,0.485 0.1288,0.129 0.3032,0.203 0.4855,0.204 z"
       fill="#000000"
       id="path58" />
    <path
       d="m 38.5175,181.383 16.5959,-1.262 c 0.8783,-0.067 0.8858,-1.444 0,-1.377 l -16.5959,1.262 c -0.8775,0.066 -0.885,1.444 0,1.377 z"
       fill="#000000"
       id="path60" />
    <path
       d="m 55.5258,166.11 16.1975,-0.262 c 0.1785,-0.006 0.3477,-0.081 0.4718,-0.21 0.1241,-0.128 0.1934,-0.3 0.1934,-0.478 0,-0.179 -0.0693,-0.351 -0.1934,-0.479 -0.1241,-0.129 -0.2933,-0.204 -0.4718,-0.21 l -16.1975,0.262 c -0.1767,0.009 -0.3433,0.085 -0.4652,0.214 -0.122,0.128 -0.1901,0.298 -0.1901,0.475 0,0.177 0.0681,0.347 0.1901,0.475 0.1219,0.128 0.2885,0.204 0.4652,0.213 z"
       fill="#000000"
       id="path62" />
    <path
       d="m 31.6383,125.147 7.2875,-0.405 c 0.8809,-0.049 0.8867,-1.426 0,-1.377 l -7.2875,0.405 c -0.8816,0.048 -0.8875,1.426 0,1.377 z"
       fill="#000000"
       id="path64" />
    <path
       d="M 58.7717,97.2892 71.3225,96.075 c 0.181,-0.0048 0.3533,-0.0789 0.4813,-0.2069 0.1281,-0.1281 0.2022,-0.3004 0.207,-0.4814 -0.0013,-0.1822 -0.0742,-0.3565 -0.203,-0.4853 -0.1288,-0.1288 -0.3032,-0.2017 -0.4853,-0.203 l -12.5508,1.2133 c -0.1812,0.0048 -0.3535,0.0789 -0.4817,0.2069 -0.1282,0.128 -0.2025,0.3003 -0.2075,0.4814 0.0013,0.1824 0.0743,0.3569 0.2033,0.4859 0.1289,0.1289 0.3035,0.202 0.4859,0.2033 z"
       fill="#000000"
       id="path66" />
    <path
       d="m 130.545,164.738 c -0.417,-3.913 -1.271,-7.766 -2.545,-11.488 -1.36,-4.159 -4.25,-8.241 -8.512,-9.217 -1.495,-0.269 -3.031,-0.227 -4.51,0.124 -1.478,0.351 -2.869,1.003 -4.084,1.916 0.05,0.031 0.101,0.058 0.15,0.09 0.817,0.511 1.465,1.252 1.86,2.13 0.797,1.875 0.084,3.584 -1.061,5.075 -0.973,1.265 -2.386,2.119 -3.959,2.392 -1.75,0.306 -3.534,0.575 -5.301,0.704 -1.096,1.857 -2.334,3.625 -3.7038,5.29 -1.3775,1.61 -2.97,3.041 -4.1992,4.768 -0.6616,0.83 -1.1531,1.783 -1.4464,2.804 -0.2933,1.02 -0.3825,2.089 -0.2627,3.144 0.4866,2.702 2.995,4.709 5.675,5.303 2.6801,0.593 5.4831,0.014 8.0831,-0.863 2.6,-0.877 5.108,-2.05 7.776,-2.693 4.438,-1.071 9.196,-0.644 13.255,-3.322 0.936,-0.717 1.68,-1.655 2.166,-2.729 0.486,-1.074 0.698,-2.252 0.619,-3.428 z"
       fill="#b7e9d4"
       id="path68" />
    <path
       d="m 112.296,148.405 c -0.368,-0.816 -0.969,-1.504 -1.728,-1.978 -2.541,-1.657 -5.661,-1.313 -8.333,-2.446 -2.7158,-1.153 -4.6066,-3.689 -5.8833,-6.349 -1.2767,-2.659 -2.07,-5.53 -3.3617,-8.182 -0.427,-0.916 -0.9712,-1.772 -1.6191,-2.547 -0.4525,0.276 -0.895,0.571 -1.3425,0.857 1.3733,5.943 -0.9167,6.054 -1.6867,5.853 -0.4896,-0.176 -0.9342,-0.458 -1.3023,-0.826 -0.3682,-0.368 -0.6508,-0.813 -0.8277,-1.302 -0.1267,-0.283 -0.2358,-0.573 -0.3408,-0.865 -1.6542,1.237 -3.2293,2.576 -4.7159,4.009 0.3297,2.103 0.8751,4.167 1.6275,6.159 1.6534,4.855 3.5917,10.063 7.8967,12.851 2.8333,1.834 6.3233,2.343 9.6978,2.428 2.436,-0.006 4.866,-0.25 7.255,-0.729 1.46,-0.253 2.772,-1.046 3.676,-2.221 1.067,-1.386 1.728,-2.971 0.988,-4.712 z"
       fill="#b7e9d4"
       id="path70" />
    <path
       d="m 129.005,117.175 c 0.223,3.265 0.36,6.536 0.478,9.807 0.15,4.152 0.263,8.306 0.339,12.46 0.089,4.477 0.15,8.953 0.182,13.43 0.03,4.222 0.03,8.447 0,12.676 -0.028,3.401 -0.076,6.803 -0.202,10.203 -0.012,0.343 -0.026,0.685 -0.04,1.027 -0.02,0.444 0.666,0.443 0.688,0 0.14,-3.269 0.194,-6.542 0.229,-9.815 0.044,-4.155 0.052,-8.31 0.023,-12.465 -0.024,-4.477 -0.078,-8.954 -0.16,-13.43 -0.078,-4.222 -0.185,-8.446 -0.322,-12.671 -0.114,-3.4 -0.25,-6.8 -0.46,-10.195 -0.022,-0.343 -0.044,-0.685 -0.068,-1.027 -0.03,-0.44 -0.719,-0.443 -0.688,0 z"
       fill="#000000"
       id="path72" />
    <path
       d="m 119.343,67.8533 c -0.116,0.007 -0.226,0.0584 -0.306,0.1436 -0.081,0.0851 -0.125,0.1977 -0.125,0.3147 0,0.117 0.044,0.2296 0.125,0.3148 0.08,0.0851 0.19,0.1365 0.306,0.1435 0.117,-0.007 0.227,-0.0584 0.307,-0.1435 0.08,-0.0852 0.125,-0.1978 0.125,-0.3148 0,-0.117 -0.045,-0.2296 -0.125,-0.3147 -0.08,-0.0852 -0.19,-0.1366 -0.307,-0.1436 z"
       fill="#000000"
       id="path74" />
    <path
       d="m 125.281,78.65 c -0.117,0.0071 -0.227,0.0584 -0.307,0.1436 -0.08,0.0852 -0.125,0.1978 -0.125,0.3148 0,0.117 0.045,0.2295 0.125,0.3147 0.08,0.0852 0.19,0.1366 0.307,0.1436 0.117,-0.007 0.226,-0.0584 0.307,-0.1436 0.08,-0.0852 0.124,-0.1977 0.124,-0.3147 0,-0.117 -0.044,-0.2296 -0.124,-0.3148 -0.081,-0.0852 -0.19,-0.1365 -0.307,-0.1436 z"
       fill="#000000"
       id="path76" />
    <path
       d="m 142.285,67.0441 c -0.117,0.007 -0.226,0.0584 -0.307,0.1435 -0.08,0.0852 -0.125,0.1978 -0.125,0.3148 0,0.117 0.045,0.2296 0.125,0.3148 0.081,0.0851 0.19,0.1365 0.307,0.1435 0.117,-0.007 0.226,-0.0584 0.307,-0.1435 0.08,-0.0852 0.125,-0.1978 0.125,-0.3148 0,-0.117 -0.045,-0.2296 -0.125,-0.3148 -0.081,-0.0851 -0.19,-0.1365 -0.307,-0.1435 z"
       fill="#000000"
       id="path78" />
    <path
       d="m 146.873,87.2867 c -0.116,0.0071 -0.226,0.0584 -0.306,0.1436 -0.081,0.0852 -0.125,0.1978 -0.125,0.3148 0,0.117 0.044,0.2295 0.125,0.3147 0.08,0.0852 0.19,0.1366 0.306,0.1436 0.117,-0.007 0.227,-0.0584 0.307,-0.1436 0.08,-0.0852 0.125,-0.1977 0.125,-0.3147 0,-0.117 -0.045,-0.2296 -0.125,-0.3148 -0.08,-0.0852 -0.19,-0.1365 -0.307,-0.1436 z"
       fill="#000000"
       id="path80" />
    <path
       d="m 153.352,76.2208 c -0.117,0.0071 -0.227,0.0584 -0.307,0.1436 -0.08,0.0852 -0.125,0.1978 -0.125,0.3148 0,0.1169 0.045,0.2295 0.125,0.3147 0.08,0.0852 0.19,0.1365 0.307,0.1436 0.116,-0.0071 0.226,-0.0584 0.306,-0.1436 0.081,-0.0852 0.125,-0.1978 0.125,-0.3147 0,-0.117 -0.044,-0.2296 -0.125,-0.3148 -0.08,-0.0852 -0.19,-0.1365 -0.306,-0.1436 z"
       fill="#000000"
       id="path82" />
    <path
       d="m 164.417,70.5525 c -0.117,0.007 -0.227,0.0584 -0.307,0.1436 -0.08,0.0852 -0.125,0.1977 -0.125,0.3147 0,0.117 0.045,0.2296 0.125,0.3148 0.08,0.0852 0.19,0.1365 0.307,0.1436 0.116,-0.0071 0.226,-0.0584 0.306,-0.1436 0.081,-0.0852 0.125,-0.1978 0.125,-0.3148 0,-0.117 -0.044,-0.2295 -0.125,-0.3147 -0.08,-0.0852 -0.19,-0.1366 -0.306,-0.1436 z"
       fill="#000000"
       id="path84" />
    <path
       d="m 151.192,53.5483 c -0.116,0.0071 -0.226,0.0584 -0.306,0.1436 -0.08,0.0852 -0.125,0.1978 -0.125,0.3148 0,0.117 0.045,0.2295 0.125,0.3147 0.08,0.0852 0.19,0.1366 0.306,0.1436 0.117,-0.007 0.227,-0.0584 0.307,-0.1436 0.08,-0.0852 0.125,-0.1977 0.125,-0.3147 0,-0.117 -0.045,-0.2296 -0.125,-0.3148 -0.08,-0.0852 -0.19,-0.1365 -0.307,-0.1436 z"
       fill="#000000"
       id="path86" />
    <path
       d="m 135.538,57.3275 c -0.117,0.0071 -0.227,0.0584 -0.307,0.1436 -0.08,0.0852 -0.125,0.1978 -0.125,0.3147 0,0.117 0.045,0.2296 0.125,0.3148 0.08,0.0852 0.19,0.1365 0.307,0.1436 0.116,-0.0071 0.226,-0.0584 0.306,-0.1436 0.08,-0.0852 0.125,-0.1978 0.125,-0.3148 0,-0.1169 -0.045,-0.2295 -0.125,-0.3147 -0.08,-0.0852 -0.19,-0.1365 -0.306,-0.1436 z"
       fill="#000000"
       id="path88" />
    <path
       d="m 148.223,34.925 c -0.116,0.0071 -0.226,0.0585 -0.306,0.1436 -0.081,0.0852 -0.125,0.1978 -0.125,0.3148 0,0.117 0.044,0.2296 0.125,0.3147 0.08,0.0852 0.19,0.1366 0.306,0.1436 0.117,-0.007 0.227,-0.0584 0.307,-0.1436 0.08,-0.0851 0.125,-0.1977 0.125,-0.3147 0,-0.117 -0.045,-0.2296 -0.125,-0.3148 -0.08,-0.0851 -0.19,-0.1365 -0.307,-0.1436 z"
       fill="#000000"
       id="path90" />
    <path
       d="m 161.718,39.2433 c -0.116,0.007 -0.226,0.0584 -0.306,0.1436 -0.081,0.0852 -0.125,0.1977 -0.125,0.3147 0,0.117 0.044,0.2296 0.125,0.3148 0.08,0.0852 0.19,0.1365 0.306,0.1436 0.117,-0.0071 0.227,-0.0584 0.307,-0.1436 0.08,-0.0852 0.125,-0.1978 0.125,-0.3148 0,-0.117 -0.045,-0.2295 -0.125,-0.3147 -0.08,-0.0852 -0.19,-0.1366 -0.307,-0.1436 z"
       fill="#000000"
       id="path92" />
    <path
       d="m 136.617,47.6108 c -0.116,0.0071 -0.226,0.0584 -0.306,0.1436 -0.08,0.0852 -0.125,0.1978 -0.125,0.3148 0,0.117 0.045,0.2295 0.125,0.3147 0.08,0.0852 0.19,0.1366 0.306,0.1436 0.117,-0.007 0.227,-0.0584 0.307,-0.1436 0.08,-0.0852 0.125,-0.1977 0.125,-0.3147 0,-0.117 -0.045,-0.2296 -0.125,-0.3148 -0.08,-0.0852 -0.19,-0.1365 -0.307,-0.1436 z"
       fill="#000000"
       id="path94" />
    <path
       d="m 175.484,84.5875 c -0.117,0.0071 -0.226,0.0584 -0.306,0.1436 -0.081,0.0852 -0.125,0.1978 -0.125,0.3148 0,0.1169 0.044,0.2295 0.125,0.3147 0.08,0.0852 0.189,0.1365 0.306,0.1436 0.117,-0.0071 0.227,-0.0584 0.307,-0.1436 0.08,-0.0852 0.125,-0.1978 0.125,-0.3147 0,-0.117 -0.045,-0.2296 -0.125,-0.3148 -0.08,-0.0852 -0.19,-0.1365 -0.307,-0.1436 z"
       fill="#000000"
       id="path96" />
    <path
       d="m 171.435,101.323 c -0.117,0.007 -0.226,0.058 -0.307,0.143 -0.08,0.085 -0.125,0.198 -0.125,0.315 0,0.117 0.045,0.229 0.125,0.315 0.081,0.085 0.19,0.136 0.307,0.143 0.117,-0.007 0.226,-0.058 0.307,-0.143 0.08,-0.086 0.125,-0.198 0.125,-0.315 0,-0.117 -0.045,-0.23 -0.125,-0.315 -0.081,-0.085 -0.19,-0.136 -0.307,-0.143 z"
       fill="#000000"
       id="path98" />
    <path
       d="m 158.21,101.052 c -0.117,0.008 -0.226,0.059 -0.307,0.144 -0.08,0.085 -0.124,0.198 -0.124,0.315 0,0.117 0.044,0.229 0.124,0.315 0.081,0.085 0.19,0.136 0.307,0.143 0.117,-0.007 0.226,-0.058 0.307,-0.143 0.08,-0.086 0.125,-0.198 0.125,-0.315 0,-0.117 -0.045,-0.23 -0.125,-0.315 -0.081,-0.085 -0.19,-0.136 -0.307,-0.144 z"
       fill="#000000"
       id="path100" />
    <path
       d="m 135,95.3842 c -0.117,0.007 -0.226,0.0584 -0.307,0.1435 -0.08,0.0852 -0.125,0.1978 -0.125,0.3148 0,0.117 0.045,0.2296 0.125,0.3148 0.081,0.0851 0.19,0.1365 0.307,0.1435 0.117,-0.007 0.226,-0.0584 0.307,-0.1435 0.08,-0.0852 0.125,-0.1978 0.125,-0.3148 0,-0.117 -0.045,-0.2296 -0.125,-0.3148 -0.081,-0.0851 -0.19,-0.1365 -0.307,-0.1435 z"
       fill="#000000"
       id="path102" />
    <path
       d="m 115.564,99.1666 c -0.117,0.0071 -0.226,0.0584 -0.306,0.1436 -0.081,0.0852 -0.125,0.1978 -0.125,0.3148 0,0.117 0.044,0.2295 0.125,0.3147 0.08,0.0853 0.189,0.1363 0.306,0.1433 0.117,-0.007 0.227,-0.058 0.307,-0.1433 0.08,-0.0852 0.125,-0.1977 0.125,-0.3147 0,-0.117 -0.045,-0.2296 -0.125,-0.3148 -0.08,-0.0852 -0.19,-0.1365 -0.307,-0.1436 z"
       fill="#000000"
       id="path104" />
    <path
       d="m 113.405,89.7158 c -0.117,0.0071 -0.226,0.0584 -0.307,0.1436 -0.08,0.0852 -0.125,0.1978 -0.125,0.3148 0,0.117 0.045,0.2295 0.125,0.3147 0.081,0.0852 0.19,0.1366 0.307,0.1436 0.117,-0.007 0.226,-0.0584 0.307,-0.1436 0.08,-0.0852 0.125,-0.1977 0.125,-0.3147 0,-0.117 -0.045,-0.2296 -0.125,-0.3148 -0.081,-0.0852 -0.19,-0.1365 -0.307,-0.1436 z"
       fill="#000000"
       id="path106" />
    <path
       d="m 85.8741,88.6366 c -0.1167,0.007 -0.2264,0.0584 -0.3066,0.1436 -0.0802,0.0852 -0.1249,0.1977 -0.1249,0.3147 0,0.117 0.0447,0.2296 0.1249,0.3148 0.0802,0.0852 0.1899,0.1365 0.3066,0.1436 0.1168,-0.0071 0.2265,-0.0584 0.3067,-0.1436 0.0802,-0.0852 0.1249,-0.1978 0.1249,-0.3148 0,-0.117 -0.0447,-0.2295 -0.1249,-0.3147 -0.0802,-0.0852 -0.1899,-0.1366 -0.3067,-0.1436 z"
       fill="#000000"
       id="path108" />
    <path
       d="m 77.5075,63.8051 c -0.1168,0.007 -0.2265,0.0584 -0.3067,0.1435 -0.0802,0.0852 -0.1248,0.1978 -0.1248,0.3148 0,0.117 0.0446,0.2296 0.1248,0.3147 0.0802,0.0852 0.1899,0.1366 0.3067,0.1436 0.1168,-0.007 0.2265,-0.0584 0.3067,-0.1436 0.0802,-0.0851 0.1248,-0.1977 0.1248,-0.3147 0,-0.117 -0.0446,-0.2296 -0.1248,-0.3148 -0.0802,-0.0851 -0.1899,-0.1365 -0.3067,-0.1435 z"
       fill="#000000"
       id="path110" />
    <path
       d="m 59.9633,77.0309 c -0.1167,0.007 -0.2264,0.0584 -0.3066,0.1436 -0.0802,0.0851 -0.1249,0.1977 -0.1249,0.3147 0,0.117 0.0447,0.2296 0.1249,0.3148 0.0802,0.0851 0.1899,0.1365 0.3066,0.1435 0.1168,-0.007 0.2265,-0.0584 0.3067,-0.1435 0.0802,-0.0852 0.1249,-0.1978 0.1249,-0.3148 0,-0.117 -0.0447,-0.2296 -0.1249,-0.3147 -0.0802,-0.0852 -0.1899,-0.1366 -0.3067,-0.1436 z"
       fill="#000000"
       id="path112" />
    <path
       d="m 32.4325,90.7958 c -0.1168,0.007 -0.2264,0.0584 -0.3066,0.1436 -0.0802,0.0851 -0.1249,0.1977 -0.1249,0.3147 0,0.117 0.0447,0.2296 0.1249,0.3148 0.0802,0.0851 0.1898,0.1365 0.3066,0.1435 0.1168,-0.007 0.2265,-0.0584 0.3067,-0.1435 0.0802,-0.0852 0.1248,-0.1978 0.1248,-0.3148 0,-0.117 -0.0446,-0.2296 -0.1248,-0.3147 -0.0802,-0.0852 -0.1899,-0.1366 -0.3067,-0.1436 z"
       fill="#000000"
       id="path114" />
    <path
       d="m 29.7333,64.885 c -0.1167,0.0071 -0.2264,0.0584 -0.3066,0.1436 -0.0802,0.0852 -0.1249,0.1978 -0.1249,0.3147 0,0.117 0.0447,0.2296 0.1249,0.3148 0.0802,0.0852 0.1899,0.1365 0.3066,0.1436 0.1168,-0.0071 0.2265,-0.0584 0.3067,-0.1436 0.0802,-0.0852 0.1249,-0.1978 0.1249,-0.3148 0,-0.1169 -0.0447,-0.2295 -0.1249,-0.3147 -0.0802,-0.0852 -0.1899,-0.1365 -0.3067,-0.1436 z"
       fill="#000000"
       id="path116" />
    <path
       d="m 48.6275,66.7742 c -0.1168,0.007 -0.2265,0.0584 -0.3067,0.1436 -0.0802,0.0851 -0.1248,0.1977 -0.1248,0.3147 0,0.117 0.0446,0.2296 0.1248,0.3148 0.0802,0.0851 0.1899,0.1365 0.3067,0.1435 0.1168,-0.007 0.2265,-0.0584 0.3067,-0.1435 0.0802,-0.0852 0.1248,-0.1978 0.1248,-0.3148 0,-0.117 -0.0446,-0.2296 -0.1248,-0.3147 -0.0802,-0.0852 -0.1899,-0.1366 -0.3067,-0.1436 z"
       fill="#000000"
       id="path118" />
    <path
       d="m 62.9325,43.2917 c -0.1168,0.0071 -0.2265,0.0585 -0.3067,0.1436 -0.0802,0.0852 -0.1248,0.1978 -0.1248,0.3148 0,0.117 0.0446,0.2296 0.1248,0.3147 0.0802,0.0852 0.1899,0.1366 0.3067,0.1436 0.1168,-0.007 0.2265,-0.0584 0.3067,-0.1436 0.0801,-0.0851 0.1248,-0.1977 0.1248,-0.3147 0,-0.117 -0.0447,-0.2296 -0.1248,-0.3148 -0.0802,-0.0851 -0.1899,-0.1365 -0.3067,-0.1436 z"
       fill="#000000"
       id="path120" />
    <path
       d="m 21.6367,80.8092 c -0.1168,0.007 -0.2265,0.0584 -0.3067,0.1436 -0.0802,0.0852 -0.1249,0.1977 -0.1249,0.3147 0,0.117 0.0447,0.2296 0.1249,0.3148 0.0802,0.0852 0.1899,0.1365 0.3067,0.1436 0.1167,-0.0071 0.2264,-0.0584 0.3066,-0.1436 0.0802,-0.0852 0.1249,-0.1978 0.1249,-0.3148 0,-0.117 -0.0447,-0.2295 -0.1249,-0.3147 -0.0802,-0.0852 -0.1899,-0.1366 -0.3066,-0.1436 z"
       fill="#000000"
       id="path122" />
    <path
       d="m 96.9408,108.88 c -0.1168,0.007 -0.2264,0.058 -0.3066,0.144 -0.0802,0.085 -0.1249,0.197 -0.1249,0.314 0,0.117 0.0447,0.23 0.1249,0.315 0.0802,0.085 0.1898,0.137 0.3066,0.144 0.1168,-0.007 0.2265,-0.059 0.3067,-0.144 0.0802,-0.085 0.1248,-0.198 0.1248,-0.315 0,-0.117 -0.0446,-0.229 -0.1248,-0.314 -0.0802,-0.086 -0.1899,-0.137 -0.3067,-0.144 z"
       fill="#000000"
       id="path124" />
    <path
       d="m 192.488,111.039 c -0.116,0.007 -0.226,0.058 -0.306,0.144 -0.081,0.085 -0.125,0.197 -0.125,0.314 0,0.117 0.044,0.23 0.125,0.315 0.08,0.085 0.19,0.137 0.306,0.144 0.117,-0.007 0.227,-0.059 0.307,-0.144 0.08,-0.085 0.125,-0.198 0.125,-0.315 0,-0.117 -0.045,-0.229 -0.125,-0.314 -0.08,-0.086 -0.19,-0.137 -0.307,-0.144 z"
       fill="#000000"
       id="path126" />
    <path
       d="m 211.382,86.75 c -0.117,0.007 -0.227,0.0584 -0.307,0.1436 -0.08,0.0852 -0.125,0.1977 -0.125,0.3147 0,0.117 0.045,0.2296 0.125,0.3148 0.08,0.0852 0.19,0.1365 0.307,0.1436 0.116,-0.0071 0.226,-0.0584 0.306,-0.1436 0.081,-0.0852 0.125,-0.1978 0.125,-0.3148 0,-0.117 -0.044,-0.2295 -0.125,-0.3147 -0.08,-0.0852 -0.19,-0.1366 -0.306,-0.1436 z"
       fill="#000000"
       id="path128" />
    <path
       d="m 226.5,61.3759 c -0.117,0.007 -0.226,0.0584 -0.307,0.1435 -0.08,0.0852 -0.125,0.1978 -0.125,0.3148 0,0.117 0.045,0.2296 0.125,0.3147 0.081,0.0852 0.19,0.1366 0.307,0.1436 0.117,-0.007 0.226,-0.0584 0.307,-0.1436 0.08,-0.0851 0.124,-0.1977 0.124,-0.3147 0,-0.117 -0.044,-0.2296 -0.124,-0.3148 -0.081,-0.0851 -0.19,-0.1365 -0.307,-0.1435 z"
       fill="#000000"
       id="path130" />
    <path
       d="m 245.39,89.1768 c -0.117,0.007 -0.226,0.0584 -0.307,0.1435 -0.08,0.0852 -0.125,0.1978 -0.125,0.3148 0,0.117 0.045,0.2296 0.125,0.3147 0.081,0.0852 0.19,0.1366 0.307,0.1436 0.117,-0.007 0.226,-0.0584 0.307,-0.1436 0.08,-0.0851 0.125,-0.1977 0.125,-0.3147 0,-0.117 -0.045,-0.2296 -0.125,-0.3148 -0.081,-0.0851 -0.19,-0.1365 -0.307,-0.1435 z"
       fill="#000000"
       id="path132" />
    <path
       d="m 239.452,97.2733 c -0.117,0.0071 -0.227,0.0584 -0.307,0.1436 -0.08,0.0852 -0.125,0.1978 -0.125,0.3148 0,0.1169 0.045,0.2295 0.125,0.3147 0.08,0.0852 0.19,0.1365 0.307,0.1436 0.116,-0.0071 0.226,-0.0584 0.306,-0.1436 0.081,-0.0852 0.125,-0.1978 0.125,-0.3147 0,-0.117 -0.044,-0.2296 -0.125,-0.3148 -0.08,-0.0852 -0.19,-0.1365 -0.306,-0.1436 z"
       fill="#000000"
       id="path134" />
    <path
       d="m 235.403,79.1899 c -0.116,0.0071 -0.226,0.0584 -0.306,0.1436 -0.081,0.0852 -0.125,0.1978 -0.125,0.3148 0,0.117 0.044,0.2295 0.125,0.3147 0.08,0.0852 0.19,0.1366 0.306,0.1436 0.117,-0.007 0.227,-0.0584 0.307,-0.1436 0.08,-0.0852 0.125,-0.1977 0.125,-0.3147 0,-0.117 -0.045,-0.2296 -0.125,-0.3148 -0.08,-0.0852 -0.19,-0.1365 -0.307,-0.1436 z"
       fill="#000000"
       id="path136" />
    <path
       d="m 187.36,88.0967 c -0.117,0.007 -0.226,0.0584 -0.307,0.1436 -0.08,0.0851 -0.125,0.1977 -0.125,0.3147 0,0.117 0.045,0.2296 0.125,0.3148 0.081,0.0851 0.19,0.1365 0.307,0.1435 0.117,-0.007 0.226,-0.0584 0.307,-0.1435 0.08,-0.0852 0.124,-0.1978 0.124,-0.3148 0,-0.117 -0.044,-0.2296 -0.124,-0.3147 -0.081,-0.0852 -0.19,-0.1366 -0.307,-0.1436 z"
       fill="#000000"
       id="path138" />
  </g>
</svg>
