<svg width="592" height="587" viewBox="0 0 592 587" fill="none" xmlns="http://www.w3.org/2000/svg">
<path d="M296.645 55.9782C295.774 55.8287 294.878 55.948 294.078 56.3199C293.277 56.6918 292.611 57.2985 292.169 58.0582C290.948 59.7835 289.637 61.4437 288.24 63.032C286.716 64.6276 284.963 65.9904 283.037 67.0765C281.067 68.1683 278.462 69.1955 276.352 67.8728C275.922 67.6191 275.565 67.2602 275.314 66.8304C275.062 66.4006 274.926 65.9141 274.918 65.4172C274.974 64.9493 274.923 64.4749 274.768 64.0293C274.614 63.5838 274.36 63.1787 274.026 62.8442C273.748 62.599 273.396 62.4522 273.025 62.4267C272.655 62.4012 272.286 62.4985 271.977 62.7033C271.141 63.3334 271.218 64.6267 271.104 65.5561C270.942 67.8698 271.22 70.193 271.924 72.4045C272.356 73.7279 272.636 75.0959 272.757 76.4822C272.719 77.1329 272.634 77.7802 272.505 78.4193C272.421 79.1723 272.296 79.9202 272.13 80.6596C271.41 83.4036 270.414 86.0689 269.157 88.6155C268.974 89.0185 269.079 89.6662 269.624 89.7523L276.758 90.8715C276.957 90.9176 277.166 90.8876 277.344 90.7875C277.522 90.6875 277.655 90.5247 277.718 90.3315C278.595 87.849 279.982 85.5744 281.79 83.6514C282.648 82.8808 283.618 82.2435 284.668 81.7613C285.959 81.0764 287.251 80.4757 288.609 79.9063C291.016 78.9928 293.199 77.5807 295.014 75.7639C296.829 73.9472 298.234 71.7674 299.135 69.3697C300.164 66.3971 300.368 63.2043 299.726 60.1264C299.619 59.2289 299.279 58.3745 298.738 57.6472C298.198 56.9199 297.477 56.3448 296.645 55.9782ZM293.396 75.2377C291.376 76.89 289.087 78.1889 286.629 79.0787C284.365 79.8959 282.284 81.1456 280.503 82.7572C278.767 84.6614 277.408 86.874 276.498 89.2788L270.952 88.41C271.781 86.6469 272.504 84.8372 273.119 82.99C273.456 81.9419 273.716 80.8707 273.896 79.785C274.101 78.8068 274.245 77.8167 274.325 76.8207C274.147 74.5313 273.692 72.2715 272.972 70.0897C272.69 69.0295 272.537 67.9398 272.515 66.8436C272.53 66.3114 272.647 65.7635 272.712 65.2352C272.753 64.8928 272.68 63.8519 273.088 64.0906C273.59 64.3841 273.372 66.1334 273.539 66.6832C273.806 67.5163 274.315 68.2523 275.003 68.7983C275.73 69.3523 276.573 69.7362 277.47 69.9215C278.368 70.1068 279.295 70.0888 280.184 69.8686C284.166 68.725 287.687 66.3745 290.258 63.1455C290.986 62.3128 291.67 61.4436 292.309 60.5412C292.856 59.6534 293.504 58.8308 294.239 58.0895C296.31 56.2483 297.799 58.6511 298.229 60.5451C298.76 63.2002 298.595 65.9464 297.749 68.5196C296.902 71.0928 295.403 73.4063 293.396 75.2377Z" fill="black"/>
<path d="M308.942 64.2197C308.133 70.673 305.191 76.6773 300.577 81.2917C300.465 81.4423 300.41 81.6281 300.424 81.8152C300.438 82.0022 300.519 82.1782 300.652 82.3109C300.786 82.4437 300.963 82.5244 301.151 82.5385C301.34 82.5525 301.527 82.4989 301.679 82.3874C306.572 77.4746 309.677 71.0816 310.501 64.2197C310.621 63.2316 309.061 63.2394 308.942 64.2197Z" fill="black"/>
<path d="M312.658 78.39C310.128 81.7812 306.886 84.5853 303.156 86.608C302.277 87.0873 303.063 88.4257 303.944 87.9444C307.9 85.7805 311.333 82.7857 314.004 79.1687C314.605 78.3704 313.247 77.5956 312.658 78.39Z" fill="black"/>
<path d="M211.281 231.327C210.855 230.192 210.372 229.073 209.878 227.967C208.858 225.683 207.712 223.457 206.444 221.299C203.92 217.014 200.937 213.012 197.547 209.363C194.82 206.428 190.391 202.492 186.087 204.822C182.201 206.925 185.852 211.966 185.783 215.024C185.852 220.084 184.686 225.013 184.355 230.041C183.945 234.451 184.568 238.895 186.175 243.026C187.765 246.792 190.846 250.61 195.041 251.557C199.235 252.504 202.395 249.637 203.696 245.902C205.167 241.674 203.995 237.123 204.728 232.826C205.129 233.93 205.931 234.845 206.978 235.391C207.552 235.777 208.243 235.957 208.934 235.9C209.626 235.843 210.277 235.554 210.78 235.079C211.283 234.604 211.607 233.972 211.699 233.289C211.791 232.606 211.644 231.912 211.285 231.323L211.281 231.327ZM208.609 234.197C206.42 234.221 205.814 231.483 205.423 229.828C205.226 229.01 204.184 229.184 203.92 229.828C202.147 234.117 203.459 238.664 202.781 243.094C202.263 246.489 200.22 250.594 196.146 250.185C191.989 249.767 188.886 245.704 187.466 242.126C186.091 238.372 185.553 234.366 185.89 230.386C186.189 225.244 187.41 220.211 187.34 215.038C187.266 213.641 186.975 212.263 186.479 210.954C185.926 209.739 185.763 208.384 186.012 207.074C186.654 205.462 189.121 205.579 190.466 205.998C192.254 206.648 193.857 207.717 195.139 209.115C200.907 214.959 205.535 221.813 208.79 229.331C209.343 230.396 209.778 231.517 210.087 232.675C210.27 233.671 209.547 234.186 208.611 234.197H208.609Z" fill="black"/>
<path d="M62.6456 291.117L59.1467 277.316C57.9803 272.722 56.9303 268.079 55.6457 263.516C55.2517 262.117 53.8982 261.197 52.6196 262.354C51.077 263.747 52.4817 265.911 51.4592 267.543C49.0162 271.435 43.2969 269.085 40.2136 267.404C38.4834 266.455 36.8606 265.325 35.373 264.033C33.9092 262.767 32.6621 261.33 31.3303 259.937C30.8014 259.239 30.1203 258.668 29.338 258.268C28.5557 257.868 27.6924 257.649 26.8128 257.626C26.1043 257.725 25.4348 258.009 24.8727 258.449C24.3106 258.888 23.876 259.468 23.6133 260.129C22.3785 263.705 22.4961 267.606 23.9442 271.102C24.9431 273.904 26.5689 276.446 28.6993 278.534C30.8297 280.622 33.4092 282.204 36.2438 283.159C38.6194 283.776 40.9595 284.52 43.2536 285.39C45.0833 286.263 46.6723 287.563 47.8843 289.181C49.0964 290.798 49.8951 292.683 50.2121 294.674C50.2691 294.871 50.4015 295.038 50.5809 295.138C50.7602 295.239 50.9723 295.267 51.1716 295.214L62.0999 292.066C62.2784 292.017 62.4309 291.901 62.5255 291.743L62.553 291.708C62.569 291.677 62.5822 291.645 62.5924 291.612C62.6694 291.458 62.6883 291.283 62.6456 291.117ZM51.5557 293.5C50.8923 290.552 49.2802 287.899 46.9633 285.941C43.9707 283.437 40.2471 282.895 36.6575 281.672C33.0711 280.427 29.963 278.105 27.7637 275.028C25.5643 271.951 24.3824 268.272 24.3816 264.498C24.2324 262.876 24.6559 261.252 25.5795 259.906C26.9408 258.358 28.7868 259.599 29.9236 260.728C31.216 262.009 32.3587 263.412 33.7122 264.641C35.0106 265.823 36.4078 266.893 37.8889 267.84C40.9091 269.762 44.8632 271.683 48.5454 271.079C50.1619 270.83 51.6141 269.957 52.5861 268.65C53.0277 268.05 53.3194 267.354 53.4372 266.619C53.4924 266.194 53.4983 265.764 53.4549 265.338C53.4155 264.864 53.1929 264.07 53.5278 263.657C54.0204 263.046 54.1346 263.911 54.2312 264.285C54.3809 264.872 54.5267 265.449 54.6745 266.032L55.6044 269.701C56.2099 272.088 56.8153 274.475 57.4208 276.862C58.6029 281.506 59.7804 286.15 60.9533 290.794L51.5557 293.5Z" fill="black"/>
<path d="M227.946 86.428C225.277 74.3925 227.899 60.6861 220.854 50.5427C215.091 42.2464 203.794 38.8027 193.837 40.7594C183.88 42.716 175.302 49.2865 169.193 57.3304C163.083 65.3742 162.155 74.3142 156.929 82.9627C154.635 86.7508 148.469 92.2177 147.366 97.8784C146.754 100.706 146.857 103.641 147.667 106.42C148.476 109.198 149.966 111.735 152.003 113.802C156.178 117.701 162.183 118.819 167.833 119.77C184.296 122.538 201.657 125.235 217.323 119.496C222.916 117.447 228.478 113.947 230.572 108.401C233.224 101.369 229.572 93.7557 227.946 86.428ZM188.086 104.85C187.986 105.828 186.426 105.842 186.526 104.85C187.282 97.2998 186.841 89.6787 185.22 82.2642C185.293 82.2113 185.381 82.1839 185.452 82.1292C185.994 82.88 186.586 83.5933 187.225 84.2639C188.481 91.052 188.771 97.9818 188.086 104.85ZM207.995 107.225C207.699 108.176 206.194 107.767 206.489 106.813C208.18 101.299 209.071 95.5743 209.137 89.811C209.675 89.6428 210.209 89.4588 210.737 89.2534C210.712 95.345 209.788 101.4 207.995 107.225ZM221.589 75.3317C220.936 78.7138 219.143 81.7743 216.506 84.0095C213.773 86.4225 210.452 88.0844 206.874 88.8305C203.295 89.5767 199.582 89.3811 196.103 88.2633C192.053 86.8454 188.589 84.136 186.252 80.558C186.191 80.4572 186.107 80.3715 186.008 80.3072C185.909 80.2429 185.796 80.2017 185.678 80.1866C185.561 80.1716 185.441 80.1831 185.329 80.2203C185.216 80.2575 185.114 80.3194 185.029 80.4014C184.311 81.1745 183.335 81.6628 182.282 81.7758C181.229 81.8888 180.171 81.6188 179.303 81.0158C178.477 80.3946 177.812 79.5863 177.364 78.6581C176.916 77.7299 176.698 76.7088 176.728 75.68C177.085 74.47 177.864 73.4258 178.926 72.7348C179.988 72.0438 181.263 71.7512 182.523 71.9095C182.655 71.9434 182.795 71.9423 182.927 71.9064C183.059 71.8706 183.179 71.8011 183.276 71.7049C183.373 71.6087 183.443 71.4891 183.479 71.3579C183.515 71.2267 183.516 71.0884 183.482 70.9566C183.36 70.3539 183.285 69.7415 183.208 69.131C190.45 65.9221 197.636 61.9618 202.368 55.4813C204.013 57.0114 205.697 58.5318 207.453 59.9249C209.246 61.4347 211.328 62.5694 213.574 63.261C216.214 63.9474 218.962 64.1188 221.667 63.7658C222.275 67.5999 222.246 71.507 221.581 75.3317H221.589Z" fill="black"/>
<path d="M195.857 68.679C194.287 68.2987 192.633 68.4883 191.192 69.2135C189.751 69.9387 188.619 71.1517 188 72.6334C187.606 73.5531 189.121 73.9522 189.503 73.0463C190.001 71.9553 190.866 71.0712 191.95 70.5464C193.034 70.0217 194.269 69.8892 195.441 70.1719C195.629 70.1954 195.819 70.1509 195.976 70.0466C196.134 69.9423 196.248 69.7852 196.299 69.604C196.349 69.4228 196.332 69.2296 196.251 69.0597C196.17 68.8899 196.03 68.7547 195.857 68.679Z" fill="black"/>
<path d="M216.535 65.3663C215.689 64.884 214.725 64.6416 213.75 64.6658C212.774 64.6899 211.824 64.9796 211.003 65.5033C210.162 66.0414 210.944 67.3817 211.791 66.8417C212.372 66.4532 213.05 66.2343 213.75 66.2097C214.45 66.1852 215.142 66.356 215.749 66.7027C215.924 66.772 216.119 66.7765 216.297 66.7155C216.475 66.6545 216.626 66.532 216.721 66.3703C216.816 66.2086 216.849 66.0183 216.815 65.8341C216.781 65.6499 216.682 65.4839 216.535 65.3663Z" fill="black"/>
<path d="M194.085 73.5707C194 73.4883 193.898 73.426 193.785 73.3886C193.672 73.3512 193.552 73.3396 193.435 73.3546C193.317 73.3697 193.204 73.411 193.104 73.4755C193.005 73.5401 192.921 73.6261 192.86 73.7272C192.743 73.9337 192.676 74.1639 192.663 74.4003C192.609 74.6002 192.605 74.81 192.651 75.0118C192.697 75.2136 192.792 75.4012 192.927 75.5586C192.947 75.5958 192.954 75.633 192.976 75.6682C193.054 75.7965 193.168 75.8987 193.305 75.9615C193.441 76.0243 193.594 76.0448 193.743 76.0204C193.918 76.0281 194.092 75.9781 194.236 75.878C194.38 75.7779 194.487 75.6333 194.54 75.4667C194.556 75.4099 194.556 75.3571 194.568 75.3023C194.598 75.2196 194.614 75.1321 194.613 75.044C194.637 74.7752 194.602 74.5045 194.511 74.2503C194.42 73.996 194.275 73.7642 194.085 73.5707Z" fill="black"/>
<path d="M213.182 70.7746C213.148 70.7198 213.099 70.667 213.06 70.6122C213.02 70.5574 213.02 70.5496 212.993 70.5241C212.965 70.4987 212.92 70.4146 212.873 70.3637C212.784 70.268 212.67 70.1997 212.543 70.1667C212.417 70.1338 212.284 70.1376 212.159 70.1778C212.128 70.1778 212.102 70.1602 212.071 70.1582C211.933 70.1569 211.798 70.1926 211.679 70.2615C211.561 70.3304 211.463 70.43 211.397 70.5496C211.293 70.7743 211.242 71.0191 211.245 71.2662C211.249 71.5133 211.308 71.7564 211.419 71.9779C211.427 72.0813 211.456 72.182 211.505 72.2739C211.553 72.3658 211.619 72.4471 211.7 72.5129C211.781 72.5786 211.874 72.6275 211.974 72.6567C212.075 72.6858 212.18 72.6945 212.284 72.6823C212.321 72.6941 212.343 72.7215 212.382 72.7313C212.582 72.7837 212.794 72.7563 212.973 72.655C213.153 72.5536 213.285 72.3864 213.342 72.1893C213.405 71.9441 213.421 71.6891 213.389 71.4379C213.381 71.2023 213.31 70.9731 213.182 70.7746Z" fill="black"/>
<path d="M207.242 72.6217C207.792 73.8603 208.071 75.9852 206.279 76.3276C205.294 76.5233 205.711 78.0084 206.694 77.8206C207.515 77.605 208.227 77.0972 208.694 76.3939C209.162 75.6906 209.352 74.841 209.23 74.007C209.033 71.8136 207.344 70.1739 206.854 68.0764C206.627 67.098 205.122 67.5168 205.351 68.4873C205.847 69.9222 206.48 71.3067 207.242 72.6217Z" fill="black"/>
<path d="M210.623 77.8968C208.763 79.2865 206.502 80.0424 204.174 80.0519C201.847 80.0614 199.579 79.3241 197.708 77.9496C197.59 77.8837 197.456 77.8495 197.319 77.8503C197.183 77.8511 197.05 77.887 196.931 77.9544C196.813 78.0218 196.715 78.1184 196.646 78.2349C196.576 78.3513 196.539 78.4836 196.536 78.6188C196.537 80.7718 197.337 82.849 198.783 84.4527C200.23 86.0564 202.221 87.0739 204.375 87.3103C205.361 87.4336 205.361 85.8839 204.375 85.7607C202.89 85.569 201.502 84.92 200.406 83.9047C199.311 82.8895 198.563 81.559 198.268 80.1C200.315 81.2121 202.639 81.7213 204.967 81.5682C207.295 81.415 209.531 80.6057 211.413 79.2352C212.207 78.658 211.431 77.3039 210.623 77.8968Z" fill="black"/>
<path d="M115.173 292.772C116.566 292.772 117.695 291.651 117.695 290.268C117.695 288.884 116.566 287.763 115.173 287.763C113.781 287.763 112.652 288.884 112.652 290.268C112.652 291.651 113.781 292.772 115.173 292.772Z" fill="black"/>
<path d="M137.942 287.004C139.335 287.004 140.464 285.883 140.464 284.499C140.464 283.116 139.335 281.995 137.942 281.995C136.55 281.995 135.421 283.116 135.421 284.499C135.421 285.883 136.55 287.004 137.942 287.004Z" fill="black"/>
<path d="M114.47 279.58C113.072 279.933 111.807 280.68 110.827 281.733C109.848 282.785 109.197 284.097 108.954 285.509C108.804 286.487 110.307 286.904 110.459 285.92C110.633 284.769 111.146 283.696 111.933 282.833C112.719 281.971 113.744 281.359 114.88 281.073C115.869 280.887 115.451 279.394 114.47 279.58Z" fill="black"/>
<path d="M142.576 276.319C139.603 275.035 136.756 274.213 133.691 275.712C132.79 276.152 133.579 277.489 134.479 277.048C135.663 276.589 136.938 276.405 138.206 276.51C139.473 276.616 140.699 277.008 141.79 277.657C142.7 278.042 143.494 276.716 142.576 276.319Z" fill="black"/>
<path d="M136.92 291.766C131.403 293.179 125.993 294.897 120.491 296.333C120.376 296.366 120.271 296.424 120.182 296.503C120.094 296.582 120.024 296.681 119.979 296.79C119.934 296.9 119.915 297.018 119.923 297.136C119.93 297.254 119.965 297.369 120.024 297.472C120.92 298.992 122.175 300.272 123.681 301.201C125.187 302.131 126.898 302.682 128.667 302.808C129.973 302.858 131.273 302.602 132.46 302.059C133.648 301.517 134.69 300.704 135.501 299.687C137.025 297.597 137.865 295.092 137.907 292.512C137.905 292.393 137.876 292.277 137.822 292.171C137.768 292.065 137.691 291.973 137.596 291.901C137.501 291.829 137.391 291.779 137.273 291.756C137.156 291.733 137.035 291.736 136.92 291.766ZM134.441 298.527C133.781 299.421 132.908 300.139 131.901 300.617C130.893 301.095 129.782 301.318 128.667 301.266C127.345 301.171 126.059 300.788 124.902 300.146C123.745 299.504 122.743 298.617 121.968 297.548C126.74 296.277 131.463 294.827 136.238 293.565C136.072 295.343 135.454 297.05 134.441 298.527Z" fill="black"/>
<path d="M109.809 521.976C99.3714 515.021 89.8267 506.829 81.3856 497.58C79.7172 495.519 77.833 493.639 75.7648 491.972C74.9348 491.253 73.868 490.86 72.7662 490.869C71.7221 490.958 70.7195 491.317 69.8577 491.909C68.9959 492.501 68.3048 493.307 67.8527 494.246C65.1911 499.881 68.8378 507.651 73.2509 513.617C79.5829 522.189 99.239 533.986 99.239 533.986L109.809 521.976Z" fill="black"/>
<path d="M463.892 291.453C465.196 291.156 464.644 289.164 463.338 289.461C461.22 289.945 458.413 290.244 458.096 287.425C457.814 284.93 459.069 282.552 458.23 280.069C457.806 278.817 455.798 279.353 456.226 280.619C457.211 283.515 455.131 286.554 456.537 289.454C457.92 292.306 461.266 292.052 463.892 291.453Z" fill="black"/>
<path d="M455.32 280.478C455.325 280.399 455.321 280.32 455.306 280.242C455.306 280.228 455.306 280.218 455.306 280.204C455.285 280.149 455.259 280.095 455.229 280.044C455.214 280.005 455.196 279.967 455.176 279.93C455.048 279.617 454.814 279.358 454.514 279.197C454.215 279.036 453.869 278.984 453.535 279.049C453.201 279.114 452.899 279.292 452.683 279.553C452.467 279.814 452.348 280.141 452.348 280.479C452.348 280.817 452.467 281.145 452.683 281.406C452.899 281.667 453.201 281.845 453.535 281.91C453.869 281.975 454.215 281.922 454.514 281.761C454.814 281.601 455.048 281.341 455.176 281.028C455.198 280.99 455.218 280.95 455.235 280.909C455.262 280.858 455.286 280.806 455.308 280.752C455.308 280.739 455.308 280.729 455.308 280.715C455.322 280.637 455.326 280.557 455.32 280.478Z" fill="black"/>
<path d="M477.326 280.471C477.33 280.392 477.325 280.313 477.31 280.236C477.31 280.222 477.31 280.21 477.31 280.197C477.293 280.136 477.255 280.093 477.234 280.036C477.217 279.998 477.199 279.96 477.178 279.923C477.05 279.61 476.816 279.351 476.517 279.19C476.217 279.029 475.871 278.977 475.537 279.042C475.203 279.107 474.902 279.285 474.686 279.546C474.47 279.807 474.351 280.135 474.351 280.473C474.351 280.811 474.47 281.138 474.686 281.399C474.902 281.66 475.203 281.838 475.537 281.903C475.871 281.968 476.217 281.916 476.517 281.755C476.816 281.594 477.05 281.335 477.178 281.022C477.204 280.985 477.216 280.94 477.237 280.901C477.259 280.862 477.295 280.805 477.312 280.747C477.311 280.734 477.311 280.722 477.312 280.709C477.326 280.631 477.331 280.55 477.326 280.471Z" fill="black"/>
<path d="M468.159 272.63C467.29 273.634 468.75 275.101 469.629 274.09C470.483 273.112 471.674 272.485 472.968 272.332C474.262 272.179 475.567 272.511 476.629 273.262C477.718 274.045 478.759 272.247 477.679 271.48C476.22 270.495 474.452 270.07 472.702 270.281C470.951 270.493 469.337 271.327 468.159 272.63Z" fill="black"/>
<path d="M456.76 271.493C458.043 271.885 458.59 269.893 457.314 269.503C455.825 269.059 454.238 269.056 452.747 269.495C451.257 269.935 449.928 270.797 448.925 271.977C448.08 272.994 449.543 274.462 450.394 273.436C451.139 272.518 452.143 271.842 453.277 271.496C454.412 271.149 455.625 271.149 456.76 271.493Z" fill="black"/>
<path d="M516.644 271.079C514.84 266.655 512.166 262.634 508.777 259.25C510.138 257.11 510.816 254.611 510.721 252.081C510.626 249.551 509.763 247.109 508.246 245.075C506.729 243.041 504.627 241.51 502.218 240.683C499.809 239.856 497.204 239.771 494.746 240.441C493.487 236.076 491.231 232.058 488.152 228.701C486.599 227.04 484.677 225.762 482.539 224.969C480.401 224.176 478.106 223.889 475.837 224.132C473.576 224.457 471.5 225.552 469.962 227.229C468.425 228.907 467.522 231.063 467.408 233.329C461.555 231.66 455.303 232.031 449.691 234.38C444.079 236.73 439.446 240.916 436.562 246.243C434.947 249.065 434.375 252.358 434.945 255.554C435.271 257.135 436.108 258.566 437.33 259.629C438.551 260.693 440.09 261.33 441.71 261.444C438.765 262.919 436.358 265.273 434.827 268.175C433.296 271.077 432.717 274.382 433.172 277.627C433.627 280.871 435.092 283.894 437.363 286.27C439.634 288.646 442.596 290.258 445.835 290.878C446.032 291.483 446.229 292.083 446.452 292.674C447.372 295.105 448.605 297.407 450.121 299.523C449.912 299.498 449.7 299.543 449.52 299.65C444.885 302.384 440.639 305.722 436.897 309.576C435.967 310.533 437.437 311.994 438.367 311.036C441.983 307.307 446.087 304.078 450.57 301.434C450.702 301.361 450.815 301.258 450.898 301.133C450.982 301.008 451.035 300.865 451.052 300.716C452.417 302.414 454.013 303.915 455.795 305.175C459.911 308.063 465.012 309.211 469.979 308.367C473.616 307.707 477.009 306.094 479.807 303.694C474.502 310.559 467.681 316.122 459.869 319.954C458.669 320.541 459.721 322.322 460.919 321.737C470.223 317.156 478.138 310.209 483.859 301.603C486.5 303.207 489.636 303.805 492.687 303.285C495.893 302.566 498.723 300.705 500.64 298.054C502.557 295.402 503.428 292.145 503.09 288.898C505.326 289.769 507.797 289.838 510.08 289.095C512.362 288.351 514.312 286.841 515.594 284.824C516.805 282.761 517.529 280.452 517.711 278.071C517.893 275.69 517.528 273.299 516.644 271.079ZM488.865 280.594C488.026 290.516 482.758 301.691 472.816 305.443C470.715 306.254 468.472 306.636 466.219 306.567C463.966 306.498 461.75 305.979 459.703 305.04C455.395 302.874 451.916 299.37 449.795 295.061C447.308 290.147 446.104 284.69 446.294 279.193C446.196 274.059 447.752 269.028 450.735 264.835C456.214 257.863 466.25 256.617 474.458 258.446C478.406 259.194 482.007 261.184 484.73 264.121C487.499 267.601 488.995 271.914 488.972 276.35C489.015 277.763 488.978 279.177 488.861 280.586L488.865 280.594ZM494.449 284.717C494.139 285.88 493.479 286.922 492.557 287.702C491.635 288.482 490.494 288.964 489.289 289.082C489.696 287.818 490.032 286.534 490.296 285.233C490.6 283.7 490.817 282.151 490.944 280.594C491.017 279.67 491.044 278.737 491.052 277.802C492.356 278.362 493.415 279.367 494.037 280.635C494.66 281.904 494.804 283.351 494.445 284.717H494.449Z" fill="black"/>
<path d="M472.032 291.481C471.877 291.446 471.714 291.457 471.565 291.513C471.415 291.57 471.286 291.669 471.193 291.798C470.055 293.215 468.595 294.344 466.933 295.093C465.271 295.841 463.453 296.187 461.63 296.102C460.292 296.04 460.296 298.106 461.63 298.167C463.443 298.243 465.252 297.956 466.951 297.323C468.65 296.691 470.203 295.725 471.518 294.484C471.435 297.352 470.343 300.101 468.431 302.252C467.765 302.994 468.864 304.093 469.534 303.346C470.905 301.818 471.919 300.009 472.503 298.047C473.088 296.085 473.229 294.02 472.917 291.997C472.907 291.899 472.874 291.804 472.82 291.72C472.766 291.636 472.693 291.567 472.606 291.516C472.52 291.466 472.423 291.437 472.324 291.43C472.224 291.424 472.124 291.441 472.032 291.481Z" fill="black"/>
<path d="M352.004 118.144C352.923 123.303 353.842 128.462 354.762 133.623C354.937 134.601 356.438 134.188 356.265 133.212C355.346 128.051 354.426 122.891 353.507 117.731C353.334 116.752 351.84 117.167 352.004 118.144Z" fill="#84D0AB"/>
<path d="M357.325 69.6789L358.223 102.461C358.25 102.647 358.344 102.818 358.487 102.942C358.63 103.065 358.814 103.133 359.004 103.133C359.193 103.133 359.377 103.065 359.52 102.942C359.663 102.818 359.757 102.647 359.784 102.461L358.883 69.6789C358.855 69.4937 358.761 69.3247 358.618 69.2026C358.475 69.0805 358.293 69.0133 358.104 69.0133C357.916 69.0133 357.733 69.0805 357.59 69.2026C357.447 69.3247 357.353 69.4937 357.325 69.6789Z" fill="#84D0AB"/>
<path d="M363.984 118.84L365.887 142.516C365.966 143.494 367.526 143.512 367.446 142.516C366.811 134.626 366.178 126.735 365.544 118.84C365.464 117.854 363.903 117.846 363.984 118.84Z" fill="#84D0AB"/>
<path d="M369.798 84.2482C369.839 93.0493 369.881 101.851 369.924 110.653C369.952 110.839 370.047 111.008 370.189 111.13C370.332 111.252 370.515 111.319 370.703 111.319C370.892 111.319 371.074 111.252 371.217 111.13C371.36 111.008 371.454 110.839 371.483 110.653C371.442 101.852 371.4 93.0506 371.356 84.2482C371.328 84.063 371.234 83.894 371.091 83.7719C370.948 83.6497 370.766 83.5826 370.577 83.5826C370.389 83.5826 370.206 83.6497 370.063 83.7719C369.92 83.894 369.826 84.063 369.798 84.2482Z" fill="#84D0AB"/>
<path d="M372.986 38.7204C373.708 49.6399 374.43 60.5594 375.153 71.4789C375.218 72.469 376.778 72.4768 376.713 71.4789C375.988 60.5607 375.266 49.6412 374.546 38.7204C374.479 37.7304 372.921 37.7245 372.986 38.7204Z" fill="#84D0AB"/>
<path d="M381.315 107.92V138.88C381.342 139.067 381.436 139.238 381.579 139.361C381.722 139.485 381.906 139.553 382.096 139.553C382.285 139.553 382.469 139.485 382.612 139.361C382.755 139.238 382.849 139.067 382.876 138.88V107.92C382.849 107.733 382.755 107.563 382.612 107.439C382.469 107.316 382.285 107.248 382.096 107.248C381.906 107.248 381.722 107.316 381.579 107.439C381.436 107.563 381.342 107.733 381.315 107.92Z" fill="#84D0AB"/>
<path d="M365.148 62.4177L363.31 36.0027C363.241 35.0243 361.681 35.0067 361.752 36.0027L363.59 62.4177C363.661 63.396 365.219 63.4077 365.148 62.4177Z" fill="#84D0AB"/>
<path d="M348.266 20.5039L349.183 49.6446C349.214 50.6386 350.772 50.6425 350.743 49.6446L349.827 20.5039C349.795 19.51 348.237 19.506 348.266 20.5039Z" fill="#84D0AB"/>
<path d="M343.52 64.2276C344.463 76.0629 345.408 87.8987 346.353 99.7353C346.43 100.714 347.991 100.731 347.912 99.7353L345.081 64.2276C345.002 63.2415 343.442 63.2336 343.52 64.2276Z" fill="#84D0AB"/>
<path d="M364.475 27.7964C363.786 22.0386 363.099 16.2801 362.414 10.521C362.298 9.54266 360.737 9.53092 360.856 10.521C361.541 16.2788 362.227 22.0373 362.914 27.7964C363.033 28.7728 364.593 28.7845 364.475 27.7964Z" fill="#84D0AB"/>
<path d="M388.288 18.6686L387.557 36.8871C387.517 37.8831 389.076 37.8831 389.117 36.8871L389.848 18.6686C389.888 17.6707 388.329 17.6727 388.288 18.6686Z" fill="#84D0AB"/>
<path d="M384.348 66.9748L385.616 93.3643C385.664 94.3564 387.224 94.3622 387.175 93.3643L385.908 66.9748C385.861 65.9808 384.302 65.9769 384.348 66.9748Z" fill="#84D0AB"/>
<path d="M290.652 549.954C283.214 543.077 269.006 548.802 259.236 551.835C249.466 554.868 242.113 557.388 233.427 562.757C231.26 564.093 228.777 566.236 229.589 568.627C230.448 571.159 233.994 571.204 236.648 570.76L280.304 563.424C283.576 563.192 286.706 562.007 289.302 560.016C291.658 557.793 293.327 551.796 290.652 549.954Z" fill="black"/>
<path d="M446.013 497.721C445.569 496.827 444.224 497.612 444.665 498.504C445.862 500.918 446.994 503.362 448.062 505.835C448.456 506.749 449.799 505.961 449.409 505.053C448.336 502.581 447.204 500.137 446.013 497.721Z" fill="black"/>
<path d="M453.606 491.02C454.051 495.956 454.619 500.878 455.31 505.787C455.448 506.765 456.951 506.35 456.813 505.374C456.143 500.603 455.594 495.819 455.166 491.02C455.075 490.035 453.517 490.026 453.606 491.02Z" fill="black"/>
<path d="M463.744 489.253L462.331 505.755C462.245 506.749 463.805 506.734 463.89 505.755L465.302 489.253C465.387 488.259 463.827 488.265 463.744 489.253Z" fill="black"/>
<path d="M471.851 489.441L467.33 506.055C467.307 506.241 467.352 506.429 467.457 506.585C467.562 506.741 467.721 506.854 467.903 506.904C468.085 506.954 468.279 506.937 468.45 506.857C468.621 506.776 468.757 506.637 468.833 506.466L473.354 489.853C473.378 489.667 473.333 489.478 473.228 489.322C473.123 489.165 472.965 489.052 472.782 489.001C472.6 488.951 472.405 488.968 472.234 489.049C472.063 489.129 471.927 489.268 471.851 489.441Z" fill="black"/>
<path d="M480.059 492.407L474.633 506.025C474.263 506.951 475.772 507.354 476.136 506.436L481.562 492.818C481.93 491.892 480.423 491.489 480.059 492.407Z" fill="black"/>
<path d="M485.585 498.308L481.603 506.029C481.146 506.916 482.492 507.7 482.949 506.812C484.277 504.237 485.604 501.663 486.931 499.089C487.386 498.204 486.044 497.42 485.585 498.308Z" fill="black"/>
<path d="M497.699 519.104C497.317 518.198 495.808 518.595 496.194 519.515L498.546 525.118C498.927 526.024 500.438 525.627 500.052 524.708L497.699 519.104Z" fill="black"/>
<path d="M502.839 516.805C502.763 516.632 502.627 516.493 502.456 516.413C502.285 516.332 502.091 516.315 501.908 516.365C501.726 516.416 501.567 516.529 501.462 516.686C501.357 516.842 501.313 517.031 501.336 517.217C502.068 519.927 502.799 522.637 503.531 525.347C503.607 525.52 503.743 525.659 503.914 525.739C504.085 525.82 504.28 525.837 504.462 525.787C504.645 525.736 504.803 525.623 504.908 525.466C505.013 525.31 505.058 525.121 505.034 524.935C504.301 522.221 503.57 519.511 502.839 516.805Z" fill="black"/>
<path d="M508.149 515.867V525.58C508.177 525.765 508.271 525.934 508.414 526.056C508.557 526.179 508.74 526.246 508.928 526.246C509.117 526.246 509.299 526.179 509.442 526.056C509.585 525.934 509.679 525.765 509.707 525.58V515.867C509.679 515.682 509.585 515.513 509.442 515.391C509.299 515.269 509.117 515.202 508.928 515.202C508.74 515.202 508.557 515.269 508.414 515.391C508.271 515.513 508.177 515.682 508.149 515.867Z" fill="black"/>
<path d="M516.898 514.408C516.168 518.034 515.438 521.659 514.708 525.283C514.511 526.261 516.014 526.672 516.211 525.694C516.941 522.07 517.671 518.446 518.402 514.82C518.599 513.838 517.095 513.429 516.898 514.408Z" fill="black"/>
<path d="M525.319 515.605L521.623 524.97C521.256 525.899 522.763 526.3 523.126 525.383L526.822 516.016C527.182 515.089 525.681 514.686 525.319 515.605Z" fill="black"/>
<path d="M534.314 519.481L530.965 524.845C530.433 525.694 531.781 526.47 532.311 525.627L535.66 520.266C536.192 519.415 534.842 518.636 534.314 519.481Z" fill="black"/>
<path d="M36.2793 221.17C35.8006 220.293 34.453 221.074 34.9317 221.952L44.5854 239.627C45.0642 240.504 46.4098 239.723 45.931 238.844C42.7131 232.954 39.4959 227.062 36.2793 221.17Z" fill="black"/>
<path d="M53.9121 223.647C52.8876 228.907 51.8638 234.167 50.8406 239.428C50.6436 240.406 52.1547 240.819 52.3458 239.838C53.369 234.579 54.3921 229.319 55.4153 224.058C55.6044 223.08 54.1032 222.669 53.9121 223.647Z" fill="black"/>
<path d="M76.5272 225.175L64.3124 243.396C63.7548 244.227 65.1004 245.004 65.66 244.178L77.8748 225.956C78.4324 225.124 77.0808 224.347 76.5272 225.175Z" fill="black"/>
<path d="M551.665 248.753C551.224 247.596 550.543 246.544 549.666 245.666C548.789 244.788 547.736 244.102 546.575 243.654C545.32 243.355 544.003 243.449 542.804 243.922C541.605 244.395 540.582 245.225 539.876 246.297C538.218 249.029 537.422 252.191 537.591 255.376C537.763 257.1 537.414 258.835 536.588 260.36C535.128 262.054 533.351 259.348 532.715 258.243C532.42 257.542 531.988 256.907 531.442 256.375C530.896 255.843 530.248 255.426 529.537 255.147C528.941 254.946 528.294 254.944 527.698 255.144C527.101 255.343 526.587 255.732 526.235 256.251C526.166 256.37 526.129 256.505 526.129 256.642C526.129 256.78 526.166 256.915 526.235 257.034C530.899 265.549 533.58 274.996 534.078 284.677C534.127 285.667 535.688 285.675 535.636 284.677C535.134 274.914 532.473 265.381 527.841 256.756C528.629 256.124 529.96 256.975 530.479 257.624C531.202 258.865 532.011 260.055 532.9 261.186C533.316 261.636 533.838 261.976 534.419 262.176C535 262.376 535.622 262.43 536.229 262.332C536.76 262.174 537.243 261.89 537.636 261.503C538.03 261.117 538.322 260.64 538.487 260.115C538.903 258.797 539.115 257.423 539.114 256.042C539.147 254.338 539.295 252.638 539.557 250.954C540.042 248.479 541.551 245.528 544.311 245.033C546.848 244.579 548.754 246.618 549.865 248.622C551.077 251.085 551.876 253.729 552.229 256.448C554.396 269.01 551.699 281.921 544.679 292.59C544.126 293.426 545.467 294.202 546.025 293.373C553.016 282.687 555.827 269.829 553.927 257.225C553.578 254.31 552.816 251.457 551.665 248.753Z" fill="black"/>
<path d="M552.17 231.505C551.646 230.656 550.296 231.435 550.824 232.288C556.892 242.128 560.145 253.425 560.234 264.964C560.259 268.211 560.027 271.456 559.538 274.667C559.39 275.645 560.891 276.062 561.043 275.08C562.823 263.346 561.338 251.352 556.748 240.396C555.457 237.319 553.927 234.346 552.17 231.505Z" fill="black"/>
<path d="M567.789 242.47C567.713 242.298 567.577 242.159 567.406 242.078C567.235 241.998 567.04 241.981 566.858 242.031C566.675 242.081 566.517 242.195 566.412 242.351C566.307 242.508 566.262 242.696 566.286 242.883C569.685 254.685 569.431 267.23 565.555 278.886C565.24 279.833 566.737 280.24 567.058 279.297C571.011 267.371 571.265 254.541 567.789 242.47Z" fill="black"/>
<path d="M521.981 412.503C525.482 412.868 528.879 413.902 531.986 415.547C533.43 416.291 535.335 417.079 536.791 415.948C537.314 415.43 537.67 414.769 537.814 414.049C537.958 413.329 537.884 412.583 537.601 411.906C536.674 408.535 535.332 405.29 533.605 402.246C532.035 399.268 529.643 396.797 526.71 395.122C525.015 394.225 522.691 393.584 521.853 391.676C521.034 389.805 523.059 388.52 523.297 386.765C523.382 386.439 523.394 386.1 523.333 385.769C523.271 385.439 523.138 385.126 522.942 384.852C522.746 384.578 522.492 384.35 522.198 384.184C521.905 384.018 521.578 383.918 521.241 383.89C519.493 383.89 518.37 385.927 517.367 387.076C511.624 393.629 504.331 398.662 496.143 401.721C495.211 402.068 495.615 403.565 496.557 403.214C503.402 400.673 509.663 396.792 514.97 391.803C516.266 390.58 517.499 389.293 518.664 387.946C519.225 387.297 519.727 386.567 520.346 385.972C520.582 385.745 521.032 385.307 521.404 385.458C521.776 385.608 521.798 386.117 521.772 386.436C521.604 387.179 521.267 387.874 520.787 388.469C520.295 389.216 520.05 390.097 520.086 390.989C520.208 391.792 520.512 392.556 520.976 393.224C521.44 393.893 522.051 394.447 522.763 394.846C524.29 395.824 526.036 396.376 527.515 397.444C528.849 398.436 530.013 399.636 530.961 400.997C532.825 403.809 534.293 406.861 535.325 410.068C535.719 411.199 536.901 413.44 536.003 414.569C534.935 415.891 532.259 413.917 531.17 413.416C528.181 412.046 524.974 411.206 521.694 410.935C514.12 410.274 506.589 412.593 500.72 417.392C499.949 418.034 501.058 419.124 501.823 418.488C504.622 416.224 507.844 414.531 511.303 413.504C514.761 412.477 518.39 412.136 521.981 412.503Z" fill="black"/>
<path d="M542.776 441.322C540.528 437.565 537.355 434.438 533.556 432.232C529.757 430.026 525.457 428.815 521.057 428.712C518.555 428.651 516.059 428.981 513.659 429.69C513.484 429.764 513.342 429.9 513.26 430.07C513.177 430.241 513.16 430.435 513.211 430.617C513.261 430.8 513.377 430.958 513.536 431.062C513.695 431.166 513.886 431.21 514.075 431.185C519.209 429.772 524.669 430.075 529.613 432.049C534.556 434.023 538.708 437.557 541.429 442.107C541.546 442.256 541.714 442.358 541.902 442.393C542.089 442.429 542.283 442.396 542.448 442.3C542.612 442.204 542.736 442.052 542.797 441.872C542.857 441.692 542.85 441.497 542.776 441.322Z" fill="black"/>
<path d="M385.149 557.846C384.769 556.94 383.258 557.337 383.644 558.259L385.996 563.861C386.379 564.768 387.888 564.369 387.502 563.45L385.149 557.846Z" fill="black"/>
<path d="M390.291 555.556C390.216 555.383 390.08 555.242 389.909 555.16C389.737 555.078 389.541 555.06 389.357 555.111C389.174 555.161 389.015 555.276 388.91 555.434C388.805 555.591 388.761 555.782 388.786 555.969C389.516 558.679 390.248 561.389 390.981 564.099C391.057 564.271 391.193 564.41 391.364 564.49C391.535 564.571 391.729 564.588 391.911 564.538C392.093 564.488 392.251 564.375 392.357 564.219C392.462 564.063 392.507 563.875 392.484 563.688L390.291 555.556Z" fill="black"/>
<path d="M395.599 554.619V564.332C395.627 564.517 395.721 564.686 395.864 564.808C396.007 564.93 396.189 564.998 396.378 564.998C396.567 564.998 396.749 564.93 396.892 564.808C397.035 564.686 397.129 564.517 397.157 564.332V554.619C397.129 554.434 397.035 554.265 396.892 554.143C396.749 554.021 396.567 553.953 396.378 553.953C396.189 553.953 396.007 554.021 395.864 554.143C395.721 554.265 395.627 554.434 395.599 554.619Z" fill="black"/>
<path d="M404.348 553.15C403.619 556.773 402.889 560.398 402.158 564.023C401.961 565.001 403.464 565.412 403.663 564.434C404.392 560.81 405.121 557.186 405.852 553.561C406.049 552.592 404.545 552.171 404.348 553.15Z" fill="black"/>
<path d="M412.769 554.357L409.073 563.716C408.706 564.645 410.213 565.046 410.576 564.129C411.809 561.006 413.042 557.884 414.274 554.764C414.638 553.84 413.131 553.439 412.769 554.357Z" fill="black"/>
<path d="M421.764 558.237L418.415 563.598C417.883 564.448 419.231 565.226 419.761 564.381L423.11 559.02C423.642 558.167 422.294 557.39 421.764 558.237Z" fill="black"/>
<path d="M162.394 538.486C162.014 537.58 160.504 537.978 160.891 538.899L163.243 544.501C163.623 545.409 165.134 545.01 164.746 544.09L162.394 538.486Z" fill="black"/>
<path d="M167.536 536.191C167.459 536.019 167.324 535.881 167.153 535.8C166.982 535.72 166.788 535.703 166.606 535.753C166.423 535.802 166.265 535.916 166.16 536.071C166.055 536.227 166.01 536.416 166.033 536.602C166.764 539.311 167.496 542.021 168.227 544.732C168.304 544.904 168.439 545.042 168.61 545.123C168.781 545.203 168.975 545.22 169.157 545.171C169.34 545.121 169.498 545.008 169.603 544.852C169.708 544.696 169.753 544.507 169.731 544.321C168.999 541.612 168.267 538.902 167.536 536.191Z" fill="black"/>
<path d="M172.845 535.252V544.965C172.874 545.15 172.968 545.319 173.111 545.441C173.254 545.564 173.436 545.631 173.625 545.631C173.813 545.631 173.995 545.564 174.138 545.441C174.281 545.319 174.376 545.15 174.404 544.965V535.252C174.376 535.067 174.281 534.898 174.138 534.776C173.995 534.654 173.813 534.586 173.625 534.586C173.436 534.586 173.254 534.654 173.111 534.776C172.968 534.898 172.874 535.067 172.845 535.252Z" fill="black"/>
<path d="M181.595 533.779C180.864 537.402 180.134 541.027 179.404 544.652C179.207 545.63 180.71 546.041 180.907 545.065C181.639 541.44 182.369 537.815 183.098 534.19C183.295 533.225 181.792 532.8 181.595 533.779Z" fill="black"/>
<path d="M190.015 534.99L186.319 544.356C185.953 545.284 187.46 545.687 187.822 544.767L191.518 535.403C191.885 534.473 190.378 534.072 190.015 534.99Z" fill="black"/>
<path d="M199.011 538.866L195.661 544.227C195.13 545.076 196.477 545.855 197.007 545.01L200.356 539.647C200.888 538.801 199.549 538.023 199.011 538.866Z" fill="black"/>
<path d="M100.36 569.991C99.9798 569.085 98.4707 569.482 98.8568 570.402L101.209 576.006C101.589 576.911 103.099 576.514 102.712 575.593L100.36 569.991Z" fill="black"/>
<path d="M105.502 567.694C105.426 567.522 105.29 567.383 105.119 567.303C104.948 567.222 104.754 567.205 104.572 567.255C104.39 567.305 104.232 567.418 104.126 567.574C104.021 567.73 103.976 567.918 103.999 568.104L106.194 576.236C106.27 576.409 106.406 576.548 106.577 576.628C106.748 576.709 106.942 576.726 107.125 576.676C107.307 576.625 107.466 576.512 107.571 576.355C107.676 576.199 107.72 576.01 107.697 575.824C106.967 573.114 106.235 570.404 105.502 567.694Z" fill="black"/>
<path d="M110.812 566.756V576.469C110.84 576.654 110.934 576.823 111.077 576.945C111.22 577.068 111.402 577.135 111.591 577.135C111.779 577.135 111.962 577.068 112.105 576.945C112.248 576.823 112.342 576.654 112.37 576.469V566.756C112.342 566.571 112.248 566.402 112.105 566.28C111.962 566.158 111.779 566.091 111.591 566.091C111.402 566.091 111.22 566.158 111.077 566.28C110.934 566.402 110.84 566.571 110.812 566.756Z" fill="black"/>
<path d="M119.561 565.281C118.831 568.906 118.1 572.531 117.37 576.156C117.173 577.134 118.676 577.545 118.873 576.567C119.604 572.942 120.334 569.318 121.064 565.694C121.261 564.727 119.758 564.303 119.561 565.281Z" fill="black"/>
<path d="M127.981 566.494L124.289 575.859C123.923 576.786 125.43 577.189 125.792 576.27C127.023 573.148 128.255 570.027 129.488 566.905C129.851 565.978 128.344 565.574 127.981 566.494Z" fill="black"/>
<path d="M136.975 570.368L133.626 575.732C133.096 576.579 134.443 577.357 134.973 576.514L138.323 571.153C138.854 570.304 137.505 569.525 136.975 570.368Z" fill="black"/>
<path d="M484.917 566.909C484.537 566.001 483.028 566.4 483.414 567.32L485.766 572.924C486.146 573.83 487.656 573.433 487.269 572.511L484.917 566.909Z" fill="black"/>
<path d="M490.059 564.612C489.983 564.44 489.847 564.301 489.676 564.221C489.505 564.14 489.311 564.123 489.129 564.173C488.947 564.223 488.789 564.336 488.683 564.492C488.578 564.648 488.533 564.836 488.556 565.023L490.749 573.153C490.825 573.324 490.961 573.463 491.132 573.544C491.302 573.624 491.497 573.641 491.679 573.591C491.861 573.541 492.019 573.428 492.124 573.272C492.229 573.116 492.275 572.928 492.252 572.742L490.059 564.612Z" fill="black"/>
<path d="M495.367 563.673V573.385C495.393 573.572 495.487 573.743 495.63 573.866C495.774 573.99 495.957 574.058 496.147 574.058C496.337 574.058 496.52 573.99 496.663 573.866C496.807 573.743 496.9 573.572 496.927 573.385V563.673C496.9 563.486 496.807 563.315 496.663 563.192C496.52 563.068 496.337 563 496.147 563C495.957 563 495.774 563.068 495.63 563.192C495.487 563.315 495.393 563.486 495.367 563.673Z" fill="black"/>
<path d="M504.118 562.207C503.388 565.831 502.657 569.455 501.927 573.08C501.73 574.059 503.233 574.472 503.43 573.493C504.159 569.868 504.89 566.243 505.621 562.618C505.816 561.646 504.313 561.229 504.118 562.207Z" fill="black"/>
<path d="M512.538 563.412L508.84 572.777C508.474 573.704 509.983 574.108 510.346 573.188L514.042 563.823C514.408 562.896 512.901 562.493 512.538 563.412Z" fill="black"/>
<path d="M521.532 567.288L518.183 572.65C517.651 573.499 519.001 574.278 519.529 573.432L522.878 568.071C523.41 567.222 522.06 566.443 521.532 567.288Z" fill="black"/>
<path d="M223.117 200.826C223.71 201.57 224.341 202.283 225.007 202.963C228.4 206.243 232.36 208.889 236.697 210.776L263.245 170.551C259.38 169.696 255.605 168.279 251.806 167.121C245.896 177.614 237.584 186.531 229.203 195.138C227.342 197.204 225.306 199.107 223.117 200.826Z" fill="#84D0AB"/>
<path d="M282.476 86.6804C279.706 81.6987 272.477 80.7869 267.262 83.1408C262.047 85.4946 258.343 90.1691 254.71 94.5677C251.077 98.9663 247.027 103.455 241.554 105.163C231.689 108.249 213.121 97.7023 201.735 98.5534C200.592 98.47 199.444 98.4785 198.301 98.5789C189.063 99.4124 182.448 106.838 177.812 114.156C172.404 122.782 168.147 132.069 165.148 141.784C161.774 152.002 160.11 162.7 160.223 173.453C160.348 183.473 162.982 193.304 167.888 202.061C172.162 209.403 179.297 217.501 188.539 217.756C190.487 217.815 192.427 217.485 194.245 216.786C196.062 216.087 197.719 215.033 199.119 213.686C200.442 212.397 201.394 210.782 201.877 209.005C202.393 206.496 202.212 203.895 201.353 201.48C200.547 198.79 199.446 196.179 198.447 193.555L195.492 185.803C193.482 180.523 191.472 175.24 189.461 169.954C189.107 169.019 190.612 168.622 190.967 169.543C193.413 176.366 196.542 182.929 200.307 189.131C202.005 191.82 203.944 194.351 206.101 196.692C208.15 199.156 210.723 201.139 213.635 202.499C215.22 203.092 216.937 203.249 218.604 202.954C220.272 202.659 221.828 201.923 223.109 200.823C225.298 199.103 227.334 197.2 229.195 195.134C237.576 186.525 245.89 177.611 251.799 167.117C252.356 166.127 252.922 165.143 253.434 164.121C253.329 164.133 253.222 164.124 253.12 164.094C253.019 164.064 252.924 164.014 252.843 163.947C251.069 162.542 249.428 160.98 247.939 159.281C243.553 153.982 240.039 148.027 237.529 141.637C240.798 141.433 244.017 140.732 247.072 139.559C265.532 131.226 275.927 118.036 282.243 98.8958C283.575 94.9121 284.519 90.3511 282.476 86.6804ZM192.85 152.773C192.792 152.848 192.717 152.91 192.632 152.954C192.547 152.997 192.453 153.022 192.358 153.025C191.907 157.718 190.675 162.304 188.713 166.597C188.297 167.502 186.953 166.716 187.365 165.814C190.838 158.206 191.877 149.723 190.342 141.51C190.159 140.532 191.662 140.121 191.847 141.099C192.434 144.235 192.664 147.427 192.533 150.614C194.235 148.048 194.965 144.964 194.594 141.913C194.477 140.923 196.038 140.935 196.152 141.913C196.37 143.851 196.19 145.813 195.622 147.679C195.055 149.546 194.112 151.279 192.85 152.773ZM211.198 133.809C210.385 132.594 209.57 131.38 208.753 130.165C208.195 129.334 209.541 128.559 210.101 129.383L212.546 133.024C213.097 133.86 211.746 134.634 211.19 133.809H211.198ZM216.781 145.281C216.169 144.498 217.524 143.715 218.129 144.498L221.34 148.628C221.953 149.411 220.597 150.194 219.993 149.411C218.917 148.028 217.844 146.652 216.773 145.281H216.781ZM228.24 163.605L225.779 159.973C225.215 159.142 226.567 158.369 227.125 159.191L229.585 162.822C230.141 163.652 228.789 164.427 228.232 163.605H228.24ZM235.649 176.91C234.834 175.696 234.019 174.481 233.204 173.267C232.645 172.435 233.992 171.66 234.55 172.484L236.995 176.125C237.547 176.961 236.193 177.736 235.641 176.91H235.649ZM236.41 163.08C234.156 160.548 232.01 157.927 229.973 155.217C229.134 154.1 228.316 152.968 227.521 151.82C226.918 150.957 226.338 150.076 225.761 149.198C225.596 148.947 225.424 148.703 225.263 148.45C224.55 147.348 223.855 146.233 223.18 145.104L223.151 145.058C219.108 138.335 215.731 131.239 213.068 123.869C212.729 122.928 214.236 122.527 214.573 123.458C215.709 126.612 216.978 129.715 218.381 132.768C219.786 135.812 221.336 138.788 222.989 141.702C224.002 143.48 225.059 145.232 226.161 146.959L226.246 147.094C227.352 148.82 228.5 150.516 229.69 152.182L229.796 152.325C230.848 153.79 231.942 155.224 233.059 156.641C233.327 156.981 233.594 157.32 233.866 157.656C235.048 159.124 236.258 160.572 237.511 161.981C238.163 162.728 237.068 163.828 236.402 163.08H236.41Z" fill="#F36E72"/>
<path d="M130.158 309.255C127.743 309.517 125.299 309.333 122.952 308.711C123.553 312.921 124.155 317.131 124.756 321.341C127.089 320.662 129.384 319.878 131.616 319.027C136.274 317.248 140.852 315.199 145.453 313.239C144.59 309.631 143.805 306.006 143.1 302.364C139.826 306.212 135.198 308.676 130.158 309.255Z" fill="black"/>
<path d="M123.253 321.758L121.316 308.212C117.48 306.791 114.121 304.332 111.62 301.113C109.119 297.894 107.576 294.043 107.165 289.998C105.819 278.097 113.932 267.424 125.29 266.158C129.864 265.733 134.452 266.817 138.342 269.244C142.233 271.671 145.209 275.304 146.81 279.58C146.847 279.58 146.883 279.569 146.92 279.569C148.26 279.562 149.556 280.043 150.564 280.92C151.572 281.797 152.221 283.01 152.391 284.33C152.561 285.65 152.238 286.986 151.484 288.086C150.731 289.186 149.598 289.975 148.299 290.303C147.915 294.057 146.567 297.651 144.385 300.74C145.129 304.721 145.975 308.682 146.92 312.623C151.589 310.589 156.395 308.88 161.302 307.51C161.176 305.424 161.026 303.34 160.818 301.26C160.218 294.439 158.87 287.703 156.797 281.173C155.068 275.316 151.986 269.941 147.795 265.477C143.484 261.193 137.704 258.684 131.61 258.452C127.384 258.24 123.159 258.877 119.187 260.327C115.215 261.777 111.58 264.009 108.499 266.889C101.997 273.133 98.317 281.703 95.8326 290.191C93.3578 299.641 91.8684 309.318 91.388 319.07C92.6398 319.853 93.946 320.547 95.2967 321.146C104.028 324.961 113.889 324.28 123.253 321.758Z" fill="black"/>
<path d="M100.429 378.398C97.462 374.226 92.6312 371.968 87.958 369.702C87.9107 370.133 87.8733 370.563 87.83 370.996C87.6443 377.677 88.3062 384.355 89.8001 390.872C90.388 392.449 91.1131 393.972 91.9673 395.425C94.1377 398.945 97.2722 401.778 101.004 403.594C102.366 404.271 103.779 404.839 105.232 405.292C104.942 401.366 104.654 397.439 104.367 393.513C103.979 388.256 103.493 382.705 100.429 378.398Z" fill="black"/>
<path d="M191.451 498.414C185.96 495.419 180.817 491.833 176.116 487.721C172.952 485.132 169.87 482.438 166.828 479.716C169.742 476.135 172.599 472.512 175.322 468.786C179.262 463.397 182.972 457.853 186.453 452.154C188.16 449.359 189.799 446.526 191.369 443.655L191.524 443.363V440.138C191.408 440.334 191.274 440.551 191.205 440.68C190.811 441.412 190.417 442.143 190.023 442.872C189.248 444.285 188.46 445.688 187.659 447.081C184.375 452.762 180.849 458.291 177.079 463.669C169.455 474.506 161.055 484.784 151.946 494.424C142.895 504.024 133.317 513.12 123.257 521.671C122.105 522.677 120.877 523.592 119.583 524.41C115.239 520.806 110.847 517.262 106.406 513.778C106.495 513.77 106.581 513.744 106.659 513.702C106.737 513.66 106.806 513.602 106.861 513.533C118.125 500.177 129.113 486.598 139.826 472.795C150.567 458.958 161.021 444.906 171.188 430.641C176.721 422.879 182.164 415.053 187.519 407.161L185.383 407.523C176.029 421.253 166.417 434.799 156.548 448.161C146.138 462.237 135.442 476.097 124.459 489.74C118.312 497.376 112.077 504.942 105.754 512.437C105.669 512.535 105.611 512.652 105.584 512.778C105.558 512.904 105.564 513.034 105.603 513.157C102.037 510.357 98.4529 507.578 94.8515 504.82C96.4414 501.92 98.4903 499.222 100.332 496.487C102.366 493.467 104.401 490.447 106.44 487.427L118.741 469.16L143.342 432.619L156.6 412.943L156.04 413.07C155.486 413.193 154.935 413.33 154.381 413.461L151.454 417.809L145.149 427.17C141.406 432.731 137.663 438.291 133.919 443.85C130.641 439.516 127.611 435.002 124.845 430.33C123.318 427.737 122.03 425.013 120.997 422.19C120.489 422.323 119.981 422.46 119.47 422.591C122.188 429.256 125.776 435.536 130.143 441.271C131.074 442.594 132.06 443.876 133.031 445.169L132.44 446.042L107.12 483.633L100.003 494.199L96.4453 499.482C95.2568 501.133 94.1636 502.85 93.171 504.624C93.074 504.803 93.0489 505.012 93.1009 505.208C93.1528 505.405 93.2778 505.574 93.4507 505.683C102.086 512.269 110.632 518.973 118.984 525.913C119.108 526.029 119.266 526.103 119.436 526.125C119.605 526.147 119.777 526.115 119.927 526.034C122.754 524.212 125.394 522.118 127.808 519.783C130.303 517.605 132.767 515.396 135.198 513.155C140.115 508.63 144.903 503.969 149.56 499.173C155.238 493.312 160.667 487.226 165.845 480.915C167.573 482.469 169.301 484.021 171.07 485.523C176.165 490.089 181.618 494.244 187.377 497.948C188.722 498.76 190.108 499.504 191.528 500.177V496.414C191.524 497.036 191.459 497.735 191.451 498.414Z" fill="#74A3D7"/>
<path d="M115.918 485.253L99.4045 507.031C98.8016 507.827 100.155 508.596 100.752 507.814L130.145 469.044L159.537 430.271L175.475 409.249C174.723 409.384 173.974 409.526 173.224 409.661L145.311 446.48L115.918 485.253Z" fill="#74A3D7"/>
<path d="M130.818 497.034C125.006 504.078 119.086 511.028 113.058 517.883C112.401 518.63 113.499 519.73 114.161 518.976C124.931 506.715 135.36 494.168 145.449 481.336C155.537 468.504 165.263 455.4 174.626 442.025C179.892 434.505 185.04 426.905 190.072 419.226C190.62 418.386 189.27 417.609 188.725 418.443C179.82 432.034 170.546 445.377 160.904 458.472C151.235 471.598 141.206 484.452 130.818 497.034Z" fill="#74A3D7"/>
<path d="M185.913 436.425C178.44 448.344 170.428 459.902 161.878 471.101C153.34 482.273 144.286 493.035 134.715 503.386C129.322 509.222 123.779 514.915 118.085 520.466C117.368 521.166 118.479 522.26 119.189 521.561C129.314 511.685 138.967 501.359 148.15 490.583C157.281 479.85 165.902 468.716 174.014 457.181C178.611 450.641 183.032 443.983 187.277 437.207C187.793 436.358 186.443 435.58 185.913 436.425Z" fill="#74A3D7"/>
<path d="M129.622 363.985L127.022 348.977C126.665 350.454 125.965 351.826 124.976 352.983C123.987 354.141 122.738 355.052 121.33 355.642C117.784 357.105 114.151 355.865 110.951 354.116C111.939 358.688 112.924 363.26 113.907 367.832C118.747 365.544 123.993 364.222 129.347 363.94C129.441 363.938 129.534 363.953 129.622 363.985Z" fill="#FCAFB7"/>
<path d="M120.469 354.323C121.777 353.834 122.936 353.019 123.836 351.957C124.736 350.895 125.346 349.621 125.607 348.257L110.668 352.171C113.605 353.934 117.053 355.554 120.469 354.323Z" fill="#FCAFB7"/>
<path d="M154.379 413.457C154.933 413.33 155.484 413.193 156.038 413.066L156.598 412.939C157.147 412.814 157.697 412.683 158.249 412.567C163.225 411.512 168.219 410.565 173.222 409.658C173.972 409.523 174.721 409.38 175.473 409.245C178.771 408.658 182.072 408.085 185.375 407.527L187.511 407.165L191.522 406.484V309.997C183.878 306.021 175.106 304.725 166.628 306.32C164.825 306.629 163.054 307.046 161.296 307.512C156.389 308.882 151.583 310.591 146.914 312.624C146.428 312.82 145.941 313.031 145.456 313.239C140.856 315.196 136.278 317.248 131.62 319.027C129.388 319.878 127.089 320.662 124.76 321.341C124.262 321.488 123.759 321.623 123.257 321.758C113.893 324.28 104.032 324.961 95.2909 321.146C93.9401 320.547 92.6339 319.853 91.3821 319.07C80.5838 312.417 74.2537 299.914 66.909 289.256C65.4897 287.081 63.8203 285.078 61.9345 283.286C56.024 285.918 50.1136 288.569 44.0495 290.772C44.0082 291.078 43.9648 291.385 43.9313 291.686C40.5525 322.576 58.0769 354.681 85.9819 368.728C86.636 369.057 87.298 369.38 87.9521 369.706C92.6253 371.972 97.456 374.23 100.423 378.402C103.487 382.706 103.969 388.259 104.363 393.517C104.651 397.445 104.939 401.371 105.228 405.296L106.213 418.641C106.309 420.954 106.713 423.244 107.415 425.452C111.454 424.589 115.467 423.618 119.47 422.591C119.981 422.46 120.489 422.323 120.997 422.19C132.125 419.29 143.179 416.021 154.379 413.457ZM113.824 369.581C113.706 369.638 113.576 369.666 113.444 369.662C113.313 369.659 113.184 369.624 113.07 369.56C112.955 369.496 112.857 369.406 112.785 369.297C112.713 369.188 112.669 369.063 112.656 368.933C112.572 368.84 112.514 368.726 112.488 368.603L109.139 353.061L109.109 353.043C109.004 352.982 108.916 352.895 108.854 352.791C108.792 352.686 108.758 352.568 108.755 352.447C108.627 352.368 108.524 352.255 108.458 352.121C108.393 351.987 108.367 351.836 108.385 351.688C108.402 351.54 108.462 351.399 108.557 351.284C108.653 351.168 108.779 351.082 108.922 351.036C109.034 350.859 109.209 350.731 109.413 350.677C109.616 350.623 109.832 350.648 110.018 350.746L125.976 346.563C126.07 346.485 126.179 346.429 126.297 346.397C126.416 346.366 126.539 346.361 126.659 346.383L127.278 346.22C127.381 346.192 127.489 346.185 127.595 346.202C127.7 346.218 127.801 346.257 127.89 346.315C127.98 346.374 128.055 346.451 128.112 346.541C128.169 346.63 128.206 346.732 128.22 346.837C128.229 346.858 128.238 346.879 128.245 346.901C129.262 352.771 130.279 358.641 131.297 364.511C131.445 365.366 130.312 365.791 129.918 365.228C129.849 365.309 129.763 365.375 129.667 365.421C129.571 365.467 129.465 365.492 129.358 365.496C123.951 365.773 118.661 367.164 113.824 369.581Z" fill="#F58AB4"/>
<path d="M129.906 365.224C130.3 365.787 131.437 365.363 131.285 364.507C130.266 358.637 129.249 352.767 128.234 346.897C128.226 346.876 128.218 346.854 128.208 346.833C128.194 346.728 128.157 346.627 128.1 346.537C128.043 346.447 127.968 346.37 127.879 346.311C127.789 346.253 127.688 346.214 127.583 346.198C127.477 346.182 127.369 346.188 127.266 346.217L126.648 346.379C126.527 346.357 126.404 346.363 126.286 346.394C126.167 346.425 126.058 346.481 125.964 346.559L110.006 350.742C109.82 350.644 109.604 350.619 109.401 350.673C109.197 350.727 109.022 350.855 108.91 351.032C108.767 351.078 108.641 351.164 108.546 351.28C108.45 351.396 108.39 351.536 108.373 351.684C108.355 351.833 108.381 351.983 108.446 352.117C108.512 352.252 108.615 352.365 108.743 352.443C108.746 352.564 108.78 352.682 108.842 352.787C108.905 352.891 108.992 352.978 109.098 353.039L109.127 353.057L112.476 368.599C112.502 368.722 112.56 368.836 112.644 368.93C112.657 369.059 112.701 369.184 112.773 369.293C112.846 369.402 112.943 369.492 113.058 369.556C113.173 369.62 113.301 369.655 113.432 369.658C113.564 369.662 113.694 369.634 113.812 369.577C118.645 367.161 123.931 365.768 129.335 365.488C129.444 365.487 129.551 365.463 129.649 365.417C129.748 365.372 129.835 365.306 129.906 365.224ZM125.607 348.259C125.346 349.623 124.736 350.897 123.836 351.959C122.936 353.021 121.777 353.836 120.469 354.325C117.053 355.556 113.605 353.934 110.668 352.173L125.607 348.259ZM110.951 354.116C114.151 355.865 117.776 357.105 121.33 355.642C122.738 355.052 123.987 354.141 124.976 352.983C125.965 351.826 126.665 350.454 127.022 348.977L129.622 363.985C129.534 363.954 129.44 363.939 129.347 363.942C123.996 364.224 118.753 365.546 113.915 367.832C112.926 363.261 111.938 358.689 110.951 354.116Z" fill="white"/>
<path d="M438.526 416.733C432.556 411.359 427.4 405.156 423.22 398.315V428.577C428.65 425.065 433.771 421.103 438.526 416.733Z" fill="#FCAFB7"/>
<path d="M529.744 282.844C526.274 285.986 523.184 289.516 520.533 293.365C514.698 301.724 508.318 309.997 499.782 315.61C491.245 321.224 480.096 323.828 470.58 320.066C462.733 316.962 457.051 310.102 449.78 305.833C442.035 301.33 432.854 299.923 424.103 301.898C423.803 301.966 423.512 302.06 423.218 302.148V395.309C423.266 395.391 423.311 395.474 423.36 395.554C424.905 398.184 426.574 400.734 428.368 403.206C435.354 413.272 445.001 421.227 456.248 426.195C466.92 430.626 478.863 430.993 489.791 427.226C495.141 425.351 499.966 422.239 503.866 418.147C507.499 414.256 510.812 407.75 508.239 402.494C505.647 397.186 498.98 396.667 493.781 396.135C487.995 395.641 482.348 394.111 477.111 391.619C466.304 386.094 457.633 377.183 452.443 366.266C446.785 353.948 444.182 340.461 444.852 326.937C444.881 326.752 444.975 326.583 445.118 326.461C445.261 326.339 445.443 326.272 445.632 326.272C445.82 326.272 446.002 326.339 446.145 326.461C446.288 326.583 446.383 326.752 446.411 326.937C446.32 330.334 446.373 333.735 446.608 337.126C447.542 350.554 451.377 364.114 459.591 374.993C461.239 377.171 463.052 379.22 465.013 381.125C468.932 373.018 471.843 364.466 473.681 355.659C489.498 358.007 505.795 351.83 518.009 341.585C530.224 331.34 538.775 317.381 545.197 302.843C545.788 301.497 546.348 300.123 546.866 298.744C550.741 288.37 537.141 276.228 529.744 282.844ZM488.688 403.66C489.299 406.694 489.91 409.73 490.522 412.767C490.719 413.745 489.214 414.154 489.017 413.178L487.185 404.071C486.992 403.095 488.491 402.682 488.688 403.66ZM464.335 420.775L471.67 410.757C472.261 409.959 473.606 410.732 473.015 411.54L465.681 421.556C465.101 422.354 463.744 421.581 464.335 420.775ZM445.077 405.502L448.82 392.771C448.896 392.6 449.032 392.461 449.203 392.38C449.374 392.3 449.568 392.283 449.75 392.333C449.933 392.383 450.091 392.496 450.196 392.652C450.301 392.808 450.346 392.996 450.323 393.182L446.592 405.912C446.519 406.09 446.384 406.234 446.211 406.319C446.038 406.403 445.84 406.422 445.654 406.372C445.468 406.321 445.307 406.205 445.202 406.044C445.097 405.884 445.054 405.691 445.083 405.502H445.077ZM440.94 376.985L431.863 370.483C431.055 369.906 431.834 368.564 432.651 369.147L441.728 375.647C442.543 376.226 441.765 377.568 440.949 376.985H440.94ZM463.917 332.353C463.305 333.568 462.694 334.782 462.083 335.997C461.634 336.889 460.288 336.102 460.736 335.214C461.348 334.001 461.959 332.787 462.57 331.573C463.029 330.677 464.374 331.459 463.927 332.353H463.917ZM489.236 336.237L480.076 342.612C479.253 343.186 478.475 341.841 479.288 341.274L488.457 334.901C489.283 334.328 490.063 335.67 489.245 336.237H489.236ZM502.761 338.507L500.002 331.223C499.648 330.285 501.157 329.886 501.506 330.81C502.425 333.237 503.344 335.665 504.264 338.094C504.628 339.032 503.119 339.431 502.77 338.503L502.761 338.507ZM525.502 323.754L516.335 322.827C515.35 322.727 515.336 321.177 516.335 321.279L525.502 322.206C526.501 322.306 526.509 323.856 525.512 323.754H525.502ZM532.898 302.107L531.978 297.554C531.781 296.576 533.284 296.167 533.483 297.143L534.403 301.695C534.61 302.671 533.105 303.088 532.908 302.109L532.898 302.107Z" fill="#F58AB4"/>
<path d="M318.789 187.977C313.671 186.107 308.096 185.854 302.828 187.252C297.559 188.65 292.854 191.631 289.357 195.787C285.86 199.943 283.741 205.07 283.29 210.468C282.84 215.865 284.08 221.269 286.841 225.94C289.601 230.611 293.748 234.32 298.713 236.561C303.677 238.801 309.218 239.463 314.576 238.456C319.935 237.449 324.849 234.822 328.646 230.935C332.443 227.047 334.938 222.09 335.79 216.74C335.999 215.384 336.108 214.015 336.115 212.643C336.076 207.274 334.4 202.043 331.307 197.639C328.214 193.236 323.849 189.867 318.789 187.977Z" fill="black"/>
<path d="M352.037 239.334C350.023 236.119 347.597 233.177 344.821 230.581C336.75 221.921 328.015 213.897 318.693 206.581C311.621 201.175 303.732 196.916 295.319 193.962C286.386 201.169 285.271 213.725 289.897 223.948C293.65 224.629 297.307 227.828 300.561 229.818C305.365 232.951 309.692 236.75 313.411 241.1C317.013 245.481 320.96 249.571 325.214 253.332C329.535 257.118 335.07 259.257 340.831 259.37C346.544 259.196 352.352 255.652 353.867 250.211C354.71 246.487 354.053 242.583 352.037 239.334Z" fill="#84D0AB"/>
<path d="M351.679 275.264C362.998 269.841 374.941 265.81 387.244 263.258C389.878 262.872 392.463 262.209 394.957 261.282C396.001 260.934 396.882 260.219 397.433 259.272C397.884 258.332 398.08 257.292 398.002 256.254C397.923 255.215 397.573 254.216 396.986 253.353C393.44 248.221 384.842 247.419 377.43 248.176C366.782 249.262 346.592 260.129 346.592 260.129L351.679 275.264Z" fill="black"/>
<path d="M275.627 396.663C274.248 394.282 271.474 392.936 269.201 391.55C266.577 389.95 263.937 388.373 261.241 386.89C255.948 383.838 250.277 381.484 244.371 379.889C242.98 379.334 241.466 379.152 239.982 379.362C239.447 379.543 238.972 379.864 238.607 380.292C238.242 380.72 238.002 381.239 237.911 381.793C237.893 382.415 238.007 383.034 238.244 383.609C238.482 384.185 238.838 384.706 239.29 385.137C239.345 385.209 239.42 385.264 239.487 385.332C238.852 385.223 238.203 385.21 237.564 385.295C236.699 385.379 235.876 385.708 235.194 386.243C234.512 386.778 233.999 387.497 233.717 388.314C233.534 389.159 233.574 390.036 233.833 390.86C234.092 391.685 234.562 392.429 235.196 393.02C235.72 393.516 236.318 393.928 236.969 394.241C235.886 394.487 234.924 395.106 234.256 395.988C233.698 396.753 233.388 397.67 233.371 398.614C233.353 399.559 233.628 400.486 234.158 401.271C235.687 403.435 238.559 404.089 241 404.75L259.323 409.714L264.928 411.233C266.086 411.535 267.306 411.522 268.457 411.193C269.609 410.864 270.649 410.232 271.468 409.364C272.278 408.343 272.957 407.225 273.49 406.038C274.13 404.836 274.709 403.568 275.425 402.406C275.93 401.722 276.263 400.928 276.396 400.089C276.507 398.896 276.238 397.697 275.627 396.663ZM274.114 401.555C273.612 402.353 273.216 403.242 272.773 404.073C272.213 405.124 271.673 406.188 271.094 407.227C270.559 408.227 269.7 409.018 268.657 409.474C267.614 409.931 266.447 410.026 265.343 409.744L252.559 406.28C248.241 405.106 243.908 403.985 239.601 402.77C237.562 402.195 234.625 400.931 234.928 398.362C235.287 395.337 238.788 395.391 241.109 395.591C241.989 395.667 242.161 394.272 241.316 394.071C238.91 393.484 234.591 392.31 235.153 388.966C235.338 388.319 235.735 387.752 236.282 387.356C236.828 386.96 237.493 386.756 238.169 386.778C239.811 386.845 241.409 387.316 242.823 388.148C243.717 388.574 244.491 387.318 243.611 386.811C242.577 386.223 241.645 385.472 240.853 384.589C240.244 383.91 239.166 382.789 239.501 381.785C239.895 380.589 241.077 380.748 242.062 380.947C243.331 381.208 244.587 381.519 245.831 381.881C250.768 383.4 255.524 385.446 260.016 387.983C262.333 389.246 264.608 390.582 266.866 391.946C269.097 393.094 271.201 394.472 273.143 396.055C273.951 396.756 274.522 397.687 274.778 398.722C274.883 399.214 274.877 399.723 274.762 400.213C274.648 400.703 274.427 401.163 274.114 401.559V401.555Z" fill="black"/>
<path d="M299.596 336.547C299.387 335.568 297.884 335.985 298.093 336.96C299.522 343.652 302.341 349.975 306.367 355.526C306.958 356.329 308.302 355.556 307.715 354.744C303.762 349.306 300.996 343.108 299.596 336.547Z" fill="black"/>
<path d="M338.329 361.336C331.598 345.771 328.983 328.756 330.732 311.906C330.738 311.825 330.73 311.744 330.708 311.666C331.592 311.689 332.472 311.536 333.295 311.217C334.119 310.898 334.869 310.418 335.504 309.807C336.293 308.941 336.885 307.916 337.237 306.801C337.589 305.687 337.694 304.51 337.544 303.351C337.394 302.193 336.993 301.08 336.369 300.09C335.745 299.1 334.912 298.256 333.928 297.617C333.557 297.38 333.169 297.171 332.767 296.991C332.985 296.435 333.088 295.841 333.069 295.245L333.116 289.111C333.227 286.804 333.055 284.493 332.604 282.228C332.137 279.944 330.846 277.908 328.973 276.504C326.588 275.27 323.972 274.537 321.289 274.352C320.641 274.231 319.831 273.871 319.91 273.219C319.952 272.896 320.22 272.644 320.304 272.329C320.501 271.622 319.774 271.02 319.122 270.67C314.085 267.984 308.233 267.218 302.668 268.517C300.948 269.181 299.069 269.322 297.269 268.922C295.935 268.206 294.763 267.225 293.826 266.04C290.798 263.527 286.908 262.277 282.972 262.551C268.064 262.412 269.859 273.16 269.575 276.264C269.448 279.385 269.879 282.504 270.848 285.476C271.169 287.378 272.117 289.12 273.543 290.43C273.64 290.5 273.752 290.532 273.85 290.592C273.498 294.897 272.952 299.202 272.497 303.491C271.578 309.283 271.629 315.186 272.647 320.962C273.183 323.495 274.306 325.869 275.928 327.896C277.549 329.922 279.624 331.546 281.987 332.637C289.799 336.236 299.037 335.572 307.368 334.905C310.15 334.799 312.896 334.244 315.499 333.261C317.864 332.222 319.911 330.582 321.435 328.507C323.116 326.221 324.308 323.618 324.938 320.858C325.613 319.586 325.9 318.146 325.763 316.714V315.642C325.858 314.552 325.925 313.462 325.951 312.382C325.972 311.54 325.951 310.699 325.951 309.858C326.887 310.716 328.048 311.296 329.3 311.533C329.226 311.64 329.181 311.764 329.168 311.893C327.397 329.017 330.087 346.307 336.977 362.103C337.379 363.03 338.723 362.242 338.329 361.336ZM321.924 324.746C320.836 327.088 319.168 329.119 317.075 330.647C314.759 332.113 312.111 332.982 309.372 333.177C304.386 333.793 299.356 333.99 294.336 333.764C290.766 333.649 287.237 332.978 283.876 331.776C281.561 330.934 279.486 329.546 277.828 327.734C276.17 325.921 274.979 323.736 274.357 321.367C273.218 315.971 273.067 310.417 273.909 304.968C274.359 300.391 274.977 295.826 275.375 291.244C276.583 291.518 277.827 291.6 279.061 291.488C283.456 291.201 287.787 290.293 291.924 288.792C292.799 288.409 293.731 288.173 294.683 288.094C295.161 288.061 295.639 288.16 296.064 288.38C296.489 288.6 296.845 288.932 297.092 289.34C297.284 289.915 297.432 290.504 297.535 291.101C298.142 293.001 300.518 293.627 302.522 293.721C306.937 293.92 311.332 293.013 315.302 291.083C315.473 290.968 315.667 290.889 315.87 290.853C316.074 290.816 316.283 290.822 316.484 290.87C316.783 291.041 317.002 291.322 317.093 291.653C317.549 293.168 317.829 294.731 317.926 296.31C317.991 296.777 318.081 297.241 318.194 297.699C318.206 304.915 318.218 312.131 318.232 319.348C318.165 319.838 318.209 320.338 318.36 320.81C318.511 321.282 318.766 321.715 319.106 322.077C319.649 322.446 320.278 322.672 320.933 322.733C321.588 322.793 322.247 322.688 322.85 322.425C322.589 323.218 322.28 323.995 321.924 324.75V324.746ZM325.848 307.136C325.817 307.064 325.773 306.998 325.72 306.94C325.704 303.932 325.69 300.924 325.677 297.914C325.758 297.961 325.848 297.991 325.941 298.003C326.034 298.015 326.128 298.009 326.219 297.985C331.211 296.525 337.151 300.149 335.931 305.758C335.743 306.871 335.201 307.895 334.385 308.68C333.569 309.466 332.522 309.972 331.397 310.124C330.271 310.277 329.126 310.069 328.128 309.53C327.129 308.991 326.331 308.15 325.848 307.128V307.136Z" fill="black"/>
<path d="M257.876 385.178C267.218 389.023 277.424 390.324 287.44 388.946C288.368 377.83 291.648 367.033 297.066 357.262C293.322 359.969 289.136 362.014 284.692 363.308C277.353 365.197 269.834 366.312 262.26 366.634C260.8 366.75 259.323 366.877 257.876 367.116V356.524C257.876 356.284 257.892 356.027 257.898 355.769H297.992C298.331 355.247 298.672 354.726 299.029 354.221H269.593C265.495 354.221 261.366 354.073 257.27 354.221C257.213 354.221 257.153 354.221 257.096 354.221C256.887 354.221 256.687 354.304 256.539 354.451C256.391 354.597 256.308 354.796 256.308 355.004V385.213C256.832 385.467 257.348 385.743 257.869 386.009L257.876 385.178Z" fill="black"/>
<path d="M357.782 454.24C357.782 454.479 357.766 454.737 357.758 454.993H307.979C308.902 453.757 309.722 452.448 310.432 451.08C307.819 450.285 305.334 449.125 303.05 447.636C295.597 442.635 291.82 434.165 289.653 425.767C278.825 426.782 268.158 429.081 257.88 432.615V408.527L256.32 408.106V443.357C256.32 447.427 256.17 451.528 256.32 455.594C256.32 455.653 256.32 455.71 256.32 455.768C256.323 455.974 256.407 456.171 256.554 456.315C256.702 456.46 256.901 456.541 257.108 456.541H346.078C350.175 456.541 354.305 456.69 358.401 456.541C358.458 456.541 358.517 456.541 358.574 456.541C358.781 456.541 358.98 456.46 359.128 456.315C359.275 456.171 359.36 455.974 359.362 455.768V451.428C358.853 451.628 358.332 451.817 357.802 451.996L357.782 454.24Z" fill="black"/>
<path d="M332.279 398.976C331.875 398.99 331.492 399.16 331.211 399.449C330.931 399.737 330.774 400.123 330.774 400.525C330.774 400.926 330.931 401.312 331.211 401.601C331.492 401.89 331.875 402.059 332.279 402.073C332.683 402.059 333.065 401.89 333.346 401.601C333.627 401.312 333.784 400.926 333.784 400.525C333.784 400.123 333.627 399.737 333.346 399.449C333.065 399.16 332.683 398.99 332.279 398.976Z" fill="white"/>
<path d="M321.277 388.05C320.874 388.064 320.491 388.234 320.21 388.523C319.929 388.811 319.773 389.197 319.773 389.599C319.773 390 319.929 390.386 320.21 390.675C320.491 390.964 320.874 391.133 321.277 391.147C321.681 391.133 322.064 390.964 322.345 390.675C322.625 390.386 322.782 390 322.782 389.599C322.782 389.197 322.625 388.811 322.345 388.523C322.064 388.234 321.681 388.064 321.277 388.05Z" fill="white"/>
<path d="M287.159 410.472C287.318 410.533 287.488 410.568 287.659 410.573C288.063 410.559 288.446 410.39 288.726 410.101C289.007 409.812 289.164 409.426 289.164 409.025C289.164 408.623 289.007 408.237 288.726 407.948C288.446 407.66 288.063 407.49 287.659 407.476C287.419 407.474 287.183 407.528 286.968 407.632C286.707 407.779 286.494 407.995 286.352 408.257C286.21 408.519 286.145 408.815 286.165 409.112C286.185 409.408 286.289 409.693 286.465 409.934C286.64 410.174 286.881 410.361 287.159 410.472Z" fill="white"/>
<path d="M311.496 415.974C311.092 415.988 310.709 416.157 310.428 416.446C310.148 416.735 309.991 417.121 309.991 417.522C309.991 417.924 310.148 418.31 310.428 418.599C310.709 418.887 311.092 419.057 311.496 419.071C311.9 419.057 312.282 418.887 312.563 418.599C312.844 418.31 313.001 417.924 313.001 417.522C313.001 417.121 312.844 416.735 312.563 416.446C312.282 416.157 311.9 415.988 311.496 415.974Z" fill="white"/>
<path d="M321.894 402.619C321.49 402.634 321.107 402.803 320.827 403.092C320.546 403.381 320.389 403.767 320.389 404.168C320.389 404.57 320.546 404.955 320.827 405.244C321.107 405.533 321.49 405.703 321.894 405.717C322.298 405.703 322.681 405.533 322.961 405.244C323.242 404.955 323.399 404.57 323.399 404.168C323.399 403.767 323.242 403.381 322.961 403.092C322.681 402.803 322.298 402.634 321.894 402.619Z" fill="white"/>
<path d="M377.775 399.291C377.359 384.209 373.307 369.041 364.65 357.319C355.993 345.596 342.429 337.707 328.336 338.192C322.507 338.293 316.79 339.806 311.682 342.599C306.575 345.392 302.231 349.382 299.029 354.221C298.672 354.726 298.331 355.247 297.992 355.769C297.675 356.26 297.37 356.759 297.066 357.262C291.648 367.033 288.368 377.83 287.44 388.946C287.287 390.386 287.157 391.824 287.058 393.261C294.363 395.988 301.331 399.533 307.827 403.827C307.988 400.827 308.334 397.84 308.862 394.883C311.136 382.699 316.373 371.251 324.118 361.535C324.185 361.454 324.268 361.387 324.363 361.34C324.388 361.33 324.415 361.323 324.441 361.318C324.5 361.295 324.562 361.282 324.625 361.279C324.662 361.282 324.698 361.289 324.733 361.3C324.781 361.306 324.828 361.317 324.873 361.334C324.925 361.36 324.975 361.391 325.021 361.428C325.043 361.442 325.065 361.457 325.086 361.473C325.149 361.531 325.204 361.596 325.249 361.668C325.331 361.79 325.377 361.932 325.385 362.078C325.392 362.223 325.359 362.369 325.291 362.498C325.271 362.546 325.248 362.593 325.22 362.637C323.055 365.367 321.084 368.244 319.323 371.246C313.245 381.565 309.799 393.203 309.285 405.147C309.283 405.283 309.245 405.415 309.176 405.531C309.107 405.648 309.008 405.744 308.89 405.812C308.772 405.879 308.638 405.915 308.502 405.916C308.366 405.917 308.232 405.883 308.113 405.817C306.734 404.967 305.367 404.12 303.986 403.287C298.624 399.902 292.915 397.092 286.956 394.906C280.418 392.446 273.306 391.903 266.466 393.341C263.708 393.745 261.127 394.935 259.035 396.765C258.583 397.254 258.193 397.795 257.873 398.377C257.136 399.653 256.738 401.094 256.714 402.565C256.708 404.07 257.108 405.55 257.873 406.85C258.187 407.408 258.568 407.927 259.007 408.395C260.06 409.409 261.197 410.332 262.406 411.156C263.608 412.045 264.836 412.896 266.092 413.71C273.174 418.278 280.96 421.667 289.143 423.744C290.522 424.098 291.924 424.405 293.325 424.691C295.816 425.203 298.331 425.587 300.861 425.843C302.025 425.957 303.203 426.025 304.382 426.094C309.436 426.431 314.513 426.177 319.508 425.338C322.721 424.85 325.808 423.749 328.6 422.096C331.165 420.39 333.331 418.157 334.952 415.549C338.465 409.929 341.27 403.902 343.304 397.603C345.52 391.187 347.079 384.566 347.957 377.84C347.979 377.697 348.04 377.561 348.132 377.449C348.229 377.329 348.356 377.237 348.5 377.181C348.643 377.125 348.799 377.108 348.952 377.13C348.986 377.133 349.021 377.138 349.054 377.146C349.093 377.156 349.131 377.171 349.167 377.189C349.211 377.208 349.252 377.232 349.291 377.261C349.317 377.28 349.341 377.301 349.364 377.324C349.402 377.368 349.433 377.417 349.456 377.47C349.468 377.496 349.482 377.515 349.492 377.543C349.52 377.641 349.528 377.744 349.515 377.846C349.293 379.554 349.037 381.257 348.727 382.953C347.452 390.034 345.425 396.962 342.681 403.619C341.375 406.818 339.901 409.947 338.266 412.994C336.813 415.847 334.943 418.47 332.716 420.779C327.891 425.54 321.138 426.96 314.591 427.506C311.999 427.705 309.398 427.771 306.799 427.702C302.863 427.629 298.938 427.264 295.057 426.608C293.526 426.346 292.009 426.021 290.498 425.663C290.214 425.692 289.933 425.718 289.649 425.749C291.828 434.147 295.597 442.618 303.046 447.619C305.33 449.108 307.816 450.267 310.428 451.063C316.151 452.652 322.043 453.562 327.982 453.773C335.606 454.602 343.3 454.558 350.914 453.643C353.244 453.28 355.54 452.725 357.778 451.986C358.304 451.809 358.824 451.62 359.339 451.419C362.605 450.311 365.542 448.414 367.885 445.898C370.229 443.382 371.905 440.326 372.763 437.006C376.223 424.733 377.91 412.035 377.775 399.291ZM305.995 386.291C305.591 386.277 305.208 386.107 304.928 385.818C304.647 385.53 304.49 385.144 304.49 384.742C304.49 384.341 304.647 383.955 304.928 383.666C305.208 383.377 305.591 383.208 305.995 383.194C306.399 383.208 306.782 383.377 307.062 383.666C307.343 383.955 307.5 384.341 307.5 384.742C307.5 385.144 307.343 385.53 307.062 385.818C306.782 386.107 306.399 386.277 305.995 386.291ZM311.496 359.579C311.092 359.564 310.709 359.395 310.428 359.106C310.148 358.817 309.991 358.431 309.991 358.03C309.991 357.628 310.148 357.243 310.428 356.954C310.709 356.665 311.092 356.495 311.496 356.481C311.9 356.495 312.282 356.665 312.563 356.954C312.844 357.243 313.001 357.628 313.001 358.03C313.001 358.431 312.844 358.817 312.563 359.106C312.282 359.395 311.9 359.564 311.496 359.579ZM341.442 374.148C341.172 374.143 340.907 374.069 340.675 373.931C340.443 373.793 340.252 373.597 340.12 373.363C339.989 373.128 339.921 372.863 339.925 372.595C339.929 372.327 340.003 372.064 340.142 371.833C340.171 371.774 340.204 371.717 340.24 371.661C340.292 371.591 340.35 371.525 340.413 371.465C340.544 371.352 340.688 371.256 340.843 371.178C341.03 371.1 341.231 371.059 341.434 371.056C341.641 371.057 341.846 371.099 342.037 371.18C342.087 371.202 342.136 371.228 342.183 371.258C342.296 371.317 342.399 371.394 342.488 371.485C342.617 371.606 342.717 371.756 342.78 371.921C342.803 371.976 342.835 372.025 342.854 372.082C342.895 372.221 342.918 372.364 342.923 372.508C342.928 372.639 342.917 372.771 342.892 372.9C342.892 372.937 342.892 372.972 342.874 373.009C342.844 373.132 342.799 373.251 342.74 373.363L342.699 373.434C342.577 373.656 342.396 373.84 342.175 373.966C341.954 374.092 341.702 374.155 341.448 374.148H341.442ZM345.733 357.759C345.492 357.759 345.254 357.702 345.04 357.593C344.826 357.483 344.641 357.325 344.501 357.13C344.36 356.935 344.269 356.711 344.234 356.474C344.199 356.237 344.221 355.995 344.299 355.769C344.378 355.451 344.562 355.168 344.822 354.966C345.082 354.764 345.403 354.654 345.733 354.654C346.063 354.654 346.383 354.764 346.643 354.966C346.903 355.168 347.088 355.451 347.167 355.769C347.245 355.995 347.267 356.237 347.232 356.474C347.197 356.711 347.105 356.935 346.965 357.13C346.825 357.325 346.64 357.483 346.425 357.593C346.211 357.702 345.974 357.759 345.733 357.759ZM354.902 416.036C354.498 416.022 354.115 415.853 353.834 415.564C353.554 415.275 353.397 414.889 353.397 414.488C353.397 414.086 353.554 413.7 353.834 413.411C354.115 413.123 354.498 412.953 354.902 412.939C355.306 412.954 355.688 413.124 355.968 413.413C356.248 413.703 356.405 414.089 356.404 414.49C356.403 414.892 356.245 415.277 355.964 415.566C355.683 415.854 355.3 416.023 354.896 416.036H354.902ZM359.348 395.362C359.293 395.376 359.236 395.388 359.179 395.395C358.876 395.408 358.577 395.323 358.327 395.153C358.076 394.984 357.887 394.739 357.788 394.454C357.644 394.062 357.644 393.633 357.788 393.241C357.888 392.957 358.076 392.711 358.327 392.542C358.577 392.372 358.876 392.286 359.179 392.298C359.236 392.307 359.293 392.318 359.348 392.333C359.715 392.386 360.05 392.569 360.292 392.848C360.534 393.126 360.667 393.482 360.666 393.85C360.666 394.218 360.531 394.574 360.288 394.851C360.045 395.129 359.709 395.31 359.342 395.362H359.348ZM363.458 365.65C363.054 365.636 362.671 365.466 362.391 365.178C362.11 364.889 361.953 364.503 361.953 364.101C361.953 363.7 362.11 363.314 362.391 363.025C362.671 362.736 363.054 362.567 363.458 362.553C363.862 362.568 364.244 362.738 364.525 363.027C364.805 363.317 364.961 363.703 364.96 364.104C364.959 364.506 364.802 364.891 364.52 365.18C364.239 365.468 363.856 365.637 363.452 365.65H363.458ZM367.126 426.964C366.713 426.964 366.316 426.801 366.023 426.51C365.731 426.22 365.566 425.826 365.566 425.415C365.566 425.004 365.731 424.609 366.023 424.319C366.316 424.028 366.713 423.865 367.126 423.865C367.54 423.866 367.937 424.03 368.229 424.321C368.521 424.612 368.685 425.006 368.684 425.417C368.683 425.828 368.518 426.222 368.225 426.512C367.932 426.803 367.534 426.965 367.121 426.964H367.126ZM368.959 399.039C368.555 399.024 368.172 398.855 367.891 398.566C367.611 398.277 367.454 397.891 367.454 397.49C367.454 397.089 367.611 396.703 367.891 396.414C368.172 396.125 368.555 395.956 368.959 395.941C369.363 395.956 369.745 396.126 370.025 396.416C370.305 396.705 370.462 397.091 370.461 397.493C370.46 397.894 370.302 398.28 370.021 398.568C369.74 398.857 369.357 399.025 368.953 399.039H368.959Z" fill="#F9D476"/>
<path d="M284.84 446.012C274.349 451.064 265.034 459.329 261.765 469.909C259.129 478.448 260.623 487.543 262.414 496.23C264.459 506.162 266.866 516.024 269.272 525.882C269.998 529.905 271.467 533.76 273.606 537.252C274.764 539.031 276.356 540.49 278.235 541.493C280.114 542.496 282.218 543.01 284.351 542.987C292.035 542.474 295.802 533.986 297.114 526.881C299.921 511.677 299.603 496.067 296.18 480.988C315.203 479.558 333.758 474.434 350.794 465.906C358.501 462.03 366.567 456.404 367.558 448.296C368.693 439.007 359.323 431.02 349.488 429.453C339.653 427.886 295.333 440.962 284.84 446.012Z" fill="#74A3D7"/>
<path d="M285.884 297.253C282.753 295.601 278.388 294.557 275.759 297.677C275.119 298.437 276.217 299.538 276.863 298.773C279.03 296.208 282.56 297.251 285.098 298.589C285.985 299.057 286.773 297.72 285.884 297.253Z" fill="black"/>
<path d="M305.404 299.619C304.47 299.961 304.874 301.458 305.818 301.111C307.252 300.553 308.83 300.469 310.316 300.873C311.802 301.276 313.117 302.145 314.067 303.35C314.672 304.133 316.025 303.35 315.412 302.567C314.288 301.069 312.706 299.972 310.902 299.44C309.098 298.909 307.169 298.971 305.404 299.619Z" fill="black"/>
<path d="M295.62 317.176C296.572 317.497 296.982 316.002 296.034 315.683C294.261 315.096 292.399 315.372 290.616 314.924C289.904 314.78 289.247 314.441 288.719 313.945C288.425 313.545 288.229 313.082 288.145 312.594C288.061 312.105 288.092 311.604 288.236 311.129C288.816 307.02 289.448 302.912 290.055 298.802C290.199 297.824 288.697 297.405 288.552 298.39L287.486 305.606L286.966 309.128C286.726 310.255 286.594 311.402 286.572 312.554C286.624 313.361 286.918 314.134 287.417 314.773C287.916 315.412 288.596 315.889 289.369 316.141C291.375 316.947 293.593 316.504 295.62 317.176Z" fill="black"/>
<path d="M306.036 318.037C300.951 320.702 295.036 321.352 289.487 319.854C289.3 319.831 289.109 319.875 288.952 319.98C288.794 320.084 288.68 320.241 288.629 320.422C288.579 320.603 288.596 320.797 288.677 320.967C288.758 321.136 288.898 321.271 289.072 321.347C294.686 322.845 300.656 322.296 305.899 319.801C306.771 324.439 301.761 327.646 297.642 328.401C296.657 328.581 297.074 330.074 298.057 329.894C303.282 328.937 309.187 324.415 307.171 318.5C307.138 318.388 307.08 318.285 307.001 318.198C306.922 318.111 306.824 318.043 306.716 317.999C306.607 317.954 306.489 317.935 306.372 317.941C306.254 317.948 306.14 317.98 306.036 318.037Z" fill="black"/>
<path d="M284.45 301.832C283.846 301.856 283.275 302.112 282.857 302.544C282.439 302.977 282.205 303.554 282.205 304.154C282.205 304.754 282.439 305.331 282.857 305.764C283.275 306.197 283.846 306.452 284.45 306.477C285.053 306.452 285.624 306.197 286.042 305.764C286.461 305.331 286.694 304.754 286.694 304.154C286.694 303.554 286.461 302.977 286.042 302.544C285.624 302.112 285.053 301.856 284.45 301.832Z" fill="black"/>
<path d="M310.351 303.88C309.747 303.905 309.177 304.16 308.758 304.593C308.34 305.026 308.107 305.603 308.107 306.203C308.107 306.803 308.34 307.379 308.758 307.812C309.177 308.245 309.747 308.501 310.351 308.525C310.955 308.501 311.525 308.245 311.944 307.812C312.362 307.379 312.596 306.803 312.596 306.203C312.596 305.603 312.362 305.026 311.944 304.593C311.525 304.16 310.955 303.905 310.351 303.88Z" fill="black"/>
<path d="M423.216 348.13V284.499C423.216 282.629 423.246 280.758 423.216 278.888C423.107 277.838 422.665 276.85 421.954 276.066C415.157 265.794 408.36 255.521 401.565 245.249L381.176 214.431L380.017 212.682L379.345 211.664V154.058H353.673V172.854L320.529 122.763L308.044 103.893C307.974 103.779 307.875 103.684 307.757 103.618C307.639 103.552 307.506 103.518 307.371 103.518C307.236 103.518 307.103 103.552 306.986 103.618C306.868 103.684 306.769 103.779 306.699 103.893C302.246 110.621 297.794 117.35 293.343 124.078C282.925 139.828 272.505 155.577 262.085 171.326L226.24 225.504L198.816 266.956C196.659 270.217 194.501 273.478 192.342 276.739C191.683 277.658 191.392 278.787 191.524 279.907V521.33C191.524 521.538 191.607 521.737 191.755 521.884C191.903 522.031 192.103 522.113 192.312 522.113H413.07C416.057 522.265 419.05 522.265 422.036 522.113C422.168 522.106 422.299 522.106 422.43 522.113C422.639 522.113 422.84 522.031 422.988 521.884C423.135 521.737 423.218 521.538 423.218 521.33V348.13H423.216ZM421.658 281.265V515.04C421.56 516.877 421.56 518.718 421.658 520.555H195.805C194.904 520.478 193.998 520.46 193.094 520.501V284.351C192.958 282.397 192.95 280.436 193.071 278.481C193.098 278.422 193.133 278.367 193.173 278.316C193.404 278.019 193.595 277.678 193.802 277.365C194.663 276.061 195.525 274.756 196.387 273.452L219.861 237.97L255.01 184.84C266.128 168.039 277.245 151.236 288.36 134.431L307.173 105.997L307.37 105.683L337.098 150.614L361.421 187.38L378.672 213.455C383.772 221.164 388.872 228.873 393.972 236.582C401.777 248.377 409.582 260.173 417.385 271.969L420.647 276.9C420.904 277.344 421.187 277.773 421.496 278.183C421.578 278.281 421.644 278.389 421.693 278.506C421.728 279.426 421.716 280.346 421.658 281.265Z" fill="#5B5B5B"/>
<path d="M204.972 259.687V518.296C205.001 518.481 205.095 518.65 205.238 518.772C205.381 518.894 205.563 518.961 205.752 518.961C205.94 518.961 206.123 518.894 206.265 518.772C206.408 518.65 206.503 518.481 206.531 518.296V259.687C206.503 259.502 206.408 259.333 206.265 259.211C206.123 259.088 205.94 259.021 205.752 259.021C205.563 259.021 205.381 259.088 205.238 259.211C205.095 259.333 205.001 259.502 204.972 259.687Z" fill="#5B5B5B"/>
<path d="M221.476 242.689V514.046C221.505 514.231 221.599 514.4 221.742 514.522C221.885 514.644 222.067 514.711 222.256 514.711C222.444 514.711 222.626 514.644 222.769 514.522C222.912 514.4 223.007 514.231 223.035 514.046V242.689C223.007 242.504 222.912 242.335 222.769 242.213C222.626 242.091 222.444 242.024 222.256 242.024C222.067 242.024 221.885 242.091 221.742 242.213C221.599 242.335 221.505 242.504 221.476 242.689Z" fill="#5B5B5B"/>
<path d="M240.425 225.083V287.004C240.453 287.189 240.547 287.358 240.69 287.48C240.833 287.602 241.016 287.669 241.204 287.669C241.393 287.669 241.575 287.602 241.718 287.48C241.861 287.358 241.955 287.189 241.983 287.004V225.083C241.955 224.898 241.861 224.729 241.718 224.607C241.575 224.485 241.393 224.418 241.204 224.418C241.016 224.418 240.833 224.485 240.69 224.607C240.547 224.729 240.453 224.898 240.425 225.083Z" fill="#5B5B5B"/>
<path d="M239.812 309.466V362.57C239.839 362.757 239.933 362.928 240.076 363.051C240.219 363.175 240.403 363.242 240.593 363.242C240.782 363.242 240.966 363.175 241.109 363.051C241.252 362.928 241.346 362.757 241.373 362.57V359.856C241.346 359.67 241.252 359.499 241.109 359.376C240.966 359.252 240.782 359.184 240.593 359.184C240.403 359.184 240.219 359.252 240.076 359.376C239.933 359.499 239.839 359.67 239.812 359.856V362.57C239.839 362.757 239.933 362.928 240.076 363.051C240.219 363.175 240.403 363.242 240.593 363.242C240.782 363.242 240.966 363.175 241.109 363.051C241.252 362.928 241.346 362.757 241.373 362.57V309.466C241.346 309.28 241.252 309.109 241.109 308.986C240.966 308.862 240.782 308.794 240.593 308.794C240.403 308.794 240.219 308.862 240.076 308.986C239.933 309.109 239.839 309.28 239.812 309.466Z" fill="#5B5B5B"/>
<path d="M237.98 410.845V513.429C238.008 513.615 238.102 513.784 238.245 513.906C238.388 514.028 238.571 514.095 238.759 514.095C238.948 514.095 239.13 514.028 239.273 513.906C239.416 513.784 239.51 513.615 239.538 513.429V410.845C239.51 410.66 239.416 410.491 239.273 410.369C239.13 410.247 238.948 410.18 238.759 410.18C238.571 410.18 238.388 410.247 238.245 410.369C238.102 410.491 238.008 410.66 237.98 410.845Z" fill="#5B5B5B"/>
<path d="M258.761 189.266V236.011C258.788 236.198 258.882 236.368 259.025 236.492C259.168 236.615 259.352 236.683 259.541 236.683C259.731 236.683 259.914 236.615 260.058 236.492C260.201 236.368 260.295 236.198 260.321 236.011V189.266C260.295 189.08 260.201 188.909 260.058 188.786C259.914 188.662 259.731 188.594 259.541 188.594C259.352 188.594 259.168 188.662 259.025 188.786C258.882 188.909 258.788 189.08 258.761 189.266Z" fill="#5B5B5B"/>
<path d="M258.761 258.476V344.072C258.788 344.259 258.882 344.429 259.025 344.553C259.168 344.676 259.352 344.744 259.541 344.744C259.731 344.744 259.914 344.676 260.058 344.553C260.201 344.429 260.295 344.259 260.321 344.072V258.476C260.295 258.289 260.201 258.118 260.058 257.995C259.914 257.871 259.731 257.803 259.541 257.803C259.352 257.803 259.168 257.871 259.025 257.995C258.882 258.118 258.788 258.289 258.761 258.476Z" fill="#5B5B5B"/>
<path d="M279.536 160.128V251.794C279.564 251.979 279.658 252.148 279.801 252.27C279.944 252.392 280.127 252.459 280.315 252.459C280.504 252.459 280.686 252.392 280.829 252.27C280.972 252.148 281.066 251.979 281.095 251.794V160.128C281.066 159.943 280.972 159.774 280.829 159.651C280.686 159.529 280.504 159.462 280.315 159.462C280.127 159.462 279.944 159.529 279.801 159.651C279.658 159.774 279.564 159.943 279.536 160.128Z" fill="#5B5B5B"/>
<path d="M303.375 126.133V175.306C303.403 175.491 303.497 175.66 303.64 175.782C303.783 175.904 303.965 175.971 304.154 175.971C304.343 175.971 304.525 175.904 304.668 175.782C304.811 175.66 304.905 175.491 304.933 175.306V126.133C304.905 125.947 304.811 125.778 304.668 125.656C304.525 125.534 304.343 125.467 304.154 125.467C303.965 125.467 303.783 125.534 303.64 125.656C303.497 125.778 303.403 125.947 303.375 126.133Z" fill="#5B5B5B"/>
<path d="M324.164 142.524V178.947C324.191 179.133 324.284 179.304 324.428 179.428C324.571 179.551 324.754 179.619 324.944 179.619C325.134 179.619 325.317 179.551 325.46 179.428C325.604 179.304 325.697 179.133 325.724 178.947V142.524C325.697 142.337 325.604 142.166 325.46 142.043C325.317 141.919 325.134 141.851 324.944 141.851C324.754 141.851 324.571 141.919 324.428 142.043C324.284 142.166 324.191 142.337 324.164 142.524Z" fill="#5B5B5B"/>
<path d="M344.336 183.197V223.256C344.364 223.441 344.458 223.61 344.601 223.732C344.744 223.854 344.927 223.921 345.115 223.921C345.304 223.921 345.486 223.854 345.629 223.732C345.772 223.61 345.866 223.441 345.894 223.256V183.197C345.866 183.012 345.772 182.843 345.629 182.721C345.486 182.598 345.304 182.531 345.115 182.531C344.927 182.531 344.744 182.598 344.601 182.721C344.458 182.843 344.364 183.012 344.336 183.197Z" fill="#5B5B5B"/>
<path d="M345.557 282.754V331.32C345.584 331.507 345.678 331.678 345.821 331.801C345.965 331.925 346.148 331.993 346.338 331.993C346.527 331.993 346.711 331.925 346.854 331.801C346.997 331.678 347.091 331.507 347.118 331.32V282.754C347.091 282.567 346.997 282.397 346.854 282.273C346.711 282.15 346.527 282.082 346.338 282.082C346.148 282.082 345.965 282.15 345.821 282.273C345.678 282.397 345.584 282.567 345.557 282.754Z" fill="#5B5B5B"/>
<path d="M374.891 279.719V358.031C374.918 358.217 375.011 358.388 375.155 358.512C375.298 358.635 375.481 358.703 375.671 358.703C375.861 358.703 376.044 358.635 376.187 358.512C376.331 358.388 376.424 358.217 376.451 358.031V279.719C376.424 279.533 376.331 279.362 376.187 279.238C376.044 279.115 375.861 279.047 375.671 279.047C375.481 279.047 375.298 279.115 375.155 279.238C375.011 279.362 374.918 279.533 374.891 279.719Z" fill="#5B5B5B"/>
<path d="M398.73 287.611V339.818C398.756 340.005 398.85 340.176 398.993 340.299C399.137 340.423 399.32 340.491 399.51 340.491C399.7 340.491 399.883 340.423 400.026 340.299C400.17 340.176 400.263 340.005 400.29 339.818V287.611C400.263 287.424 400.17 287.253 400.026 287.13C399.883 287.006 399.7 286.938 399.51 286.938C399.32 286.938 399.137 287.006 398.993 287.13C398.85 287.253 398.756 287.424 398.73 287.611Z" fill="#5B5B5B"/>
<path d="M398.73 354.388V514.051C398.756 514.238 398.85 514.409 398.993 514.532C399.137 514.656 399.32 514.724 399.51 514.724C399.7 514.724 399.883 514.656 400.026 514.532C400.17 514.409 400.263 514.238 400.29 514.051V354.388C400.263 354.201 400.17 354.03 400.026 353.907C399.883 353.783 399.7 353.715 399.51 353.715C399.32 353.715 399.137 353.783 398.993 353.907C398.85 354.03 398.756 354.201 398.73 354.388Z" fill="#5B5B5B"/>
<path d="M370.007 459.41V520.117C370.034 520.304 370.127 520.475 370.271 520.598C370.414 520.722 370.597 520.79 370.787 520.79C370.977 520.79 371.16 520.722 371.304 520.598C371.447 520.475 371.541 520.304 371.567 520.117V459.41C371.541 459.223 371.447 459.053 371.304 458.929C371.16 458.806 370.977 458.738 370.787 458.738C370.597 458.738 370.414 458.806 370.271 458.929C370.127 459.053 370.034 459.223 370.007 459.41Z" fill="#5B5B5B"/>
<path d="M341.891 489.167V518.908C341.919 519.093 342.013 519.262 342.156 519.384C342.299 519.506 342.482 519.573 342.67 519.573C342.859 519.573 343.041 519.506 343.184 519.384C343.327 519.262 343.421 519.093 343.449 518.908V489.167C343.421 488.981 343.327 488.812 343.184 488.69C343.041 488.568 342.859 488.501 342.67 488.501C342.482 488.501 342.299 488.568 342.156 488.69C342.013 488.812 341.919 488.981 341.891 489.167Z" fill="#5B5B5B"/>
<path d="M313.773 494.013V519.509C313.8 519.695 313.894 519.866 314.037 519.989C314.18 520.113 314.364 520.181 314.553 520.181C314.743 520.181 314.927 520.113 315.07 519.989C315.213 519.866 315.307 519.695 315.334 519.509V494.013C315.307 493.827 315.213 493.656 315.07 493.533C314.927 493.409 314.743 493.341 314.553 493.341C314.364 493.341 314.18 493.409 314.037 493.533C313.894 493.656 313.8 493.827 313.773 494.013Z" fill="#5B5B5B"/>
</svg>
